<?xml version="1.0" encoding="UTF-8" standalone="no"?>

<svg
   width="101.46169mm"
   height="95.649796mm"
   viewBox="0 0 101.46169 95.649796"
   version="1.1"
   id="svg5"
   xmlns="http://www.w3.org/2000/svg"
   xmlns:svg="http://www.w3.org/2000/svg">
  <defs
     id="defs2" />
  <g
     id="layer1"
     transform="translate(-149.81644,-64.73769)">
    <g
       id="layer1-2"
       transform="matrix(0.26458334,0,0,0.26458334,123.02738,33.01217)"
       style="fill:#ffffff">
	<path
   id="path854"
   class="st0"
   d="m 133.8,480.2 c -7.3,-2.1 -13.8,-6 -19.5,-11.7 -17.4,-17.4 -17.4,-44.9 0,-62.3 9.2,-9.2 19,-13.1 32.8,-13.1 6.9,0 8.1,0.2 10.4,1.7 7,4.7 6.6,14.5 -0.8,18.8 -1.7,1 -4.6,1.6 -10,1.9 -5.6,0.4 -8.4,0.9 -10.8,2.1 -16.3,8.4 -16.1,31.2 0.3,39.3 l 5,2.5 30.2,0.2 c 16.6,0.1 30.2,0 30.2,-0.2 0,-0.3 -1.5,-3.6 -3.3,-7.4 -5.5,-11.2 -5.8,-15.1 -5.5,-53.4 0.3,-26.4 0.6,-33.5 1.6,-39 4.1,-21.2 13.8,-40.3 28.1,-55.3 13.1,-13.8 27.5,-23 44.6,-28.7 11.9,-3.9 18.3,-5 33.9,-5.6 13.1,-0.5 14.6,-0.7 18.5,-2.5 7.9,-3.6 13.4,-10.2 15.3,-18.5 0.6,-2.7 1,-9.3 1,-18.2 0,-18.9 1.8,-27.6 8,-38.8 6.6,-12.1 15.1,-20.3 28.7,-27.8 l 4.8,-2.6 7.2,-17.7 c 4,-9.7 7.8,-18.6 8.5,-19.7 3.1,-4.7 11.9,-5.8 16,-2 3.5,3.3 3.7,4.1 4.1,20.5 l 0.4,15.7 5.2,0.9 c 12.5,2.2 20.9,6.6 30,15.7 3.7,3.7 7.6,8.3 8.6,10.2 1.6,3.1 3,4.2 12.5,10 11.4,6.9 14.2,9.4 14.9,13.5 0.4,2.3 -3.7,25.4 -5.8,32.8 -1,3.6 -3.3,5.7 -16,14.9 l -10.5,7.6 -0.5,23.8 c -0.4,19.7 -0.7,25.2 -2,32 -4.1,21.4 -11.5,39.2 -23.5,57.1 l -5.1,7.6 0.2,26.1 0.2,26.1 3.6,0.5 c 6.7,1 13.3,6.2 16.4,13 2.4,5.2 2.3,12.8 -0.1,18.2 -2.2,4.9 -7.8,10.1 -12.6,11.7 -5.5,1.9 -27.3,1.7 -33,-0.3 -8.7,-3.1 -16.3,-11 -17.1,-17.9 -1.7,-14.3 -4.7,-21.1 -12.7,-29 -8.3,-8.2 -18.5,-12.3 -30.3,-12.4 h -4.7 v -20.8 c 0,-22.6 -0.5,-27.4 -3.7,-36.7 -3.6,-10.4 -7.8,-16.9 -16.6,-25.7 -11.5,-11.5 -22.2,-17.2 -37.3,-19.9 -12.2,-2.1 -17.6,-1.1 -21,4.1 -3.2,4.8 -1.7,12.3 3.2,15.5 1.1,0.7 4.8,1.6 8.8,2 8.5,0.9 13.9,2.5 20.6,6.2 9.5,5.3 17,14.6 21.4,26.4 1.5,4.1 1.6,6.1 2,34 0.6,39.1 -0.7,36.9 20.3,37.5 14.5,0.5 16.8,1.1 21.8,6.1 4.5,4.5 5.2,7.1 5.2,20.3 v 11.8 L 247,481.2 c -100.6,0.3 -109.1,0.2 -113.2,-1 z M 441.2,215 c 3.8,-1.6 6.1,-5.3 6.1,-10 0,-8.7 -8.5,-13.9 -16,-9.8 -12.9,6.9 -3.6,25.4 9.9,19.8 z"
   style="fill:#ffffff" />

</g>
  </g>
  <style
     type="text/css"
     id="style832">
	.st0{fill:#FFFFFF;}
</style>
</svg>
