<?xml version="1.0" encoding="UTF-8" standalone="no"?>

<svg
   width="135.32625mm"
   height="127.57167mm"
   viewBox="0 0 135.32625 127.57167"
   version="1.1"
   id="svg5"
   inkscape:version="1.1.1 (3bf5ae0d25, 2021-09-20)"
   sodipodi:docname="cat.html"
   xmlns:inkscape="http://www.inkscape.org/namespaces/inkscape"
   xmlns:sodipodi="http://sodipodi.sourceforge.net/DTD/sodipodi-0.dtd"
   xmlns="http://www.w3.org/2000/svg"
   xmlns:svg="http://www.w3.org/2000/svg">
  <sodipodi:namedview
     id="namedview7"
     pagecolor="#ffffff"
     bordercolor="#999999"
     borderopacity="1"
     inkscape:pageshadow="0"
     inkscape:pageopacity="0"
     inkscape:pagecheckerboard="0"
     inkscape:document-units="mm"
     showgrid="false"
     fit-margin-top="0"
     fit-margin-left="0"
     fit-margin-right="0"
     fit-margin-bottom="0"
     inkscape:zoom="0.16013082"
     inkscape:cx="-452.75481"
     inkscape:cy="421.53034"
     inkscape:window-width="1920"
     inkscape:window-height="1017"
     inkscape:window-x="-8"
     inkscape:window-y="-8"
     inkscape:window-maximized="1"
     inkscape:current-layer="layer1" />
  <defs
     id="defs2" />
  <g
     inkscape:label="Layer 1"
     inkscape:groupmode="layer"
     id="layer1"
     transform="translate(-101.24562,-120.05239)">
    <path
       style="fill:#ffffff;stroke-width:0.264583"
       d="m 112.72319,247.08772 c -2.56626,-0.73872 -4.86725,-2.12101 -6.88185,-4.13417 -6.126367,-6.12203 -6.127882,-15.84793 -0.003,-21.96593 3.25503,-3.25158 6.69584,-4.62606 11.58069,-4.62606 2.4362,0 2.87442,0.0718 3.66598,0.60058 2.4773,1.65495 2.33196,5.11988 -0.27889,6.64872 -0.60985,0.35711 -1.63492,0.55389 -3.54422,0.68036 -1.98635,0.13158 -2.97734,0.32858 -3.80366,0.75614 -5.73508,2.96749 -5.66657,11.00396 0.1181,13.85292 l 1.7805,0.8769 10.65578,0.0848 c 5.86068,0.0466 10.65578,0.0114 10.65578,-0.0783 0,-0.0897 -0.53177,-1.25895 -1.18171,-2.59835 -1.92465,-3.96633 -2.0619,-5.30933 -1.92414,-18.82762 0.095,-9.3186 0.19877,-11.81962 0.57104,-13.75835 1.43435,-7.4697 4.85082,-14.20131 9.90089,-19.50807 4.62174,-4.85666 9.70669,-8.12989 15.74493,-10.13515 4.18485,-1.38976 6.44921,-1.76335 11.96198,-1.97358 4.61549,-0.17602 5.16744,-0.24938 6.51404,-0.86588 2.79959,-1.28169 4.72761,-3.60246 5.41342,-6.51615 0.22559,-0.95843 0.35318,-3.26475 0.35583,-6.43188 0.006,-6.6747 0.63067,-9.72213 2.80594,-13.67953 2.34184,-4.26046 5.33309,-7.15995 10.12762,-9.81697 l 1.68645,-0.93459 2.54779,-6.23204 c 1.40128,-3.42761 2.75727,-6.55053 3.0133,-6.9398 1.09282,-1.66154 4.20432,-2.04555 5.64624,-0.69685 1.22986,1.15037 1.29089,1.45944 1.42888,7.23678 l 0.13229,5.53893 1.85208,0.31986 c 4.39463,0.75896 7.38554,2.32013 10.58912,5.52722 1.31288,1.3143 2.67359,2.93955 3.02381,3.61165 0.56629,1.08675 1.05519,1.47669 4.41706,3.52307 4.0118,2.442 4.99938,3.33316 5.26545,4.7514 0.15221,0.81134 -1.28994,8.95262 -2.05272,11.58811 -0.36654,1.26641 -1.15772,2.00316 -5.6323,5.24477 l -3.70417,2.68349 -0.16224,8.38004 c -0.13447,6.94561 -0.25773,8.87931 -0.72008,11.29686 -1.44078,7.53357 -4.04015,13.84462 -8.29332,20.13547 l -1.8115,2.67938 0.0696,9.22367 0.0696,9.22367 1.26402,0.18074 c 2.36902,0.33875 4.69972,2.18474 5.79288,4.58816 0.83813,1.84273 0.82772,4.50667 -0.0251,6.42393 -0.76384,1.71718 -2.73626,3.55637 -4.43461,4.13505 -1.94777,0.66368 -9.6461,0.59869 -11.62876,-0.0982 -3.07965,-1.08241 -5.74708,-3.87354 -6.0405,-6.32063 -0.60658,-5.05895 -1.6443,-7.42699 -4.48137,-10.22635 -2.91764,-2.87886 -6.51631,-4.34873 -10.67519,-4.36029 l -1.65365,-0.005 -0.002,-7.34219 c -0.002,-7.98572 -0.17073,-9.66548 -1.30016,-12.95725 -1.25656,-3.66267 -2.74033,-5.96757 -5.84148,-9.07441 -4.06488,-4.07234 -7.83569,-6.08148 -13.15478,-7.00906 -4.31221,-0.75198 -6.19601,-0.38828 -7.41129,1.43089 -1.14195,1.7094 -0.6066,4.34452 1.11131,5.47014 0.40164,0.26316 1.67623,0.55093 3.12148,0.70474 3.01255,0.32061 4.9096,0.895 7.25125,2.19554 3.34462,1.85757 6.00375,5.13353 7.55769,9.31084 0.53521,1.43876 0.57703,2.13874 0.71566,11.97909 0.19441,13.80024 -0.23645,13.00324 7.15868,13.24227 5.12229,0.16558 5.91702,0.38837 7.68227,2.15362 1.5982,1.5982 1.83043,2.50337 1.83692,7.15984 l 0.006,4.16719 -38.43072,-0.0189 c -35.58379,-0.0174 -38.54833,-0.0527 -40.01823,-0.47582 z m 108.44833,-93.53477 c 1.34539,-0.56214 2.1475,-1.87549 2.1475,-3.51626 0,-3.05373 -3.00179,-4.8952 -5.66067,-3.4726 -4.52497,2.42102 -1.23212,8.97157 3.51317,6.98886 z"
       id="path854" />
  </g>
</svg>
