<?xml version="1.0" encoding="UTF-8" standalone="no"?>
<svg
   version="1.1"
   id="svg824"
   xml:space="preserve"
   width="2666.6667"
   height="2666.6667"
   viewBox="0 0 2666.6667 2666.6667"
   xmlns="http://www.w3.org/2000/svg"
   xmlns:svg="http://www.w3.org/2000/svg"><defs
     id="defs828"><clipPath
       clipPathUnits="userSpaceOnUse"
       id="clipPath844"><path
         d="M 0,2000 H 2000 V 0 H 0 Z"
         id="path842" /></clipPath><clipPath
       clipPathUnits="userSpaceOnUse"
       id="clipPath916"><path
         d="M 0,2000 H 2000 V 0 H 0 Z"
         id="path914" /></clipPath></defs><g
     id="g830"
     transform="matrix(1.3333333,0,0,-1.3333333,0,2666.6667)"><g
       id="g834"
       transform="translate(1668.8611,1039.2312)"><path
         d="M 0,0 -191.652,11.723"
         style="fill:none;stroke:#ffffff;stroke-width:15;stroke-linecap:butt;stroke-linejoin:miter;stroke-miterlimit:10;stroke-dasharray:none;stroke-opacity:1"
         id="path836" /></g><g
       id="g838"><g
         id="g840"
         clip-path="url(#clipPath844)"><g
           id="g846"
           transform="translate(559.2387,750.8716)"><path
             d="m 0,0 c -8.905,2.665 -30.42,15.849 -52.906,31.288 -21.502,14.762 -26.152,12.265 -34.759,35.133 0.622,-38.969 9.054,-81.004 29.358,-106.086 34,-42 34,-94 39,-106 0.123,-0.295 0.274,-0.554 0.439,-0.795 2.401,8.019 4.553,15.206 6.34,21.172 C -0.788,-86.078 0.202,-26.409 0,0 Z"
             style="fill:none;stroke:#ffffff;stroke-width:15;stroke-linecap:butt;stroke-linejoin:miter;stroke-miterlimit:10;stroke-dasharray:none;stroke-opacity:1"
             id="path848" /></g><g
           id="g850"
           transform="translate(1272.8051,1552.9622)"><path
             d="m 0,0 c -88.798,29.454 -200.206,3.889 -311.613,-21.676 -52.234,-34.739 -105.856,-69.476 -161.677,-110.257 -55.822,-40.78 -115.23,-87.602 -174.638,-134.423 v 0 c -48.835,-38.767 -97.67,-77.533 -125.109,-112.65 -27.438,-35.117 -32.377,-67.701 -38.418,-99.167 6.966,-1.992 13.689,-3.864 19.15,-5.289 17.199,-4.49 39.508,-34.262 47.258,-45.251 51.32,-26.829 62.486,-102.904 82.242,-130.249 13.889,-19.225 72,-35 72,-35 0,0 -52,166 51,266 44.201,42.913 107.09,33.654 150.203,31.748 43.112,-1.907 187.803,52.209 229.561,93.809 41.758,41.6 -29.656,131.607 -25.118,130.094 4.538,-1.512 71.854,-37.818 145.977,-148.246 51.423,-76.61 180.886,-88.088 254.351,-82.884 32.431,2.298 53.952,7.846 53.026,12.479 -3.025,15.127 -5.589,49.227 -6.345,99.146 -0.757,49.92 -40.679,93.426 -40.679,93.426 C 154.983,-113.92 88.798,-29.454 0,0 Z"
             style="fill:none;stroke:#ffffff;stroke-width:15;stroke-linecap:butt;stroke-linejoin:miter;stroke-miterlimit:10;stroke-dasharray:none;stroke-opacity:1"
             id="path852" /></g><g
           id="g854"
           transform="translate(796.3183,1055.3527)"><path
             d="M 0,0 -338.318,20.556"
             style="fill:none;stroke:#ffffff;stroke-width:15;stroke-linecap:butt;stroke-linejoin:miter;stroke-miterlimit:10;stroke-dasharray:none;stroke-opacity:1"
             id="path856" /></g><g
           id="g858"
           transform="translate(1492,980)"><path
             d="m 0,0 c -8.955,26.118 -25.475,53.805 -14,102 4.696,19.721 7.848,44.955 9.974,67.521 -73.465,-5.204 -202.928,6.274 -254.351,82.884 -74.123,110.428 -141.439,146.734 -145.977,148.246 -4.538,1.513 66.876,-88.494 25.118,-130.094 -41.758,-41.599 -186.449,-95.716 -229.561,-93.809 C -651.91,178.654 -714.799,187.914 -759,145 c -103,-100 -51,-266 -51,-266 0,0 -58.111,15.775 -72,35 -19.756,27.345 -30.922,103.421 -82.242,130.249 -7.75,10.989 -30.059,40.762 -47.258,45.251 -5.461,1.426 -12.184,3.298 -19.15,5.289 0,0 0,0 0,0 -9.629,-1.322 -20.359,-1.523 -31.436,-10.082 -11.077,-8.56 -23.6,-24.355 -36.124,-40.151 0,0 -7.572,-68.97 0,-87.927 7.573,-18.958 19.158,-33.703 19.158,-33.703 0,0 7.373,-12.638 14.745,-18.957 7.373,-6.32 33.573,-20.384 44.807,-48.469 0.965,-2.412 1.835,-4.675 2.644,-6.824 8.607,-22.868 9.687,-31.755 31.188,-46.517 22.487,-15.438 44.001,-28.623 52.907,-31.287 0.202,-26.409 -0.788,-86.079 -12.529,-125.289 -1.786,-5.966 -3.938,-13.152 -6.339,-21.171 -9.524,-31.804 -23.034,-76.915 -33.844,-113.007 -0.303,-1.559 -1.221,-4.632 -2.296,-8.561 -1.974,-7.209 -4.476,-17.32 -4.728,-26.428 -0.188,-6.769 0.866,-12.98 4.325,-17.008 24.153,-28.128 316.421,-260.395 356.172,-279.408 21.397,-10.234 45.15,-12.903 50.108,-20.372 15.455,-0.915 32.191,-4.385 53.408,-2.518 110.422,44.638 124.291,72.827 124.767,73.858 0.621,3.286 1.223,6.67 1.796,10.171 0.567,1.046 4.1,8.373 3.344,27.746 -0.809,20.715 3.053,61.085 3.053,61.089 0,0 54.799,-8.583 100.024,4.526 69,20 112.513,57.849 129,74 49,48 57.603,89.906 73,127 22,53 39.338,90.752 46,112 11.854,37.81 41.139,118.301 47,152 C 3.5,-177.5 24,-70 0,0 Z"
             style="fill:none;stroke:#ffffff;stroke-width:15;stroke-linecap:butt;stroke-linejoin:miter;stroke-miterlimit:10;stroke-dasharray:none;stroke-opacity:1"
             id="path860" /></g><g
           id="g862"
           transform="translate(963.5161,137.1099)"><path
             d="m 0,0 c -0.002,-0.001 -0.003,-0.001 -0.005,-0.002 0,0 32.014,-5.731 45.242,-17.531 11.293,-10.072 21.225,-24.754 33.371,-33.551 2.083,-1.509 4.228,-2.849 6.459,-3.959 15.242,-7.578 30.148,-12.727 30.148,-12.727 0,0 3.259,-1.119 4.458,0.704 0.984,1.497 23.149,31.525 29.937,54.953 1.478,5.101 2.232,9.891 1.874,14.003 -1.535,17.654 -6,32 -8,41 -3.225,14.512 -7.486,25.724 -18.702,31 0,0 -0.006,-0.013 -0.015,-0.032 C 124.291,72.827 110.421,44.638 0,0 Z"
             style="fill:none;stroke:#ffffff;stroke-width:15;stroke-linecap:butt;stroke-linejoin:miter;stroke-miterlimit:10;stroke-dasharray:none;stroke-opacity:1"
             id="path864" /></g><g
           id="g866"
           transform="translate(910.1078,139.6279)"><path
             d="m 0,0 c -4.958,7.469 -28.711,10.138 -50.108,20.372 -39.75,19.013 -332.019,251.28 -356.172,279.408 -3.459,4.028 -4.512,10.239 -4.325,17.008 0.252,9.108 2.754,19.219 4.728,26.428 1.076,3.929 1.993,7.002 2.296,8.561 0,0 -39.258,12.032 -56.716,-3.692 -17.459,-15.723 -6.875,-48.195 -70.811,-84.713 -36.822,-21.032 -46.155,-35.748 -47.449,-44.448 -0.954,-6.406 2.449,-9.552 2.449,-9.552 0,0 105,-142 416,-285 0,0 0.022,-0.004 0.053,-0.01 0.011,-0.002 0.012,-0.003 0.028,-0.006 0.046,-0.008 0.112,-0.02 0.2,-0.035 0.009,-0.002 0.018,-0.003 0.028,-0.005 0.191,-0.032 0.473,-0.076 0.846,-0.124 0.012,-0.002 0.022,-0.003 0.033,-0.005 0.191,-0.024 0.404,-0.049 0.641,-0.075 0.007,-10e-4 0.015,-10e-4 0.022,-0.002 6.637,-0.716 31.246,-1.526 74.779,17.256 0.002,10e-4 0.004,0.002 0.006,0.002 10.223,4.412 21.483,9.897 33.806,16.725 2.477,1.372 4.996,2.796 7.558,4.279 C -5.321,-16.345 4.253,-6.407 0,0 Z"
             style="fill:none;stroke:#ffffff;stroke-width:15;stroke-linecap:butt;stroke-linejoin:miter;stroke-miterlimit:10;stroke-dasharray:none;stroke-opacity:1"
             id="path868" /></g><g
           id="g870"
           transform="translate(944.5,85)"><path
             d="m 0,0 c -13.531,0 -24.5,-11.641 -24.5,-26 0,-14.359 10.969,-26 24.5,-26 13.531,0 24.5,11.641 24.5,26 C 24.5,-11.641 13.531,0 0,0 Z"
             style="fill:none;stroke:#ffffff;stroke-width:15;stroke-linecap:butt;stroke-linejoin:miter;stroke-miterlimit:10;stroke-dasharray:none;stroke-opacity:1"
             id="path872" /></g><g
           id="g874"
           transform="translate(944.5,33)"><path
             d="M 0,0 C -13.531,0 -24.5,11.641 -24.5,26 -24.5,40.359 -13.531,52 0,52 13.531,52 24.5,40.359 24.5,26 24.5,11.641 13.531,0 0,0 Z m 64.253,86.577 c -13.228,11.8 -45.242,17.531 -45.242,17.531 0.002,0 0.003,10e-4 0.005,0.002 -21.115,-3.435 -37.953,1.603 -53.408,2.518 C -30.14,100.221 -39.713,90.283 -76.5,69 c -2.563,-1.483 -5.081,-2.907 -7.558,-4.28 -12.323,-6.828 -23.583,-12.313 -33.807,-16.724 l 9.51,-80.996 v -78.197 H 104.322 V -33 c -2.388,24.781 -4.84,58.489 -6.698,86.025 -12.146,8.798 -22.078,23.48 -33.371,33.552 z"
             style="fill:none;stroke:#ffffff;stroke-width:15;stroke-linecap:butt;stroke-linejoin:miter;stroke-miterlimit:10;stroke-dasharray:none;stroke-opacity:1"
             id="path876" /></g><g
           id="g878"
           transform="translate(826.6297,80.9939)"><path
             d="m 0,0 c -43.533,-18.782 -68.141,-17.972 -74.779,-17.256 -0.007,0.001 -0.014,0.001 -0.022,0.002 -0.236,0.026 -0.45,0.051 -0.641,0.076 -0.011,0.001 -0.021,0.002 -0.032,0.004 -0.374,0.048 -0.656,0.092 -0.847,0.124 -0.01,0.002 -0.019,0.003 -0.028,0.005 -0.088,0.015 -0.154,0.027 -0.2,0.035 -0.016,0.003 -0.017,0.004 -0.028,0.006 -0.031,0.006 -0.053,0.01 -0.053,0.01 -311,143 -416,285 -416,285 0,0 -3.403,3.146 -2.449,9.552 -36.588,-9.382 -86.43,-25.433 -153.551,-52.552 -23.016,-9.299 -119.282,-51.075 -178,-89.587 l -48.783,-37.137 26.599,-233.626 858.329,-23.847 v 78.197 L 0.006,0.002 C 0.004,0.002 0.002,0.001 0,0 Z"
             style="fill:none;stroke:#ffffff;stroke-width:15;stroke-linecap:butt;stroke-linejoin:miter;stroke-miterlimit:10;stroke-dasharray:none;stroke-opacity:1"
             id="path880" /></g><g
           id="g882"
           transform="translate(1078.7313,69.3401)"><path
             d="m 0,0 c 0,0 -14.906,5.148 -30.148,12.727 -2.231,1.109 -4.377,2.45 -6.459,3.958 1.857,-27.536 4.31,-61.244 6.698,-86.025 v -78.198 h 204.67 v 78.198 c -18.492,21 -34.492,39 -64.492,57 C 85.246,2.673 55.726,32.047 34.395,55.657 27.606,32.229 5.442,2.2 4.457,0.703 3.259,-1.119 0,0 0,0 Z"
             style="fill:none;stroke:#ffffff;stroke-width:15;stroke-linecap:butt;stroke-linejoin:miter;stroke-miterlimit:10;stroke-dasharray:none;stroke-opacity:1"
             id="path884" /></g><g
           id="g886"
           transform="translate(1668.5958,1089.86)"><path
             d="m 0,0 v -140.288 c 0,-67.509 -66.633,-125.545 -152.661,-129.833 -90.548,-4.514 -167.558,51.7 -167.558,125.796 V 9.654 c 0,39.291 77.01,67.306 167.558,62.787 C -66.633,68.148 0,35.798 0,0 Z"
             style="fill:none;stroke:#ffffff;stroke-width:15;stroke-linecap:butt;stroke-linejoin:miter;stroke-miterlimit:10;stroke-dasharray:none;stroke-opacity:1"
             id="path888" /></g><g
           id="g890"
           transform="translate(1216.5018,1103.4896)"><path
             d="m 0,0 v -54.191 -105.426 c 0,-76.809 -86.501,-143.374 -198.899,-148.977 -119.192,-5.942 -221.285,58.227 -221.285,143.681 v 177.58 c 0,45.314 102.093,76.96 221.285,71.012 C -86.501,78.07 0,40.73 0,0 Z"
             style="fill:none;stroke:#ffffff;stroke-width:15;stroke-linecap:butt;stroke-linejoin:miter;stroke-miterlimit:10;stroke-dasharray:none;stroke-opacity:1"
             id="path892" /></g><g
           id="g894"
           transform="translate(1216.5018,1042.7709)"><path
             d="M 0,0 C 0,0 54.396,39.128 131.875,-1.831"
             style="fill:none;stroke:#ffffff;stroke-width:15;stroke-linecap:butt;stroke-linejoin:miter;stroke-miterlimit:10;stroke-dasharray:none;stroke-opacity:1"
             id="path896" /></g><g
           id="g898"
           transform="translate(429.9138,1064.7065)"><path
             d="m 0,0 c 11.077,8.559 21.807,8.761 31.436,10.082 0,10e-4 0,10e-4 0,10e-4 6.041,31.466 10.98,64.05 38.418,99.167 27.439,35.117 76.274,73.883 125.11,112.649 v 0 c 0,8.307 0,16.613 0.503,27.312 0.503,10.698 1.51,23.788 47.073,67.715 45.563,43.928 135.68,118.689 216.361,178.979 80.68,60.29 151.919,106.105 223.158,151.919 0,0 0,0 0,0 -24.166,15.104 -48.33,30.207 -74.51,41.409 -26.18,11.202 -54.373,18.502 -90.875,21.146 -36.5,2.643 -81.307,0.629 -112.774,-5.412 -31.467,-6.042 -49.591,-16.111 -64.066,-25.299 -14.475,-9.188 -25.299,-17.495 -38.892,-22.404 -13.593,-4.909 -26.403,-13.803 -55.856,-19.971 -29.452,-6.167 -67.645,-11.428 -101,-40 C 110.731,568.722 78.665,524.226 61.547,496.661 44.43,469.097 20.086,393.293 -12.914,356.293 -36.096,330.301 -50.472,248.33 -53.745,226.304 -57.017,204.277 -65.828,177.595 -68.1,152.261 c -2.272,-25.334 1.993,-49.316 9.51,-70.163 7.518,-20.847 18.287,-38.557 22.573,-58.41 4.286,-19.852 2.089,-41.845 -0.107,-63.838 l 0.001,-0.001 C -23.6,-24.355 -11.077,-8.559 0,0 Z"
             style="fill:none;stroke:#ffffff;stroke-width:15;stroke-linecap:butt;stroke-linejoin:miter;stroke-miterlimit:10;stroke-dasharray:none;stroke-opacity:1"
             id="path900" /></g><g
           id="g902"
           transform="translate(1602.5974,1674.8967)"><path
             d="m 0,0 c -49.372,48.873 -117.484,80.729 -183.018,93.372 -0.457,0.088 -0.916,0.185 -1.373,0.272 -65.954,12.46 -129.137,5.412 -204.845,-37.383 -75.709,-42.794 -163.938,-121.332 -252.169,-199.872 111.407,25.565 222.815,51.13 311.613,21.676 88.798,-29.453 154.983,-113.92 221.171,-198.389 73.253,46.066 146.506,92.133 167.777,148.394 C 80.427,-115.669 49.717,-49.214 0,0 Z"
             style="fill:none;stroke:#ffffff;stroke-width:15;stroke-linecap:butt;stroke-linejoin:miter;stroke-miterlimit:10;stroke-dasharray:none;stroke-opacity:1"
             id="path904" /></g><g
           id="g906"
           transform="translate(888.8145,1560.6118)"><path
             d="m 0,0 c -80.68,-60.29 -170.797,-135.052 -216.36,-178.979 -45.563,-43.927 -46.57,-57.017 -47.074,-67.716 -0.503,-10.698 -0.503,-19.004 -0.503,-27.311 59.408,46.822 118.816,93.643 174.637,134.424 55.822,40.78 109.444,75.518 161.678,110.256 88.231,78.54 176.46,157.078 252.169,199.872 75.708,42.795 138.891,49.843 204.845,37.382 0.457,-0.086 0.916,-0.183 1.373,-0.271 -4.799,1.401 -9.693,2.714 -14.712,3.912 -37.686,8.993 -82.007,11.841 -131.93,0.875 -49.922,-10.966 -105.443,-35.745 -160.965,-60.525 0,0 0,0 0,0 C 151.919,106.104 80.68,60.29 0,0 Z"
             style="fill:none;stroke:#ffffff;stroke-width:15;stroke-linecap:butt;stroke-linejoin:miter;stroke-miterlimit:10;stroke-dasharray:none;stroke-opacity:1"
             id="path908" /></g></g></g></g></svg>
