<?xml version="1.0" encoding="utf-8"?>
<!-- Generator: Adobe Illustrator 26.4.1, SVG Export Plug-In . SVG Version: 6.00 Build 0)  -->
<svg version="1.1"
	 id="sketch" xmlns:inkscape="http://www.inkscape.org/namespaces/inkscape" xmlns:svg="http://www.w3.org/2000/svg" xmlns:sodipodi="http://sodipodi.sourceforge.net/DTD/sodipodi-0.dtd"
	 xmlns="http://www.w3.org/2000/svg" xmlns:xlink="http://www.w3.org/1999/xlink" x="0px" y="0px" viewBox="0 0 2000 2000"
	 style="enable-background:new 0 0 2000 2000;" xml:space="preserve">
<style type="text/css">
	.st0{fill:#FFFFFF;}
	.st1{fill:none;}
</style>
<sodipodi:namedview  bordercolor="#999999" borderopacity="1" fit-margin-bottom="0" fit-margin-left="0" fit-margin-right="0" fit-margin-top="0" id="namedview1076" inkscape:current-layer="sketch" inkscape:cx="1949.5913" inkscape:cy="1545.1665" inkscape:pagecheckerboard="0" inkscape:pageopacity="0" inkscape:pageshadow="0" inkscape:window-height="1017" inkscape:window-maximized="1" inkscape:window-width="1920" inkscape:window-x="-8" inkscape:window-y="-8" inkscape:zoom="0.22748357" pagecolor="#ffffff" showgrid="false">
	</sodipodi:namedview>
<g id="cap" transform="translate(-637,-5)">
	<path id="path956" class="st0" d="M1256.9,728.7v-10.3c0-8.2,0-16.7,0.5-27.5c0.5-11.3,1.2-25.4,48.6-71.1
		c46.4-44.7,137.6-120.1,216.8-179.4c80.8-60.4,153.3-107,223.4-152.1l0.3-0.2l0.4-0.1c54.8-24.5,111.5-49.8,161.9-60.8
		c45.1-9.9,90.2-9.6,134.2,0.9c4.9,1.2,9.8,2.5,14.9,4l-2.4,9.7l-1.4-0.3c-70.7-13.4-132.8-2-201.5,36.8
		c-75.2,42.5-164.2,121.8-250.3,198.4l-0.7,0.6l-2.7,1c-51.1,34-104.1,69.2-159.6,109.8c-55.8,40.7-116.1,88.3-174.5,134.3
		L1256.9,728.7L1256.9,728.7z M1751.4,296.9c-69.9,44.9-142.1,91.4-222.6,151.5c-79,59-169.8,134.1-215.9,178.6
		c-44.5,42.9-45.1,55.3-45.6,64.3c-0.3,6.2-0.4,11.7-0.5,16.7c55.9-44,113.4-89.2,166.7-128.1c55.9-40.9,109.1-76.2,160.5-110.4
		l0.5-0.3l2-0.8c86.2-76.8,175.4-156,251.3-199c33.8-19.1,66.1-31.8,98.6-38.3c-11.8,1.1-23.6,3-35.4,5.6
		C1861.7,247.6,1805.6,272.7,1751.4,296.9L1751.4,296.9z"/>
	<path id="path958" class="st0" d="M2129.8,657.1l-2.8-3.5c-64.6-82.5-131.4-167.8-218.8-196.7c-87.5-29-200.1-3.2-308.9,21.8
		l-19,4.4l15.6-13.9c86.5-77,175.9-156.5,252.1-199.6c70.9-40.1,135.1-51.8,208.2-37.9c0.3,0.1,0.5,0.1,0.8,0.2l0.6,0.1
		c71,13.7,138.6,48.2,185.6,94.7l0,0c26.4,26.1,46.2,55.5,57.4,85.1c12.3,32.7,13.4,64.6,3,92.1c-21.9,57.8-97.1,105.1-169.8,150.9
		L2129.8,657.1L2129.8,657.1z M1819,434c32.6,0,63.7,3.8,92.3,13.4c89,29.5,156.1,114,220.7,196.5c70.1-44.1,141.6-89.8,161.9-143.5
		c22.1-58.6-15.4-124.5-58-166.6l0,0c-45.6-45.1-111.4-78.7-180.4-92l-1.4-0.3c-70.7-13.4-132.8-2-201.5,36.8
		c-71.3,40.3-154.9,113.5-236.7,186.3C1685.1,448.7,1755,433.9,1819,434L1819,434z"/>
	
		<rect id="rect960" x="1153.7" y="1232.6" transform="matrix(0.5458 -0.8379 0.8379 0.5458 -507.0762 1531.0105)" class="st0" width="10" height="1.4"/>
	<polygon id="polygon962" class="st0" points="1156.7,1225.9 1157.8,1226.6 1152.3,1234.9 1151.2,1234.2 	"/>
	<polygon id="polygon964" class="st0" points="1159.4,1239.6 1164.8,1231.1 1166,1231.9 1160.7,1240.3 1160.6,1240.3 	"/>
	<polygon id="polygon966" class="st0" points="1162.9,1229.9 1164,1230.6 1158.6,1239 1157.4,1238.3 	"/>
	<polygon id="polygon968" class="st0" points="1154.7,1224.5 1155.7,1225.2 1150.2,1233.5 1149.1,1232.8 	"/>
	<polygon id="polygon970" class="st0" points="1152.6,1223.1 1153.5,1223.7 1147.9,1232 1147,1231.4 	"/>
	<polygon id="polygon972" class="st0" points="1148.3,1220.2 1149,1220.7 1143.4,1228.9 1142.7,1228.4 	"/>
	<polygon id="polygon974" class="st0" points="1166.8,1232.4 1168,1233.2 1162.7,1241.6 1161.4,1240.8 	"/>
	<polygon id="polygon976" class="st0" points="1150.4,1221.6 1151.3,1222.2 1145.7,1230.5 1144.8,1229.9 	"/>
	<polygon id="polygon978" class="st0" points="1153.3,1235.6 1158.8,1227.2 1159.9,1227.9 1154.4,1236.3 1154.1,1236.1 	"/>
	<path id="path980" class="st0" d="M1194.8,1258.9c-4.4-1.3-11.3-4.8-20.7-10.3l5.1-8.6c10.8,6.3,16,8.6,18.4,9.3h0L1194.8,1258.9
		L1194.8,1258.9z"/>
	<polygon id="polygon982" class="st0" points="1163.4,1242.1 1168.7,1233.6 1170,1234.4 1164.7,1242.9 1164.5,1242.8 	"/>
	<polygon id="polygon984" class="st0" points="1175.9,1238.1 1177.4,1238.9 1172.2,1247.5 1170.8,1246.7 	"/>
	<polygon id="polygon986" class="st0" points="1172.5,1247.7 1177.6,1239.1 1179.1,1240 1174,1248.6 	"/>
	<polygon id="polygon988" class="st0" points="1170.6,1234.8 1171.9,1235.6 1166.6,1244.1 1165.3,1243.3 	"/>
	<polygon id="polygon990" class="st0" points="1167.2,1244.4 1172.4,1235.9 1173.8,1236.8 1168.5,1245.3 1168.5,1245.3 	"/>
	<polygon id="polygon992" class="st0" points="1174.2,1237 1175.6,1237.9 1170.4,1246.4 1169,1245.6 	"/>
	<path id="path994" class="st0" d="M1179.2,1412l-5.9-8.6c-0.4-0.6-0.7-1.1-0.9-1.7c-1.5-3.5-2.4-9.1-3.7-16.7
		c-3.7-21.5-9.8-57.5-34.6-88.1c-21.1-26-26.2-79.9-26.9-120.5l-0.5-28.8l10.1,26.9c1,2.7,1.9,5.2,2.8,7.6
		c6.3,17.3,8.9,24.5,26.6,36.6l20.6,13.7l10.9,6.7l1.6,0.9c10.8,6.3,16,8.6,18.4,9.3l3.5,1.1l0,3.7c0.2,24.7-0.7,86.5-12.7,126.8
		L1179.2,1412L1179.2,1412z M1118.4,1204.8c2.4,32.8,8.6,67.6,23.4,85.9c25.4,31.4,32.3,67.6,36.2,90.3l0.9-2.9
		c11.2-37.2,12.4-94.2,12.3-120.4c-4.3-1.8-10-4.8-17.1-9l0,0l-13.5-8.3l-18-11.9l-2.2-1.5
		C1128.8,1218.9,1122.7,1212.3,1118.4,1204.8L1118.4,1204.8z"/>
	<g id="g1016">
		<path id="path996" class="st0" d="M1238.8,1107.3c-0.2-0.4-0.4-0.8-0.7-1.2l0,0v0l0,0l8.8-4.8c0.2,0.3,0.4,0.7,0.5,1l0.1,0.1
			L1238.8,1107.3L1238.8,1107.3z"/>
		<path id="path998" class="st0" d="M1240.6,1110.4l-0.1-0.2c-0.2-0.3-0.3-0.5-0.5-0.8l8.6-5.1c0.1,0.2,0.3,0.4,0.4,0.6l0.1,0.2
			L1240.6,1110.4L1240.6,1110.4z"/>
		<path id="path1000" class="st0" d="M1239.7,1108.9l4.3-2.6L1239.7,1108.9l4.3-2.6L1239.7,1108.9c-0.2-0.4-0.4-0.7-0.6-1.1l8.7-5
			c0.2,0.3,0.3,0.6,0.5,0.9l-4.3,2.6L1239.7,1108.9z"/>
		<path id="path1002" class="st0" d="M1241.6,1111.9l-0.1-0.2c-0.2-0.3-0.3-0.5-0.5-0.8l8.4-5.4c0.1,0.2,0.3,0.4,0.4,0.7l0.1,0.2
			L1241.6,1111.9L1241.6,1111.9z"/>
		<path id="path1004" class="st0" d="M1242.9,1113.9c-0.3-0.5-0.7-0.9-1-1.4l8.3-5.6c0.3,0.4,0.6,0.8,0.8,1.2L1242.9,1113.9
			L1242.9,1113.9z"/>
		<path id="path1006" class="st0" d="M1236.1,1102.3c-0.2-0.5-0.5-1-0.8-1.5l9-4.3c0.2,0.5,0.5,0.9,0.7,1.4L1236.1,1102.3
			L1236.1,1102.3z"/>
		<path id="path1008" class="st0" d="M1237.9,1105.6l-0.1-0.1c-0.2-0.4-0.4-0.7-0.6-1.1l8.9-4.6c0.2,0.3,0.4,0.7,0.5,1l0.1,0.1
			L1237.9,1105.6L1237.9,1105.6z"/>
		<path id="path1010" class="st0" d="M1235.4,1100.8L1235.4,1100.8C1235.4,1100.8,1235.3,1100.7,1235.4,1100.8
			c-3.6-7.6-7.2-16.4-10.9-25.7c-12.8-32.3-28.7-72.4-62.1-89.8l4.6-8.9c36.6,19.1,53.3,61.2,66.7,95c3.6,9.2,7.1,17.9,10.6,25.1
			L1235.4,1100.8L1235.4,1100.8z"/>
		<path id="path1012" class="st0" d="M1237,1104c-0.2-0.4-0.5-0.9-0.7-1.4l8.9-4.5c0.2,0.4,0.4,0.8,0.7,1.3L1237,1104L1237,1104z"/>
		<path id="path1014" class="st0" d="M1326.5,1153.2l-8.8-2.4c-2.4-0.7-60-16.5-74.7-36.9c-0.3-0.5-0.7-0.9-1-1.4l-0.5-0.7
			c-0.2-0.3-0.3-0.5-0.5-0.8l-0.5-0.8c-0.2-0.3-0.3-0.5-0.5-0.8l-0.3-0.6c-0.2-0.4-0.4-0.7-0.6-1.1l-0.3-0.6
			c-0.2-0.4-0.4-0.7-0.6-1.1l-0.3-0.6c-0.2-0.4-0.4-0.7-0.6-1.1l-0.2-0.4c-0.2-0.4-0.5-0.9-0.7-1.3l-0.1-0.3c-0.2-0.5-0.5-1-0.8-1.5
			l-0.1-0.1c-3.6-7.5-7.1-16.3-10.8-25.6c-12.8-32.3-28.7-72.4-62.1-89.8l-1.1-0.6l-0.7-1c-13.2-18.8-31.9-40-44.4-43.3
			c-5.1-1.3-11.8-3.2-19.9-5.5l-2.1-0.6l-2.3-4.4l0.3-1.7c6.1-31.5,12.3-64.1,40.5-100.2c27.8-35.6,77.7-75.2,125.9-113.5
			c58.5-46.1,118.9-93.7,174.8-134.5c55.9-40.9,109.1-76.2,160.5-110.4l0.5-0.3l27.8-10.3l-6.2,5.5
			c104.2-23.8,210.4-45.4,295.3-17.2c90.2,29.9,157.9,116.3,223.4,199.9c3,3.3,41.1,46.3,41.9,96.6c0.7,45.4,3,82.1,6.2,98.2
			c0.4,1.9-0.1,3.8-1.4,5.5c-6.7,8.8-44.7,12.1-56.2,13c-21.6,1.5-78.3,3.5-137-10.9c-57.3-14.1-98.3-39-121.9-74.2
			c-38.1-56.8-74.1-93-97.5-113.4c-12.2-10.6-22.7-18.4-30.5-23.7c7.5,12.5,17.4,30.3,23.6,49.3c10.1,30.8,7.2,54.5-8.8,70.4
			c-19.3,19.2-62.6,43.2-116,64.3c-49.9,19.7-96,31.9-117.3,30.9c-4.7-0.2-9.5-0.5-14.7-0.8c-41.9-2.5-94-5.6-131.8,31.1
			c-51.9,50.4-62.7,118.4-62.6,166.6c0.1,52.7,12.8,93.9,12.9,94.3L1326.5,1153.2L1326.5,1153.2z M1244.4,1096.5
			c0.2,0.4,0.4,0.9,0.6,1.3l0.1,0.3c0.2,0.4,0.4,0.8,0.6,1.2l0.2,0.4c0.2,0.3,0.3,0.7,0.5,1l0.3,0.6c0.2,0.3,0.4,0.7,0.5,1l0.3,0.5
			c0.2,0.3,0.3,0.6,0.5,0.9l0.3,0.6c0.1,0.2,0.3,0.4,0.4,0.7l0.4,0.7c0.1,0.2,0.3,0.4,0.4,0.7l0.4,0.6c0.3,0.4,0.6,0.8,0.8,1.2
			c9,12.4,41.6,24.6,60.7,30.6c-3.8-15.1-10.8-48.1-10.9-88.2c-0.1-31.9,4.3-61.6,12.9-88.3c10.9-33.5,28.6-62.4,52.7-85.8
			c41-39.8,97.9-36.4,139.4-34c5.1,0.3,9.9,0.6,14.5,0.8c40,1.8,183.6-50.3,225.8-92.4c31.1-31-8.6-95-21.6-116
			c-1.5-2.4-2.7-4.3-3.5-5.7c-1.1-1.9-2.9-5-0.6-7.9c1.4-1.7,3.6-2.4,5.7-1.7c9.6,3.2,77.5,44.4,148.6,150.2
			c46.5,69.3,163.7,86.8,249.9,80.7c29.2-2.1,44-6.2,48.1-8.5c-3.2-17.7-5.4-53.2-6.1-98.1c-0.7-47.4-39-89.7-39.4-90.1l-0.2-0.3
			c-64.6-82.5-131.4-167.8-218.8-196.7c-87.5-29-200.1-3.2-308.9,21.8l-1.2,0.3c-50.8,33.8-103.4,68.8-158.6,109.1
			c-55.8,40.7-116.1,88.3-174.5,134.3c-47.8,37.9-97.2,77.2-124.3,111.8c-25.6,32.8-32,61.8-37.8,92.2c6.3,1.8,11.6,3.2,15.9,4.4
			c17.5,4.6,38.2,30.5,49.4,46.2c35.9,19.4,52.4,61,65.6,94.4c3.7,9.2,7.1,17.9,10.6,25.1L1244.4,1096.5z"/>
	</g>
	<path id="path1018" class="st0" d="M1024.1,996.9l1.7-17c2.1-21.2,4.3-43.2,0.2-62.3c-2.5-11.7-7.5-22.8-12.7-34.5
		c-3.3-7.4-6.8-15.1-9.7-23.3c-8.7-24-11.9-48.3-9.8-72.3c1.4-15.1,4.9-30.4,8.4-45.2c2.4-10.4,4.7-20.2,6-29.2
		c1.6-10.5,16-103.4,42.1-132.6c20.8-23.4,38.5-63.5,52.7-95.7c8-18.2,15-34,21.2-44c19.4-31.2,51.5-74.4,83.5-101.8
		c31.1-26.6,66.1-33.6,94.3-39.3c3.1-0.6,6-1.2,8.9-1.8c20.2-4.2,32-9.6,42.5-14.4c4.4-2,8.5-3.9,12.7-5.4
		c10-3.6,18.6-9.3,28.5-15.8c3-2,6.1-4,9.4-6.1c15.7-9.9,34.5-20,65.8-26c31.6-6.1,76.4-8.2,114.1-5.5c34.6,2.5,64,9.4,92.5,21.5
		c26.5,11.4,51.3,26.8,75.2,41.8l6.7,4.2l-6.6,4.3c-70,45-142.3,91.5-222.9,151.7c-79,59-169.8,134.1-215.9,178.6
		c-44.5,42.9-45.1,55.3-45.6,64.3c-0.5,10.6-0.5,19-0.5,27.1v2.4l-1.9,1.5c-47.8,37.9-97.2,77.2-124.3,111.8l0,0
		c-26.7,34.2-32.4,64.2-38.6,95.9l-0.7,3.5l-5.4,0.8c-8.8,1.2-16.9,2.8-26.1,10c-10.6,8.2-23.1,24-35.3,39.3L1024.1,996.9z
		 M1550.6,233.8c-28.1,0-57.2,2.3-78.9,6.4c-31.2,6-48.5,15.8-62.3,24.6c-3.2,2-6.3,4.1-9.2,6c-10.5,6.9-19.5,12.9-30.6,16.9
		c-3.8,1.4-7.6,3.1-12,5.1c-10.4,4.7-23.3,10.6-44.6,15.1c-2.9,0.6-5.9,1.2-9,1.8c-27,5.4-60.7,12.2-89.8,37.1
		c-31.1,26.7-62.5,68.9-81.5,99.5c-5.9,9.4-12.7,24.9-20.6,42.8c-14.5,32.9-32.5,73.8-54.4,98.3c-19.6,22-34.1,90.4-39.6,127.4
		c-1.4,9.4-3.7,19.4-6.2,30c-3.4,14.4-6.8,29.4-8.1,43.8c-2,22.5,1.1,45.4,9.2,68c2.8,7.8,6.2,15.4,9.4,22.6
		c5.4,12.2,10.6,23.7,13.3,36.4c3.3,15.5,2.9,32.1,1.5,48.7c9.1-11.2,18.2-21.5,26.5-27.9c10.5-8.1,19.8-10.3,29.1-11.7
		c5.9-30.4,12.7-61.9,39.8-96.7c27.4-35.1,76.4-74.2,124.1-112c0-7.5,0.1-15.4,0.5-25.1c0.5-11.3,1.2-25.4,48.6-71.1
		c46.4-44.7,137.6-120.1,216.8-179.4c78.3-58.5,148.8-104.1,216.8-147.9c-21.5-13.4-43.7-26.9-67.1-36.9
		c-27.4-11.7-55.8-18.3-89.3-20.8C1572.9,234.2,1561.8,233.8,1550.6,233.8L1550.6,233.8z"/>
</g>
<g id="face" transform="translate(-637,-5)">
	
		<rect id="rect1021" x="2201.3" y="859.7" transform="matrix(6.400976e-02 -0.9979 0.9979 6.400976e-02 1107.7195 3099.656)" class="st0" width="10" height="199.3"/>
</g>
<path id="path1024" class="st0" d="M1080.8,1936c-1.3,0-2.6-0.2-3.7-0.6c-0.6-0.2-15.4-5.3-30.8-13c-2.4-1.2-4.7-2.6-7.2-4.4
	c-7.4-5.4-14-12.7-20.3-19.8c-4.6-5.1-8.9-10-13.5-14.1c-8.2-7.3-24.7-13.3-37.4-16.4c-1-0.2-1.6-0.4-1.6-0.4l-15.8-3.5l15-6
	c103.5-41.9,116.8-68.6,117.6-70.3l1.3-6.1l5.6,3c0.1,0.1,0.3,0.1,0.4,0.2c13.6,6.6,18.3,20.4,21.4,34.2c0.4,2,1,4.3,1.7,6.9
	c2.2,8.8,5.2,20.8,6.4,34.8c0.4,4.5-0.3,9.8-2.1,15.8c-4.2,14.4-14.8,34.1-30,55.5c-0.3,0.4-0.5,0.7-0.6,0.8
	C1085.8,1935.2,1083.2,1936,1080.8,1936L1080.8,1936z M982.7,1861.6c9.5,3.2,21.6,8.2,29.4,15.1c5,4.4,9.7,9.8,14.3,14.9
	c6,6.7,12.1,13.6,18.7,18.4c2,1.4,3.9,2.6,5.8,3.5c13.4,6.7,26.8,11.5,29.2,12.3c14.4-20.4,24.5-38.9,28.3-52.2
	c1.4-4.8,2-8.9,1.7-12.2c-1.1-13.2-4.1-24.8-6.2-33.2c-0.7-2.6-1.3-5-1.7-7.2c-2.5-11.3-5.7-20-12.3-25.1
	C1082.7,1806.2,1059.2,1829.2,982.7,1861.6L982.7,1861.6z"/>
<g id="g1050" transform="translate(-637,-5)">
	<path id="path1026" class="st0" d="M1501.3,1852.4c-0.4-0.2-0.8-0.3-1.2-0.5l-0.2-0.1l3.9-9.2l0.2,0.1c0.4,0.2,0.7,0.3,1.1,0.4
		L1501.3,1852.4z"/>
	<path id="path1028" class="st0" d="M1503.5,1853.2c-0.3-0.1-0.7-0.3-1.1-0.4l-0.3-0.1l3.7-9.3l1.3,0.5L1503.5,1853.2z"/>
	<path id="path1030" class="st0" d="M1499.2,1851.5L1499.2,1851.5c-0.5-0.2-0.9-0.4-1.4-0.6c0,0,0,0,0,0l4.1-9.1h0
		c0.4,0.2,0.9,0.4,1.3,0.6L1499.2,1851.5L1499.2,1851.5z"/>
	<path id="path1032" class="st0" d="M1583.9,1874.1c-10.6,0-20-1-35.5-2.6l-4.3-0.4l-1.1-2.8c-1.5-2.7-11.6-5.8-19.8-8.4
		c-2.9-0.9-5.8-1.8-8.9-2.8c-0.7-0.2-1.3-0.4-1.9-0.6l-0.3-0.1c-0.5-0.2-1.1-0.4-1.6-0.6l-0.5-0.2c-0.5-0.2-1-0.4-1.5-0.5l-0.6-0.2
		c-0.5-0.2-0.9-0.3-1.4-0.5l-0.8-0.3c-0.5-0.2-0.9-0.3-1.4-0.5l-0.8-0.3c-0.3-0.1-0.7-0.3-1.1-0.4l-1.1-0.4
		c-0.4-0.2-0.8-0.3-1.2-0.5l-1-0.4c-0.5-0.2-1-0.4-1.4-0.6l-0.7-0.3c-0.7-0.3-1.4-0.7-2.1-1c-25.8-12.4-154-112.3-192.6-142.6
		c-62.5-49-163.6-129.9-169-138.3c-4.9-7.6-5-13.6-5.2-20.5c-0.2-7,4.9-20.2,9.7-31l-0.4-0.1l41.7-139.1
		c11.1-37.2,12.4-94.2,12.3-120.4c-4.3-1.8-10-4.8-17.1-9l-0.1-0.1l-20.7-13l-12.8-8.6c-20.3-13.9-23.8-23.7-30.3-41.4
		c-0.8-2.3-1.8-4.8-2.8-7.5c-0.9-2.4-1.8-4.6-2.6-6.7c-8.6-21.5-26.5-34.2-37.2-41.9c-2.6-1.9-4.7-3.3-6.2-4.7
		c-7.4-6.3-14.4-17.9-15.6-19.9c-1.7-2.2-12.4-16.4-19.7-34.7c-7.8-19.6-1.1-83.1-0.3-90.3l0.2-1.4l0.9-1.1
		c12.5-15.8,25.4-32.1,37-41c11.1-8.6,20.9-10.5,30.8-11.9l1.1-0.2l3.4,1c8,2.3,14.6,4.1,19.6,5.4c17.5,4.6,38.2,30.5,49.4,46.2
		c35.9,19.4,52.4,61,65.6,94.4c3.6,9.2,7.1,17.9,10.6,25.1l0.1,0.1c0.2,0.4,0.4,0.9,0.6,1.3l0.1,0.3c0.2,0.4,0.4,0.8,0.6,1.2
		l0.2,0.4c0.2,0.3,0.3,0.7,0.5,1l0.3,0.6c0.2,0.4,0.4,0.7,0.6,1.1l0.2,0.4c0.2,0.3,0.3,0.6,0.5,0.9l0.3,0.6c0.1,0.2,0.3,0.4,0.4,0.7
		l0.4,0.7c0.1,0.2,0.3,0.4,0.4,0.7l0.4,0.6c0.3,0.4,0.6,0.8,0.8,1.2c9,12.4,41.6,24.6,60.7,30.6c-3.8-15.1-10.8-48.1-10.9-88.2
		c-0.1-31.9,4.3-61.6,12.9-88.3c10.9-33.5,28.6-62.4,52.7-85.8c41-39.8,97.9-36.4,139.4-34c5.1,0.3,9.9,0.6,14.5,0.8
		c40,1.8,183.6-50.3,225.8-92.4c31.1-31-8.6-95-21.6-116c-1.5-2.4-2.7-4.3-3.5-5.7c-1.1-1.9-2.9-5-0.6-7.9c1.4-1.7,3.6-2.4,5.7-1.7
		c9.6,3.2,77.5,44.4,148.6,150.2c46.5,69.3,163.7,86.8,249.9,80.7l5.9-0.4l-0.6,5.9c-2.7,28.4-6.1,51.3-10.1,68.2
		c-9.2,38.9,0.4,64,9,86.1c1.7,4.5,3.4,8.8,4.9,13.1c15.6,45.4,15.6,112.6,0.2,199.8l-0.6,3.1c-4.2,24.5-20.6,73-33.7,112
		c-5.2,15.4-10.1,29.9-13.4,40.6c-4.5,14.3-13.4,35.2-25.8,64.1c-6.1,14.3-13,30.5-20.4,48.3c-2.8,6.7-5.3,13.6-8,20.8
		c-11.9,31.8-25.3,67.9-66.1,107.9c-20.2,19.8-64,55.8-131.1,75.2c-38.3,11.1-82.4,7.1-97.2,5.3l-7.3,50.7c0,1.5,0.8,7.8,1.3,12.5
		c1.3,11.4,1.5,13.6,1.3,15c-0.8,5.4-1.7,10.9-2.8,16.3l-1.2,6.4l-1.9-0.9c-6.8,10-29.8,33.1-106.6,65.7l6.5,10.7l-21.6-4
		C1596.9,1873.7,1590.2,1874,1583.9,1874.1L1583.9,1874.1z M1550.6,1861.7c22.1,2.3,31.3,3.2,51,1.6l1-0.4
		c103.6-41.9,116.8-68.6,117.6-70.3l1.3-6.1l0.1,0.1c0.5-3,1-6,1.4-9c0-1.6-0.8-7.9-1.3-12.6c-1.3-11.2-1.5-13.4-1.3-14.8l8.8-60.8
		l5,0.8c0.5,0.1,54.3,8.2,97.9-4.4c65-18.8,107.4-53.7,126.9-72.8c39.2-38.4,52.2-73.4,63.7-104.2c2.7-7.3,5.3-14.2,8.2-21.1
		c7.4-17.9,14.3-34.1,20.4-48.4c11.8-27.6,21.1-49.3,25.4-63.2c3.4-10.8,8.3-25.4,13.5-40.8c13-38.7,29.2-86.8,33.4-110.6l0.6-3.2
		c15.1-85.5,15.1-151.1,0.1-194.9c-1.4-4.2-3-8.3-4.7-12.7c-9.1-23.5-19.4-50.2-9.4-92c3.6-15.3,6.8-35.8,9.3-61
		c-24.9,1.4-77.1,2-131.1-11.3c-57.3-14.1-98.3-39-121.9-74.2c-38.1-56.8-74.1-93-97.5-113.4c-12.2-10.6-22.7-18.4-30.5-23.7
		c7.5,12.5,17.4,30.3,23.6,49.3c10.1,30.8,7.2,54.5-8.8,70.4c-19.3,19.2-62.6,43.2-116,64.3c-49.9,19.7-96,31.9-117.4,30.9
		c-4.7-0.2-9.5-0.5-14.7-0.8c-41.9-2.5-94-5.6-131.8,31.1c-51.9,50.4-62.7,118.6-62.6,166.9c0.1,52.6,12.8,93.6,12.9,94l2.7,8.7
		l-8.8-2.4c-2.4-0.7-60-16.5-74.7-36.9c-0.3-0.5-0.7-0.9-1-1.4l-0.5-0.7c-0.2-0.3-0.3-0.5-0.5-0.8l-0.5-0.8
		c-0.2-0.3-0.3-0.5-0.5-0.8l-0.3-0.6c-0.2-0.4-0.4-0.7-0.6-1.1l-0.2-0.4c-0.2-0.4-0.5-0.8-0.7-1.2l-0.3-0.6
		c-0.2-0.4-0.4-0.7-0.6-1.1l-0.2-0.4c-0.2-0.4-0.5-0.9-0.7-1.3l-0.1-0.3c-0.2-0.5-0.5-1-0.8-1.5l-0.1-0.1
		c-3.6-7.5-7.1-16.3-10.8-25.6c-12.8-32.3-28.7-72.4-62.1-89.8l-1.1-0.6l-0.7-1c-13.2-18.8-31.9-40-44.4-43.3
		c-5.1-1.3-11.8-3.2-19.9-5.5l-1.4-0.4c-8.4,1.2-16.2,3-25,9.8c-10.3,8-22.5,23.2-34.4,38.2c-2.1,19.9-5.9,69.9-0.2,84.1
		c7.2,18,18.3,32.3,18.4,32.5l0.4,0.6c0.1,0.1,7.1,12,13.7,17.7c1.2,1,3.2,2.5,5.5,4.1c10.8,7.7,31,22.1,40.7,46.3
		c0.9,2.2,1.8,4.4,2.7,6.9c1,2.7,1.9,5.2,2.8,7.6c6.3,17.3,8.9,24.5,26.6,36.6l20.6,13.7l10.8,6.7l1.6,0.9c10.8,6.3,16,8.6,18.4,9.3
		l3.5,1.1l0,3.7c0.2,24.7-0.7,86.5-12.7,126.8l-38.7,129.4l1.9,0.6l-2.5,5.3c-0.4,0.9-0.8,1.7-1.2,2.5c-6.2,13.6-10.2,25.1-10,29.3
		c0.2,6.5,0.3,10.2,3.6,15.4c4.3,5.7,74.4,63.4,168,136.8c100.4,78.8,173,132.6,189.5,140.4c0.7,0.3,1.3,0.6,2,0.9l0.6,0.3
		c0.5,0.2,0.9,0.4,1.4,0.6l0.9,0.4c0.4,0.2,0.7,0.3,1.1,0.4l1,0.4c0.3,0.1,0.7,0.3,1,0.4l0.7,0.3c0.4,0.2,0.9,0.3,1.3,0.5l0.7,0.2
		c0.5,0.2,0.9,0.3,1.4,0.5l0.6,0.2c0.5,0.2,1,0.3,1.5,0.5l0.5,0.2c0.5,0.2,1.1,0.4,1.6,0.5l0.3,0.1c0.6,0.2,1.2,0.4,1.8,0.6
		c3,1,5.9,1.9,8.8,2.8C1537.8,1854,1546.5,1856.7,1550.6,1861.7L1550.6,1861.7z"/>
	<path id="path1034" class="st0" d="M1497,1850.5c-0.7-0.3-1.4-0.7-2.2-1l4.3-9c0.7,0.3,1.3,0.6,2,0.9L1497,1850.5L1497,1850.5z"/>
	<path id="path1036" class="st0" d="M1505.7,1854.1c-0.5-0.2-0.9-0.3-1.4-0.5l3.6-9.3c0.4,0.2,0.9,0.3,1.3,0.5L1505.7,1854.1z"/>
	<path id="path1038" class="st0" d="M1148,1518.6l-9.1-4.2c0.8-1.6,1.2-2.6,1.2-2.6l9,4.3C1148.8,1516.9,1148.4,1517.7,1148,1518.6
		L1148,1518.6z"/>
	<path id="path1040" class="st0" d="M1514.4,1857.1L1514.4,1857.1c-0.6-0.2-1.2-0.4-1.9-0.6l3.2-9.5c0.6,0.2,1.2,0.4,1.8,0.6
		L1514.4,1857.1L1514.4,1857.1z"/>
	<path id="path1042" class="st0" d="M1543,1868.3c0-0.1-0.1-0.1-0.1-0.2l0,0c-0.7-1-2.4-2.1-4.8-3.1c-2.5-1.1-5.8-2.2-9.1-3.3
		c-1.9-0.6-3.9-1.2-5.8-1.8c-2.8-0.9-5.8-1.8-8.9-2.8l3.1-9.5h0c3,1,5.9,1.9,8.7,2.7c4.8,1.5,9.1,2.8,12.8,4.2
		c3.1,1.2,5.8,2.4,7.9,3.8c2.2,1.4,3.8,3.1,4.9,5L1543,1868.3L1543,1868.3z"/>
	<path id="path1044" class="st0" d="M1512.2,1856.4L1512.2,1856.4c-0.3-0.1-0.6-0.2-0.8-0.3c-0.3-0.1-0.6-0.2-0.8-0.3l0,0l3.3-9.5
		l0,0c0.3,0.1,0.5,0.2,0.8,0.3c0.3,0.1,0.5,0.2,0.8,0.3L1512.2,1856.4L1512.2,1856.4z"/>
	<path id="path1046" class="st0" d="M1507.8,1854.9c-0.5-0.2-0.9-0.3-1.4-0.5c0,0-0.1,0-0.1,0l3.5-9.4c0.5,0.2,0.9,0.3,1.4,0.5
		L1507.8,1854.9z"/>
	<path id="path1048" class="st0" d="M1510,1855.6L1510,1855.6c-0.6-0.2-1-0.4-1.5-0.6l0,0l3.4-9.4c0.5,0.2,0.9,0.3,1.4,0.5l0.1,0
		L1510,1855.6z"/>
</g>
<rect id="rect1052" x="623.3" y="766" transform="matrix(6.104854e-02 -0.9981 0.9981 6.104854e-02 -342.6986 1504.4351)" class="st0" width="10" height="336.7"/>
<g id="glassesFrame" transform="translate(-637,-5)">
	<path id="path1054" class="st0" d="M2142.6,1190.5c-48.2,0-92.9-16.5-124-46.1c-24.6-23.4-38.2-53.6-38.2-84.9v-154
		c0-10.9,4.9-21.1,14.6-30.3c27.5-26.2,89.6-40.9,158.2-37.5c42.1,2.1,81.3,10.9,110.5,24.9c30.2,14.5,46.9,33.1,46.9,52.5v140.3
		c0,34.3-16.3,67.1-45.8,92.4c-29.4,25.2-69.1,40.3-111.6,42.4C2149.6,1190.5,2146.1,1190.5,2142.6,1190.5L2142.6,1190.5z
		 M2134.1,847.2c-57.7,0-109.4,13.5-132.2,35.2c-7.6,7.3-11.5,15-11.5,23v154c0,29,12.1,55.8,35.1,77.7
		c30.9,29.4,78.5,45.6,127.2,43.1c82.9-4.1,147.9-59,147.9-124.8V915.1c0-15.1-15-31-41.2-43.5c-28-13.4-65.9-21.9-106.7-23.9
		C2146.4,847.4,2140.2,847.2,2134.1,847.2L2134.1,847.2z"/>
	<path id="path1056" class="st0" d="M1639.3,1215.5c-67.3,0-129.9-21.9-169.8-59.8c-26.9-25.6-41.2-56.5-41.2-89.2V888.8
		c0-11,5.1-21.4,15.1-30.9c33.2-31.6,118.2-49.8,211.5-45.1c54.7,2.7,105.5,13,143.3,29.1c38.9,16.5,60.4,37.7,60.4,59.6v159.6
		c0,38.9-21.1,76.3-59.3,105.2c-38,28.7-89.3,46-144.4,48.8C1649.7,1215.4,1644.5,1215.5,1639.3,1215.5L1639.3,1215.5z
		 M1625.7,822.1c-34.7,0-67.8,3.2-97.2,9.5c-35.8,7.7-63.6,19.6-78.3,33.6c-7.9,7.5-11.9,15.5-11.9,23.7v177.6
		c0,29.9,13.2,58.3,38.1,82c38.1,36.2,98.1,57.1,162.9,57.1c5,0,10-0.1,15.1-0.4c53.1-2.7,102.4-19.3,138.8-46.8
		c35.7-26.9,55.3-61.5,55.3-97.2V901.5c0-17.4-19.8-35.8-54.2-50.4c-36.7-15.6-86.4-25.6-139.9-28.3
		C1644.7,822.3,1635.2,822.1,1625.7,822.1L1625.7,822.1z"/>
	<path id="path1058" class="st0" d="M1983,968.5c-30.9-16.3-61.6-21.7-91.2-15.9c-22.1,4.3-35.3,13.6-35.4,13.7l-5.8-8.1
		c0.6-0.4,14.8-10.5,38.8-15.3c22-4.4,57-5.1,98.3,16.8L1983,968.5L1983,968.5z"/>
</g>
<path id="path1061" class="st0" d="M944.5,1972c-16.3,0-29.5-13.9-29.5-31s13.2-31,29.5-31s29.5,13.9,29.5,31S960.8,1972,944.5,1972
	z M944.5,1920c-10.8,0-19.5,9.4-19.5,21s8.8,21,19.5,21s19.5-9.4,19.5-21S955.3,1920,944.5,1920z"/>
<path id="path1063" class="st0" d="M757.8,1941.5c-5.6,0-8.5-0.6-8.8-0.7l-0.5-0.1l-0.5-0.2c-161.1-74.1-266.1-147.9-325.7-196.8
	c-62.7-51.4-89.4-85.9-92-89.5c-1.3-1.4-4.7-5.9-3.6-13.5c2.1-14.2,18.9-30.3,49.9-48.1c41.1-23.4,47.1-44.9,52-62.2
	c2.5-8.8,4.9-17.2,11.7-23.3c17.3-15.5,56.1-6.5,67.6-3.4c0.8,0.2,1.2,0.3,1.2,0.3l5.6,1.7l-2.5,5.3c0,0-0.5,0.9-1.1,2.5
	c-6.2,13.6-10.2,25.1-10,29.3c0.2,6.5,0.3,10.2,3.6,15.4c4.3,5.7,74.4,63.4,168,136.8c100.4,78.8,173,132.6,189.5,140.4
	c0.7,0.3,1.3,0.6,2,0.9l0.6,0.3c0.5,0.2,0.9,0.4,1.4,0.6l0.9,0.4c0.4,0.2,0.7,0.3,1.1,0.4l2.8,1.1c0.4,0.2,0.9,0.3,1.3,0.5l0.7,0.2
	c0.5,0.2,0.9,0.3,1.4,0.5l0.6,0.2c0.5,0.2,1,0.3,1.5,0.5l0.5,0.2c0.5,0.2,1,0.4,1.6,0.5l0.3,0.1c0.6,0.2,1.2,0.4,1.8,0.6
	c3,1,5.9,1.9,8.8,2.8c12.3,3.8,21.3,6.6,25,12.2c0.2,0.2,0.3,0.5,0.5,0.7c0.2,0.4,0.4,0.8,0.6,1.2c4.2,10.2-7.1,21-44.8,42.8
	c-14.4,8.3-28.5,15.5-41.9,21.3C793,1939,769.5,1941.5,757.8,1941.5L757.8,1941.5z M751.5,1931.2c3.5,0.5,27.8,2.8,73.2-16.8
	c13-5.6,26.8-12.6,40.8-20.7c16.8-9.8,28.2-17.2,34.6-22.9c6.2-5.5,5.9-7.5,5.9-7.5c0-0.1-0.1-0.1-0.1-0.2l0,0
	c-1.8-2.7-11.3-5.6-19.7-8.2c-2.8-0.9-5.8-1.8-8.9-2.8c-0.7-0.2-1.3-0.4-1.9-0.6l-0.3-0.1c-0.5-0.2-1.1-0.4-1.6-0.6l-0.5-0.2
	c-0.5-0.2-1-0.4-1.5-0.5l-0.6-0.2c-0.5-0.2-1-0.3-1.5-0.5l-0.7-0.3c-0.5-0.2-0.9-0.3-1.4-0.5l-2.9-1.2c-0.4-0.2-0.8-0.3-1.2-0.5
	l-1-0.4c-0.5-0.2-1-0.4-1.5-0.7l-0.7-0.3c-0.7-0.3-1.4-0.7-2.1-1c-25.8-12.4-154-112.3-192.6-142.6c-62.5-49-163.6-129.9-169-138.3
	c-4.9-7.6-5-13.6-5.2-20.5c-0.2-7,4.9-20.1,9.6-30.9c-19.5-4.7-43.8-6.6-53.7,2.3c-4.7,4.2-6.5,10.6-8.8,18.6
	c-5.1,18-12.1,42.7-56.7,68.2c-37,21.1-44.1,34.7-45,40.8c-0.5,3.2,0.6,4.8,1,5.2l0.5,0.4l0.1,0.3c0.3,0.3,26.9,35.9,91,88.3
	C488.1,1784.7,592,1857.8,751.5,1931.2L751.5,1931.2z"/>
<g id="g1071" transform="translate(-637,-5)">
	<path id="path1065" class="st1" d="M1823.4,1952.3c-25.1-15.1-53.6-43.6-71.3-62.7c-5.3,13.3-14.7,29.8-27.2,47.4
		c-0.3,0.4-0.5,0.7-0.6,0.8c-2.4,3.7-7.1,3.8-10.2,2.7c-0.6-0.2-14.5-5-29.4-12.3l0.1,0.7c1.6,24.6,3.7,54.6,5.6,76.2h191.1
		C1865.7,1987.2,1845.5,1965.5,1823.4,1952.3L1823.4,1952.3z"/>
	<path id="path1067" class="st0" d="M1684.8,1928.8l-0.1-0.7c14.8,7.2,28.8,12.1,29.4,12.3c3.2,1.1,7.8,1.1,10.2-2.7
		c0.1-0.1,0.3-0.4,0.6-0.8c12.5-17.6,21.9-34.1,27.2-47.4c17.7,19.1,46.2,47.7,71.3,62.7c22,13.2,42.2,34.9,58,52.7h13.3
		c-16.9-19.3-40-45.6-66.2-61.3c-26.9-16.1-58.4-48.9-74.7-67.1l-6-6.7l-2.5,8.6c-3.8,13.3-13.9,31.8-28.3,52.2
		c-2.4-0.8-15.7-5.7-29.2-12.3c-1.9-0.9-3.8-2.1-5.8-3.5l-8.6-6.2l1.4,20.8c1.6,24.3,3.6,53.8,5.5,75.5h10
		C1688.4,1983.3,1686.4,1953.3,1684.8,1928.8L1684.8,1928.8z"/>
	<path id="path1069" class="st0" d="M1478.1,2004.4l-10.3-87.7l-6.2,2.7c-45.4,19.6-69.6,17.2-73.2,16.8
		c-159.5-73.4-263.4-146.5-322.5-194.8c-64.1-52.4-90.7-88-91-88.3l-0.1-0.3l-0.5-0.4c-0.3-0.4-1.4-2-1-5.2l1.1-7.4l-7.3,1.9
		c-42.9,11-94.7,28.7-154.2,52.8c-23.5,9.5-116.8,52.8-176.1,89.6v11.8c58.4-37.2,155.8-82.4,179.9-92.2
		c56.3-22.8,105.7-39.8,147-50.8c0.8,3.4,2.5,5.5,3.3,6.4c2.7,3.6,29.3,38.1,92,89.5c59.6,48.9,164.6,122.7,325.7,196.8l0.5,0.2
		l0.6,0.1c1,0.2,25.1,4.9,73.5-14.7l8.7,73.8h5L1478.1,2004.4L1478.1,2004.4z"/>
</g>
<path id="path1073" class="st0" d="M1026.4,1891.6c-4.6-5.1-9.3-10.4-14.3-14.9c-11.6-10.3-32.6-16.4-40.6-18.4l-0.4-1.3l-4.2,0.5
	c-16.2,1.9-29.4,0.5-42.2-0.8c-5-0.5-9.6-1-14.3-1.3l-10-0.6l5.5,8.3c0,0.1,0.1,0.1,0.1,0.2c0,0,0.3,2-5.9,7.5
	c-6.4,5.7-17.8,13.1-34.6,22.9c-14.1,8.2-27.8,15.1-40.8,20.7l-3.4,1.5l10.3,84.1h10.1l-9.5-77.9c12.3-5.5,25.3-12.1,38.5-19.8
	c30.1-17.4,43.4-27.8,45.3-36.5c2.5,0.2,5.1,0.5,7.8,0.8c12.5,1.3,26.7,2.8,43.5,0.9c4.5,1.1,27.3,6.9,38.2,16.6
	c4.6,4.1,8.9,8.9,13.5,14.1c6.3,7.1,12.9,14.4,20.3,19.8l5.9-8.1C1038.5,1905.2,1032.3,1898.3,1026.4,1891.6L1026.4,1891.6z"/>
</svg>
