<?xml version="1.0" encoding="UTF-8" standalone="no"?>
<svg
   width="442.79874mm"
   height="472.32269mm"
   viewBox="0 0 442.79874 472.32269"
   version="1.1"
   id="svg5"
   xmlns="http://www.w3.org/2000/svg"
   xmlns:svg="http://www.w3.org/2000/svg">
  <defs
     id="defs2">
    <style
       id="style951">
      .cls-1 {
        fill: #fff;
      }

      .cls-2 {
        fill: none;
      }

      .cls-3 {
        fill: #231f20;
      }
    </style>
  </defs>
  <g
     id="layer1"
     transform="translate(226.16482,114.38337)">
    <g
       id="g1019"
       transform="matrix(0.26458333,0,0,0.26458333,-226.16747,-171.22999)">
      <g
         id="cap"
         transform="translate(-637,-5)">
        <path
           class="cls-1"
           d="m 1256.88,728.7 v -10.31 c 0,-8.23 0,-16.73 0.51,-27.55 0.53,-11.31 1.19,-25.38 48.6,-71.08 46.36,-44.7 137.55,-120.14 216.84,-179.38 80.82,-60.4 153.33,-107.03 223.45,-152.12 l 0.32,-0.21 0.35,-0.15 c 54.82,-24.47 111.51,-49.77 161.93,-60.84 45.06,-9.9 90.2,-9.6 134.16,0.9 4.9,1.17 9.79,2.47 14.95,3.98 l -2.35,9.71 -1.35,-0.27 c -70.66,-13.35 -132.79,-1.99 -201.46,36.82 -75.24,42.53 -164.25,121.76 -250.32,198.37 l -0.7,0.63 -2.72,1 c -51.15,34.02 -104.05,69.21 -159.62,109.81 -55.75,40.73 -116.11,88.3 -174.49,134.31 l -8.09,6.38 z m 494.48,-431.82 c -69.87,44.94 -142.13,91.42 -222.55,151.51 -78.99,59.03 -169.79,134.13 -215.88,178.57 -44.54,42.94 -45.12,55.32 -45.55,64.35 -0.29,6.21 -0.41,11.66 -0.46,16.74 55.9,-44.05 113.35,-89.18 166.65,-128.13 55.93,-40.86 109.07,-76.2 160.47,-110.38 l 0.49,-0.32 2.04,-0.76 c 86.24,-76.77 175.37,-156.04 251.34,-198.98 33.8,-19.11 66.1,-31.76 98.56,-38.27 -11.81,1.15 -23.63,3.02 -35.45,5.61 -49.32,10.83 -105.4,35.84 -159.65,60.05 z"
           id="path956" />
        <path
           class="cls-1"
           d="m 2129.82,657.06 -2.78,-3.55 c -64.62,-82.47 -131.45,-167.75 -218.81,-196.73 -87.47,-29.01 -200.05,-3.18 -308.92,21.8 l -19.04,4.37 15.58,-13.86 c 86.46,-76.97 175.87,-156.55 252.05,-199.61 70.87,-40.06 135.09,-51.76 208.23,-37.94 0.27,0.05 0.54,0.11 0.82,0.16 l 0.57,0.11 c 70.96,13.69 138.61,48.22 185.59,94.73 v 0 c 26.38,26.11 46.21,55.54 57.36,85.11 12.34,32.74 13.37,64.61 2.96,92.14 -21.87,57.83 -97.07,105.12 -169.79,150.86 l -3.82,2.4 z M 1819.04,433.95 c 32.6,0 63.67,3.84 92.34,13.35 88.96,29.51 156.08,113.98 220.75,196.5 70.12,-44.11 141.64,-89.81 161.95,-143.53 22.15,-58.59 -15.44,-124.48 -58,-166.61 v 0 c -45.61,-45.15 -111.39,-78.69 -180.45,-92.02 l -1.35,-0.27 c -70.66,-13.35 -132.79,-2 -201.46,36.82 -71.29,40.3 -154.94,113.54 -236.74,186.29 69.05,-15.74 138.94,-30.54 202.96,-30.54 z"
           id="path958" />
        <rect
           class="cls-1"
           x="1153.67"
           y="1232.4301"
           width="10"
           height="1.36"
           transform="rotate(-56.92,1158.8062,1233.1511)"
           id="rect960" />
        <polygon
           class="cls-1"
           points="1152.29,1234.91 1151.2,1234.19 1156.74,1225.86 1157.81,1226.56 "
           id="polygon962" />
        <polygon
           class="cls-1"
           points="1164.83,1231.14 1166.03,1231.91 1160.65,1240.34 1160.64,1240.33 1159.42,1239.55 "
           id="polygon964" />
        <polygon
           class="cls-1"
           points="1158.6,1239.02 1157.42,1238.26 1162.86,1229.87 1164.01,1230.61 "
           id="polygon966" />
        <polygon
           class="cls-1"
           points="1150.15,1233.49 1149.09,1232.78 1154.65,1224.47 1155.69,1225.16 "
           id="polygon968" />
        <polygon
           class="cls-1"
           points="1147.95,1232.01 1146.97,1231.36 1152.56,1223.07 1153.52,1223.71 "
           id="polygon970" />
        <polygon
           class="cls-1"
           points="1143.38,1228.93 1142.68,1228.45 1148.3,1220.18 1149.01,1220.66 "
           id="polygon972" />
        <polygon
           class="cls-1"
           points="1162.66,1241.62 1161.41,1240.83 1166.79,1232.39 1168,1233.16 "
           id="polygon974" />
        <polygon
           class="cls-1"
           points="1145.71,1230.51 1144.83,1229.91 1150.43,1221.63 1151.3,1222.22 "
           id="polygon976" />
        <polygon
           class="cls-1"
           points="1158.79,1227.22 1159.91,1227.95 1154.43,1236.31 1154.06,1236.07 1153.3,1235.57 "
           id="polygon978" />
        <path
           class="cls-1"
           d="m 1194.81,1258.92 c -4.37,-1.31 -11.32,-4.76 -20.67,-10.27 l 5.08,-8.62 c 10.77,6.34 15.98,8.56 18.45,9.3 h 0.01 l -2.87,9.58 z"
           id="path980" />
        <polygon
           class="cls-1"
           points="1168.71,1233.61 1169.96,1234.39 1164.65,1242.87 1164.53,1242.79 1163.37,1242.06 "
           id="polygon982" />
        <polygon
           class="cls-1"
           points="1172.23,1247.52 1170.78,1246.65 1175.95,1238.09 1177.36,1238.93 "
           id="polygon984" />
        <polygon
           class="cls-1"
           points="1179.12,1239.98 1174.04,1248.59 1172.5,1247.68 1177.62,1239.09 "
           id="polygon986" />
        <polygon
           class="cls-1"
           points="1166.6,1244.09 1165.28,1243.26 1170.58,1234.78 1171.88,1235.59 "
           id="polygon988" />
        <polygon
           class="cls-1"
           points="1172.4,1235.92 1173.75,1236.75 1168.53,1245.27 1168.52,1245.27 1167.15,1244.42 "
           id="polygon990" />
        <polygon
           class="cls-1"
           points="1170.39,1246.41 1168.99,1245.55 1174.2,1237.02 1175.57,1237.86 "
           id="polygon992" />
        <path
           class="cls-1"
           d="m 1179.16,1412.03 -5.91,-8.61 c -0.38,-0.55 -0.69,-1.11 -0.93,-1.7 -1.46,-3.51 -2.41,-9.05 -3.72,-16.71 -3.68,-21.52 -9.84,-57.54 -34.55,-88.07 -21.06,-26.01 -26.25,-79.9 -26.9,-120.54 l -0.46,-28.78 10.14,26.94 c 1.02,2.71 1.94,5.23 2.79,7.58 6.29,17.3 8.9,24.46 26.55,36.58 l 20.62,13.67 10.85,6.71 1.59,0.94 c 10.77,6.34 15.98,8.56 18.45,9.3 l 3.54,1.06 0.03,3.69 c 0.19,24.69 -0.68,86.47 -12.74,126.76 l -9.34,31.18 z m -60.8,-207.28 c 2.38,32.84 8.63,67.59 23.45,85.9 25.44,31.43 32.32,67.58 36.22,90.27 l 0.88,-2.94 c 11.15,-37.25 12.41,-94.21 12.34,-120.36 -4.26,-1.77 -9.99,-4.78 -17.12,-8.98 v 0 l -13.49,-8.31 -17.97,-11.88 -2.18,-1.49 c -11.67,-8.02 -17.81,-14.65 -22.14,-22.21 z"
           id="path994" />
        <g
           id="g1016">
          <path
             class="cls-1"
             d="m 1238.79,1107.35 c -0.22,-0.4 -0.45,-0.79 -0.67,-1.2 v 0 -0.02 0 l 8.78,-4.79 c 0.18,0.33 0.36,0.65 0.54,0.97 l 0.07,0.13 -8.71,4.9 z"
             id="path996" />
          <path
             class="cls-1"
             d="m 1240.59,1110.39 -0.13,-0.2 c -0.16,-0.26 -0.32,-0.52 -0.48,-0.79 l 8.58,-5.14 c 0.13,0.22 0.26,0.43 0.39,0.64 l 0.13,0.22 -8.49,5.28 z"
             id="path998" />
          <path
             class="cls-1"
             d="m 1239.66,1108.87 4.3,-2.55 -4.3,2.55 4.3,-2.55 -4.34,2.48 c -0.2,-0.33 -0.4,-0.67 -0.59,-1.01 l 8.68,-4.96 c 0.17,0.3 0.34,0.58 0.51,0.87 l -4.26,2.62 z"
             id="path1000" />
          <path
             class="cls-1"
             d="m 1241.59,1111.95 -0.11,-0.17 c -0.18,-0.27 -0.35,-0.54 -0.53,-0.81 l 8.44,-5.37 c 0.14,0.22 0.28,0.44 0.43,0.65 l 0.12,0.18 -8.34,5.52 z"
             id="path1002" />
          <path
             class="cls-1"
             d="m 1242.95,1113.93 c -0.34,-0.47 -0.68,-0.95 -1.01,-1.45 l 8.28,-5.6 c 0.28,0.41 0.55,0.81 0.83,1.19 l -8.11,5.86 z"
             id="path1004" />
          <path
             class="cls-1"
             d="m 1236.12,1102.3 c -0.25,-0.5 -0.5,-1.01 -0.75,-1.52 l 9,-4.35 c 0.23,0.48 0.46,0.95 0.7,1.42 l -8.95,4.46 z"
             id="path1006" />
          <path
             class="cls-1"
             d="m 1237.85,1105.64 -0.07,-0.14 c -0.2,-0.37 -0.4,-0.74 -0.6,-1.12 l 8.87,-4.62 c 0.18,0.34 0.36,0.67 0.53,1 l 0.07,0.14 -8.81,4.73 z"
             id="path1008" />
          <path
             class="cls-1"
             d="m 1235.36,1100.76 v 0 c 0,0 -0.02,-0.04 -0.03,-0.07 -3.61,-7.5 -7.12,-16.33 -10.83,-25.67 -12.81,-32.26 -28.74,-72.42 -62.06,-89.83 l 4.63,-8.86 c 36.61,19.14 53.31,61.21 66.73,95.01 3.65,9.2 7.1,17.89 10.57,25.08 l -9.01,4.35 z"
             id="path1010" />
          <path
             class="cls-1"
             d="m 1236.98,1103.99 c -0.23,-0.45 -0.47,-0.91 -0.7,-1.38 l 8.94,-4.49 c 0.22,0.43 0.43,0.85 0.65,1.26 l -8.88,4.6 z"
             id="path1012" />
          <path
             class="cls-1"
             d="m 1326.49,1153.21 -8.8,-2.39 c -2.44,-0.66 -59.99,-16.47 -74.74,-36.9 -0.34,-0.47 -0.68,-0.95 -1.01,-1.45 l -0.46,-0.7 c -0.18,-0.27 -0.35,-0.54 -0.53,-0.81 l -0.49,-0.78 c -0.16,-0.26 -0.32,-0.52 -0.48,-0.79 l -0.32,-0.55 c -0.23,-0.39 -0.43,-0.72 -0.62,-1.07 l -0.32,-0.58 c -0.2,-0.36 -0.41,-0.72 -0.61,-1.09 l -0.33,-0.61 c -0.2,-0.37 -0.4,-0.74 -0.6,-1.12 l -0.21,-0.42 c -0.22,-0.43 -0.46,-0.89 -0.69,-1.35 l -0.15,-0.31 c -0.25,-0.51 -0.5,-1.01 -0.75,-1.53 l -0.07,-0.14 c -3.62,-7.53 -7.11,-16.32 -10.8,-25.61 -12.81,-32.27 -28.74,-72.42 -62.06,-89.84 l -1.07,-0.56 -0.7,-0.99 c -13.24,-18.78 -31.87,-40.02 -44.43,-43.29 -5.13,-1.34 -11.81,-3.19 -19.86,-5.49 l -2.05,-0.59 -2.32,-4.38 0.33,-1.73 c 6.05,-31.52 12.31,-64.11 40.49,-100.18 27.81,-35.59 77.69,-75.19 125.94,-113.49 58.46,-46.07 118.89,-93.7 174.8,-134.55 55.92,-40.86 109.07,-76.2 160.47,-110.38 l 0.49,-0.32 27.78,-10.28 -6.23,5.54 c 104.21,-23.76 210.35,-45.38 295.31,-17.2 90.18,29.91 157.92,116.31 223.42,199.9 3.03,3.34 41.1,46.32 41.86,96.58 0.69,45.39 3.02,82.12 6.25,98.24 0.38,1.89 -0.1,3.84 -1.36,5.49 -6.71,8.8 -44.72,12.14 -56.22,12.96 -21.63,1.53 -78.29,3.54 -136.99,-10.89 -57.27,-14.08 -98.27,-39.04 -121.87,-74.19 -38.11,-56.77 -74.06,-92.98 -97.51,-113.37 -12.22,-10.63 -22.66,-18.38 -30.51,-23.69 7.49,12.48 17.36,30.26 23.6,49.28 10.12,30.83 7.17,54.51 -8.76,70.38 -19.27,19.19 -62.62,43.24 -115.96,64.33 -49.93,19.74 -96,31.87 -117.35,30.94 -4.69,-0.21 -9.54,-0.5 -14.67,-0.8 -41.87,-2.5 -93.98,-5.61 -131.83,31.14 -51.87,50.36 -62.68,118.41 -62.61,166.62 0.08,52.68 12.77,93.89 12.9,94.3 l 2.72,8.71 z m -82.06,-56.68 c 0.21,0.44 0.43,0.87 0.64,1.3 l 0.15,0.31 c 0.2,0.4 0.42,0.82 0.63,1.24 l 0.19,0.38 c 0.18,0.34 0.35,0.67 0.53,1 l 0.3,0.57 c 0.18,0.33 0.36,0.65 0.54,0.97 l 0.29,0.52 c 0.17,0.3 0.34,0.59 0.51,0.88 l 0.32,0.55 c 0.13,0.22 0.27,0.43 0.4,0.65 l 0.44,0.71 c 0.14,0.22 0.28,0.43 0.42,0.65 l 0.4,0.62 c 0.28,0.41 0.55,0.81 0.83,1.19 8.98,12.43 41.6,24.63 60.74,30.6 -3.84,-15.09 -10.82,-48.06 -10.92,-88.16 -0.07,-31.88 4.28,-61.59 12.95,-88.3 10.88,-33.55 28.61,-62.41 52.69,-85.79 41.01,-39.82 97.87,-36.43 139.39,-33.95 5.09,0.3 9.9,0.59 14.52,0.79 40.02,1.78 183.57,-50.28 225.81,-92.36 31.11,-31 -8.58,-95 -21.62,-116.03 -1.49,-2.4 -2.66,-4.29 -3.47,-5.7 -1.08,-1.87 -2.88,-5.01 -0.6,-7.9 1.35,-1.71 3.58,-2.36 5.69,-1.66 9.55,3.18 77.54,44.41 148.55,150.2 46.53,69.32 163.67,86.79 249.85,80.68 29.16,-2.07 43.98,-6.23 48.1,-8.5 -3.18,-17.7 -5.38,-53.17 -6.07,-98.07 -0.72,-47.37 -38.98,-89.7 -39.36,-90.12 l -0.25,-0.29 c -64.62,-82.47 -131.45,-167.75 -218.81,-196.73 -87.47,-29.01 -200.05,-3.18 -308.92,21.8 l -1.23,0.28 c -50.84,33.81 -103.41,68.81 -158.61,109.14 -55.75,40.73 -116.11,88.3 -174.49,134.31 -47.78,37.93 -97.19,77.15 -124.26,111.8 -25.65,32.83 -31.97,61.8 -37.83,92.18 6.31,1.79 11.65,3.25 15.89,4.36 17.54,4.58 38.2,30.49 49.39,46.23 35.86,19.4 52.36,60.97 65.65,94.44 3.65,9.2 7.1,17.89 10.57,25.08 z"
             id="path1014" />
        </g>
        <path
           class="cls-1"
           d="m 1024.12,996.9 1.69,-16.95 c 2.12,-21.24 4.31,-43.21 0.19,-62.29 -2.53,-11.71 -7.46,-22.76 -12.69,-34.46 -3.32,-7.43 -6.75,-15.12 -9.7,-23.31 -8.65,-23.98 -11.94,-48.31 -9.79,-72.31 1.36,-15.11 4.91,-30.4 8.36,-45.17 2.42,-10.37 4.7,-20.17 6.03,-29.16 1.56,-10.49 15.99,-103.37 42.05,-132.58 20.83,-23.36 38.52,-63.46 52.74,-95.69 8.04,-18.23 14.98,-33.97 21.21,-43.99 19.39,-31.23 51.52,-74.37 83.53,-101.79 31.05,-26.6 66.13,-33.63 94.31,-39.28 3.05,-0.61 6.03,-1.21 8.92,-1.81 20.18,-4.23 32.03,-9.62 42.48,-14.39 4.37,-1.99 8.49,-3.87 12.71,-5.39 9.97,-3.6 18.56,-9.26 28.52,-15.82 2.99,-1.97 6.09,-4.01 9.39,-6.11 15.66,-9.94 34.48,-19.97 65.8,-25.99 31.59,-6.06 76.37,-8.22 114.08,-5.49 34.61,2.51 64,9.35 92.48,21.54 26.54,11.35 51.27,26.81 75.19,41.77 l 6.69,4.18 -6.63,4.27 c -69.97,45 -142.33,91.53 -222.87,151.72 -78.99,59.03 -169.79,134.13 -215.88,178.57 -44.54,42.94 -45.12,55.32 -45.55,64.35 -0.5,10.58 -0.5,18.97 -0.5,27.08 v 2.41 l -1.89,1.5 c -47.79,37.93 -97.2,77.16 -124.28,111.81 v 0 c -26.7,34.17 -32.45,64.16 -38.55,95.91 l -0.68,3.52 -5.43,0.75 c -8.83,1.24 -16.89,2.84 -26.08,9.95 -10.59,8.19 -23.13,24 -35.26,39.3 z m 526.52,-763.11 c -28.11,0 -57.19,2.28 -78.88,6.45 -31.17,5.98 -48.51,15.84 -62.33,24.61 -3.23,2.05 -6.29,4.07 -9.25,6.01 -10.49,6.91 -19.54,12.87 -30.62,16.87 -3.84,1.39 -7.6,3.1 -11.96,5.09 -10.38,4.73 -23.3,10.62 -44.57,15.08 -2.92,0.61 -5.93,1.21 -9.01,1.83 -27.04,5.42 -60.69,12.17 -89.77,37.07 -31.14,26.68 -62.54,68.88 -81.54,99.47 -5.85,9.43 -12.67,24.87 -20.55,42.75 -14.5,32.87 -32.54,73.77 -54.42,98.31 -19.59,21.97 -34.12,90.42 -39.62,127.4 -1.4,9.39 -3.72,19.38 -6.18,29.95 -3.36,14.44 -6.84,29.38 -8.14,43.8 -2.02,22.54 1.08,45.42 9.23,68.02 2.83,7.85 6.18,15.36 9.43,22.63 5.44,12.19 10.58,23.7 13.33,36.42 3.33,15.45 2.9,32.09 1.54,48.72 9.11,-11.17 18.18,-21.48 26.53,-27.93 10.5,-8.11 19.82,-10.31 29.15,-11.7 5.87,-30.43 12.68,-61.94 39.82,-96.67 27.44,-35.12 76.4,-74.15 124.05,-111.99 0,-7.49 0.05,-15.37 0.51,-25.13 0.53,-11.31 1.19,-25.38 48.6,-71.08 46.36,-44.7 137.55,-120.14 216.84,-179.38 78.28,-58.5 148.75,-104.07 216.81,-147.85 -21.52,-13.41 -43.74,-26.86 -67.14,-36.87 -27.43,-11.74 -55.79,-18.33 -89.27,-20.76 -10.35,-0.75 -21.39,-1.11 -32.59,-1.11 z"
           id="path1018" />
      </g>
      <g
         id="face"
         transform="translate(-637,-5)">
        <rect
           class="cls-1"
           x="2201.4299"
           y="859.75"
           width="10"
           height="199.27"
           transform="rotate(-86.33,2206.3126,959.42451)"
           id="rect1021" />
      </g>
      <path
         class="cls-1"
         d="m 1080.79,1936.01 c -1.3,0 -2.58,-0.24 -3.69,-0.62 -0.63,-0.22 -15.4,-5.34 -30.75,-12.98 -2.38,-1.18 -4.72,-2.62 -7.16,-4.39 -7.45,-5.39 -13.98,-12.72 -20.3,-19.81 -4.58,-5.14 -8.9,-9.99 -13.47,-14.06 -8.24,-7.35 -24.72,-13.29 -37.39,-16.4 -1,-0.25 -1.59,-0.38 -1.62,-0.38 l -15.75,-3.47 14.95,-6.04 c 103.54,-41.86 116.83,-68.58 117.6,-70.31 l 1.27,-6.1 5.64,3.04 c 0.13,0.06 0.26,0.13 0.39,0.2 13.56,6.6 18.28,20.36 21.37,34.24 0.45,2 1.01,4.27 1.67,6.9 2.2,8.76 5.21,20.76 6.43,34.75 0.39,4.46 -0.3,9.79 -2.05,15.83 -4.17,14.41 -14.84,34.13 -30.02,55.54 -0.28,0.39 -0.47,0.66 -0.55,0.78 -1.6,2.43 -4.12,3.29 -6.56,3.29 z m -1.78,-8.81 z m 0,0 z m -96.31,-65.6 c 9.5,3.16 21.64,8.19 29.38,15.09 4.99,4.45 9.71,9.75 14.28,14.87 5.96,6.69 12.13,13.61 18.7,18.37 1.99,1.44 3.87,2.59 5.75,3.53 13.45,6.69 26.82,11.51 29.19,12.35 14.42,-20.39 24.48,-38.91 28.33,-52.19 1.41,-4.85 1.98,-8.95 1.69,-12.18 -1.15,-13.19 -4.05,-24.75 -6.16,-33.18 -0.65,-2.59 -1.26,-5.03 -1.74,-7.17 -2.51,-11.29 -5.68,-20.03 -12.28,-25.13 -7.12,10.21 -30.6,33.29 -107.13,65.65 z m 100.49,-73.98 z"
         id="path1024" />
      <g
         id="g1050"
         transform="translate(-637,-5)">
        <path
           class="cls-1"
           d="m 1501.32,1852.38 c -0.39,-0.16 -0.78,-0.33 -1.17,-0.49 l -0.21,-0.09 3.89,-9.21 0.21,0.09 c 0.36,0.15 0.72,0.3 1.08,0.45 z"
           id="path1026" />
        <path
           class="cls-1"
           d="m 1503.49,1853.25 c -0.35,-0.14 -0.71,-0.28 -1.07,-0.42 l -0.3,-0.12 3.73,-9.28 1.29,0.51 z"
           id="path1028" />
        <path
           class="cls-1"
           d="m 1499.15,1851.47 v 0 c -0.48,-0.21 -0.95,-0.42 -1.43,-0.63 -0.01,0 -0.03,-0.01 -0.04,-0.02 l 4.07,-9.13 h 0.03 c 0.45,0.21 0.9,0.41 1.35,0.61 l -3.97,9.18 z"
           id="path1030" />
        <path
           class="cls-1"
           d="m 1583.94,1874.06 c -10.58,0 -19.99,-0.97 -35.51,-2.56 l -4.26,-0.44 -1.13,-2.78 c -1.51,-2.74 -11.63,-5.85 -19.76,-8.36 -2.85,-0.88 -5.79,-1.79 -8.86,-2.79 -0.67,-0.22 -1.3,-0.43 -1.93,-0.64 l -0.34,-0.11 c -0.53,-0.18 -1.09,-0.37 -1.64,-0.56 l -0.52,-0.18 c -0.51,-0.18 -1.02,-0.36 -1.54,-0.54 l -0.62,-0.22 c -0.46,-0.17 -0.93,-0.34 -1.41,-0.52 l -0.75,-0.28 c -0.47,-0.18 -0.93,-0.35 -1.4,-0.53 l -0.79,-0.3 c -0.34,-0.13 -0.7,-0.28 -1.05,-0.42 l -1.1,-0.45 c -0.39,-0.16 -0.78,-0.33 -1.17,-0.49 l -0.99,-0.42 c -0.48,-0.21 -0.96,-0.42 -1.44,-0.63 l -0.73,-0.33 c -0.71,-0.32 -1.43,-0.65 -2.14,-1 -25.84,-12.36 -153.97,-112.26 -192.62,-142.59 -62.47,-49.01 -163.58,-129.88 -168.98,-138.28 -4.87,-7.57 -5.04,-13.56 -5.24,-20.5 -0.2,-7.02 4.89,-20.2 9.68,-30.96 l -0.41,-0.11 41.65,-139.08 c 11.15,-37.25 12.41,-94.21 12.34,-120.36 -4.26,-1.77 -9.99,-4.78 -17.12,-8.98 l -0.1,-0.06 -20.73,-13.02 -12.8,-8.61 c -20.29,-13.93 -23.84,-23.69 -30.28,-41.4 -0.84,-2.32 -1.75,-4.8 -2.75,-7.48 -0.91,-2.41 -1.76,-4.61 -2.61,-6.73 -8.59,-21.47 -26.48,-34.23 -37.18,-41.86 -2.62,-1.87 -4.69,-3.35 -6.24,-4.67 -7.36,-6.31 -14.42,-17.89 -15.64,-19.94 -1.69,-2.2 -12.38,-16.45 -19.66,-34.66 -7.81,-19.55 -1.12,-83.14 -0.33,-90.33 l 0.16,-1.43 0.9,-1.13 c 12.5,-15.77 25.42,-32.07 36.98,-41 11.11,-8.59 20.91,-10.55 30.81,-11.94 l 1.06,-0.15 3.41,0.98 c 7.98,2.28 14.58,4.11 19.64,5.43 17.54,4.58 38.2,30.49 49.39,46.23 35.86,19.39 52.36,60.97 65.64,94.43 3.65,9.2 7.1,17.9 10.57,25.08 l 0.06,0.13 c 0.21,0.44 0.43,0.87 0.64,1.3 l 0.15,0.31 c 0.2,0.4 0.42,0.82 0.63,1.24 l 0.19,0.38 c 0.18,0.34 0.35,0.67 0.53,1 l 0.3,0.57 c 0.2,0.37 0.41,0.73 0.61,1.1 l 0.22,0.39 c 0.17,0.3 0.34,0.59 0.51,0.88 l 0.32,0.55 c 0.13,0.22 0.27,0.43 0.4,0.65 l 0.44,0.71 c 0.14,0.22 0.28,0.43 0.42,0.65 l 0.4,0.62 c 0.28,0.41 0.55,0.81 0.83,1.19 8.98,12.43 41.6,24.63 60.74,30.6 -3.84,-15.09 -10.82,-48.06 -10.92,-88.16 -0.07,-31.88 4.28,-61.59 12.95,-88.3 10.88,-33.55 28.61,-62.41 52.69,-85.79 41.01,-39.82 97.87,-36.43 139.39,-33.95 5.09,0.3 9.9,0.59 14.52,0.79 39.98,1.77 183.57,-50.28 225.81,-92.36 31.11,-31 -8.58,-95 -21.62,-116.03 -1.49,-2.4 -2.66,-4.29 -3.47,-5.7 -1.08,-1.87 -2.88,-5.01 -0.6,-7.9 1.35,-1.71 3.58,-2.36 5.69,-1.66 9.55,3.19 77.54,44.41 148.55,150.2 46.53,69.32 163.67,86.79 249.85,80.68 l 5.88,-0.42 -0.55,5.87 c -2.67,28.38 -6.07,51.33 -10.09,68.21 -9.25,38.86 0.44,63.97 8.99,86.12 1.74,4.51 3.39,8.77 4.87,13.1 15.57,45.41 15.65,112.64 0.25,199.84 l -0.55,3.13 c -4.25,24.46 -20.6,73.02 -33.74,112.04 -5.17,15.36 -10.05,29.86 -13.42,40.6 -4.49,14.32 -13.41,35.21 -25.75,64.12 -6.09,14.28 -13,30.46 -20.41,48.3 -2.8,6.73 -5.34,13.56 -8.03,20.78 -11.86,31.83 -25.3,67.92 -66.09,107.87 -20.16,19.75 -64,55.78 -131.11,75.23 -38.28,11.1 -82.43,7.14 -97.18,5.34 l -7.33,50.66 c 0.04,1.52 0.75,7.83 1.28,12.47 1.29,11.38 1.48,13.62 1.28,14.96 -0.8,5.38 -1.74,10.88 -2.77,16.33 l -1.21,6.42 -1.87,-0.9 c -6.78,9.98 -29.75,33.1 -106.57,65.68 l 6.48,10.74 -21.57,-4.02 c -8.57,0.75 -15.23,1.08 -21.48,1.08 z m -33.36,-12.39 c 22.06,2.27 31.31,3.16 50.99,1.6 l 1.04,-0.42 c 103.55,-41.86 116.84,-68.58 117.6,-70.31 l 1.27,-6.1 0.09,0.05 c 0.52,-3 1,-6 1.45,-8.96 -0.03,-1.55 -0.76,-7.92 -1.29,-12.62 -1.27,-11.24 -1.46,-13.45 -1.27,-14.77 l 8.8,-60.83 5,0.78 c 0.54,0.08 54.27,8.25 97.86,-4.39 65.01,-18.84 107.41,-53.68 126.89,-72.77 39.2,-38.39 52.22,-73.37 63.72,-104.22 2.72,-7.31 5.3,-14.22 8.16,-21.12 7.42,-17.89 14.34,-34.09 20.45,-48.39 11.77,-27.56 21.06,-49.34 25.4,-63.19 3.4,-10.83 8.3,-25.39 13.48,-40.8 13.03,-38.7 29.24,-86.85 33.36,-110.56 l 0.56,-3.16 c 15.11,-85.51 15.15,-151.08 0.14,-194.86 -1.42,-4.15 -3.04,-8.32 -4.74,-12.74 -9.08,-23.51 -19.37,-50.15 -9.39,-92.04 3.64,-15.27 6.76,-35.77 9.29,-61 -24.88,1.38 -77.12,2 -131.09,-11.26 -57.27,-14.08 -98.27,-39.04 -121.87,-74.19 -38.11,-56.77 -74.06,-92.98 -97.51,-113.37 -12.22,-10.63 -22.66,-18.38 -30.51,-23.69 7.49,12.48 17.36,30.26 23.6,49.28 10.12,30.83 7.17,54.51 -8.76,70.38 -19.27,19.19 -62.62,43.24 -115.96,64.33 -49.93,19.74 -96,31.87 -117.35,30.94 -4.69,-0.21 -9.54,-0.5 -14.67,-0.8 -41.87,-2.5 -93.98,-5.61 -131.83,31.14 -51.95,50.44 -62.72,118.6 -62.61,166.9 0.12,52.63 12.77,93.61 12.9,94.02 l 2.73,8.71 -8.81,-2.39 c -2.44,-0.66 -59.99,-16.47 -74.74,-36.9 -0.34,-0.47 -0.68,-0.95 -1.01,-1.45 l -0.46,-0.7 c -0.18,-0.27 -0.35,-0.54 -0.53,-0.81 l -0.49,-0.78 c -0.16,-0.26 -0.32,-0.52 -0.48,-0.79 l -0.32,-0.55 c -0.23,-0.39 -0.43,-0.72 -0.62,-1.07 l -0.25,-0.44 c -0.23,-0.41 -0.46,-0.81 -0.69,-1.23 l -0.33,-0.61 c -0.2,-0.37 -0.4,-0.74 -0.6,-1.12 l -0.21,-0.42 c -0.22,-0.43 -0.46,-0.89 -0.69,-1.35 l -0.15,-0.31 c -0.25,-0.51 -0.5,-1.01 -0.75,-1.53 l -0.07,-0.14 c -3.62,-7.53 -7.11,-16.32 -10.8,-25.62 -12.81,-32.26 -28.74,-72.42 -62.06,-89.83 l -1.07,-0.56 -0.7,-0.99 c -13.24,-18.78 -31.87,-40.02 -44.43,-43.29 -5.13,-1.34 -11.81,-3.19 -19.86,-5.49 l -1.37,-0.39 c -8.43,1.23 -16.21,2.98 -25.04,9.8 -10.33,7.98 -22.52,23.23 -34.36,38.17 -2.11,19.92 -5.86,69.86 -0.17,84.1 7.2,18.02 18.34,32.33 18.45,32.47 l 0.38,0.57 c 0.07,0.12 7.05,12 13.68,17.68 1.21,1.04 3.22,2.47 5.54,4.12 10.83,7.72 30.98,22.09 40.65,46.28 0.87,2.18 1.75,4.45 2.68,6.92 1.02,2.71 1.94,5.23 2.79,7.58 6.29,17.3 8.9,24.46 26.55,36.58 l 20.62,13.67 10.85,6.71 1.59,0.94 c 10.77,6.34 15.98,8.56 18.45,9.3 l 3.54,1.06 0.03,3.69 c 0.19,24.69 -0.68,86.47 -12.74,126.76 l -38.74,129.36 1.9,0.56 -2.46,5.27 c -0.4,0.86 -0.79,1.69 -1.17,2.52 -6.21,13.58 -10.15,25.1 -10.03,29.31 0.19,6.54 0.29,10.15 3.65,15.37 4.29,5.73 74.38,63.39 168.01,136.82 100.41,78.75 173.02,132.56 189.5,140.44 0.66,0.31 1.31,0.62 1.97,0.92 l 0.62,0.28 c 0.48,0.22 0.93,0.41 1.37,0.61 l 0.93,0.39 c 0.36,0.15 0.72,0.3 1.08,0.45 l 1.04,0.42 c 0.32,0.13 0.65,0.26 0.97,0.39 l 0.74,0.29 c 0.43,0.17 0.87,0.33 1.3,0.5 l 0.67,0.25 c 0.49,0.18 0.93,0.34 1.37,0.5 l 0.58,0.21 c 0.51,0.18 0.99,0.35 1.48,0.52 l 0.51,0.18 c 0.51,0.18 1.05,0.36 1.57,0.54 l 0.3,0.1 c 0.61,0.21 1.22,0.41 1.82,0.6 3.03,0.99 5.94,1.89 8.75,2.75 11.58,3.57 20.27,6.25 24.37,11.3 z m 169.61,-69.05 z m 10.16,-41.1 z"
           id="path1032" />
        <path
           class="cls-1"
           d="m 1497,1850.51 c -0.72,-0.33 -1.44,-0.66 -2.16,-1 l 4.32,-9.02 c 0.65,0.31 1.31,0.62 1.97,0.92 l -4.13,9.11 z"
           id="path1034" />
        <path
           class="cls-1"
           d="m 1505.65,1854.08 c -0.46,-0.17 -0.93,-0.35 -1.39,-0.53 l 3.61,-9.33 c 0.44,0.17 0.87,0.34 1.3,0.5 z"
           id="path1036" />
        <path
           class="cls-1"
           d="m 1148.03,1518.55 -9.08,-4.18 c 0.75,-1.63 1.22,-2.61 1.22,-2.61 l 9.04,4.28 c -0.4,0.86 -0.79,1.69 -1.17,2.52 z"
           id="path1038" />
        <path
           class="cls-1"
           d="m 1514.36,1857.12 v 0 c -0.62,-0.21 -1.24,-0.41 -1.87,-0.62 l 3.18,-9.48 c 0.61,0.2 1.21,0.4 1.81,0.6 l -3.11,9.5 z"
           id="path1040" />
        <path
           class="cls-1"
           d="m 1543.03,1868.29 c -0.03,-0.05 -0.06,-0.1 -0.09,-0.15 v 0 c -0.67,-1.02 -2.42,-2.06 -4.79,-3.11 -2.53,-1.11 -5.76,-2.23 -9.06,-3.29 -1.93,-0.62 -3.9,-1.23 -5.82,-1.82 -2.85,-0.88 -5.79,-1.79 -8.86,-2.79 l 3.11,-9.5 h 0.02 c 2.98,0.98 5.88,1.87 8.68,2.74 4.78,1.47 9.07,2.8 12.75,4.2 3.09,1.18 5.75,2.41 7.89,3.83 2.16,1.43 3.82,3.05 4.89,5.01 l -8.72,4.89 z"
           id="path1042" />
        <path
           class="cls-1"
           d="m 1512.16,1856.39 h -0.04 c -0.26,-0.1 -0.52,-0.19 -0.78,-0.28 -0.28,-0.09 -0.56,-0.19 -0.84,-0.29 v 0 l 3.26,-9.46 v 0 c 0.26,0.09 0.52,0.18 0.78,0.27 0.27,0.09 0.54,0.18 0.8,0.27 l -3.19,9.48 z"
           id="path1044" />
        <path
           class="cls-1"
           d="m 1507.83,1854.88 c -0.46,-0.17 -0.92,-0.34 -1.39,-0.51 -0.03,0 -0.05,-0.02 -0.08,-0.03 l 3.48,-9.38 c 0.46,0.17 0.92,0.34 1.38,0.51 z"
           id="path1046" />
        <path
           class="cls-1"
           d="m 1509.98,1855.64 -0.08,-0.03 c -0.49,-0.17 -0.97,-0.34 -1.46,-0.52 v 0 l 3.37,-9.42 c 0.47,0.17 0.94,0.33 1.4,0.5 l 0.06,0.02 z"
           id="path1048" />
      </g>
      <rect
         class="cls-1"
         x="-899.26874"
         y="515.80127"
         width="10"
         height="336.70001"
         transform="rotate(-86.5)"
         id="rect1052" />
      <g
         id="glassesFrame"
         transform="translate(-637,-5)">
        <path
           class="cls-1"
           d="m 2142.62,1190.52 c -48.18,0 -92.92,-16.54 -124.04,-46.13 -24.64,-23.44 -38.21,-53.6 -38.21,-84.92 V 905.49 c 0,-10.87 4.92,-21.06 14.63,-30.3 27.53,-26.19 89.62,-40.9 158.17,-37.48 42.06,2.1 81.3,10.94 110.5,24.89 30.25,14.46 46.91,33.12 46.91,52.55 v 140.29 c 0,34.29 -16.27,67.11 -45.82,92.42 -29.45,25.23 -69.08,40.29 -111.59,42.41 -3.54,0.18 -7.06,0.26 -10.57,0.26 z m -8.51,-343.29 c -57.69,0 -109.38,13.49 -132.21,35.2 -7.65,7.28 -11.53,15.03 -11.53,23.05 v 153.98 c 0,28.97 12.14,55.83 35.1,77.68 30.94,29.43 78.49,45.57 127.21,43.13 82.94,-4.13 147.91,-58.97 147.91,-124.84 V 915.14 c 0,-15.14 -15.03,-31 -41.23,-43.52 -28.03,-13.39 -65.92,-21.89 -106.68,-23.92 -6.24,-0.31 -12.45,-0.46 -18.58,-0.46 z"
           id="path1054" />
        <path
           class="cls-1"
           d="m 1639.32,1215.49 c -67.28,0 -129.9,-21.88 -169.81,-59.85 -26.95,-25.64 -41.19,-56.49 -41.19,-89.21 V 888.85 c 0,-11 5.06,-21.39 15.05,-30.89 33.25,-31.63 118.24,-49.76 211.48,-45.11 54.65,2.73 105.54,13.05 143.3,29.06 38.92,16.5 60.35,37.67 60.35,59.61 v 159.62 c 0,38.95 -21.06,76.31 -59.29,105.18 -38.02,28.72 -89.29,46.04 -144.36,48.79 -5.2,0.26 -10.38,0.39 -15.53,0.39 z m -13.58,-393.38 c -34.68,0 -67.83,3.22 -97.18,9.49 -35.75,7.65 -63.56,19.58 -78.29,33.59 -7.93,7.54 -11.95,15.5 -11.95,23.65 v 177.58 c 0,29.92 13.17,58.26 38.09,81.97 38.07,36.22 98.13,57.09 162.86,57.09 5.01,0 10.03,-0.12 15.08,-0.38 53.09,-2.65 102.39,-19.26 138.83,-46.78 35.67,-26.94 55.31,-61.46 55.31,-97.2 V 901.5 c 0,-17.41 -19.77,-35.79 -54.25,-50.41 -36.71,-15.57 -86.39,-25.61 -139.9,-28.28 -9.62,-0.48 -19.18,-0.72 -28.62,-0.72 z"
           id="path1056" />
        <path
           class="cls-1"
           d="m 1983.04,968.48 c -30.91,-16.34 -61.58,-21.68 -91.18,-15.89 -22.11,4.33 -35.32,13.61 -35.45,13.71 l -5.83,-8.12 c 0.59,-0.43 14.75,-10.47 38.82,-15.29 22.04,-4.41 56.99,-5.09 98.31,16.76 l -4.67,8.84 z"
           id="path1058" />
      </g>
      <path
         class="cls-1"
         d="m 944.5,1972 c -16.27,0 -29.5,-13.91 -29.5,-31 0,-17.09 13.23,-31 29.5,-31 16.27,0 29.5,13.91 29.5,31 0,17.09 -13.23,31 -29.5,31 z m 0,-52 c -10.75,0 -19.5,9.42 -19.5,21 0,11.58 8.75,21 19.5,21 10.75,0 19.5,-9.42 19.5,-21 0,-11.58 -8.75,-21 -19.5,-21 z"
         id="path1061" />
      <path
         class="cls-1"
         d="m 757.8,1941.54 c -5.56,0 -8.48,-0.58 -8.83,-0.65 l -0.55,-0.12 -0.51,-0.23 c -161.14,-74.09 -266.06,-147.92 -325.71,-196.8 -62.7,-51.39 -89.35,-85.94 -92.03,-89.51 -1.3,-1.42 -4.69,-5.95 -3.57,-13.52 2.11,-14.17 18.9,-30.34 49.92,-48.05 41.06,-23.45 47.14,-44.94 52.03,-62.21 2.5,-8.82 4.85,-17.15 11.69,-23.3 17.26,-15.54 56.11,-6.52 67.61,-3.38 0.81,0.22 1.25,0.35 1.25,0.35 l 5.62,1.66 -2.53,5.29 c 0,0 -0.45,0.94 -1.14,2.46 -6.22,13.61 -10.16,25.12 -10.04,29.33 0.19,6.54 0.29,10.15 3.65,15.37 4.29,5.73 74.38,63.39 168.01,136.82 100.41,78.75 173.02,132.56 189.5,140.44 0.66,0.31 1.31,0.62 1.97,0.92 l 0.62,0.28 c 0.46,0.2 0.91,0.41 1.37,0.61 l 0.92,0.39 c 0.36,0.15 0.72,0.3 1.08,0.45 l 2.75,1.09 c 0.43,0.17 0.87,0.33 1.3,0.5 l 0.67,0.25 c 0.46,0.17 0.92,0.34 1.38,0.51 l 0.57,0.2 c 0.51,0.18 0.99,0.35 1.48,0.52 l 0.51,0.18 c 0.51,0.18 1.04,0.36 1.57,0.54 l 0.31,0.1 c 0.61,0.21 1.22,0.41 1.82,0.6 3.03,0.99 5.94,1.89 8.75,2.75 12.35,3.81 21.28,6.56 25.05,12.23 0.16,0.24 0.31,0.48 0.45,0.73 0.23,0.41 0.43,0.8 0.58,1.18 4.18,10.22 -7.13,21.02 -44.8,42.81 -14.42,8.34 -28.51,15.5 -41.89,21.27 -35.61,15.37 -59.08,17.95 -70.82,17.95 z m -6.32,-10.37 c 3.52,0.49 27.75,2.83 73.17,-16.76 13.02,-5.62 26.76,-12.6 40.84,-20.74 16.84,-9.75 28.16,-17.23 34.61,-22.88 6.24,-5.47 5.94,-7.48 5.94,-7.5 -0.03,-0.05 -0.06,-0.1 -0.1,-0.15 v 0 c -1.8,-2.71 -11.29,-5.63 -19.67,-8.22 -2.85,-0.88 -5.79,-1.79 -8.86,-2.79 -0.67,-0.22 -1.3,-0.43 -1.93,-0.64 l -0.34,-0.11 c -0.53,-0.18 -1.09,-0.37 -1.64,-0.56 l -0.52,-0.18 c -0.51,-0.18 -1.02,-0.36 -1.54,-0.54 l -0.62,-0.22 c -0.48,-0.17 -0.97,-0.35 -1.46,-0.53 l -0.7,-0.26 c -0.47,-0.18 -0.93,-0.35 -1.39,-0.53 l -2.94,-1.17 c -0.39,-0.16 -0.78,-0.33 -1.17,-0.49 l -0.99,-0.42 c -0.5,-0.22 -0.99,-0.43 -1.48,-0.65 l -0.69,-0.31 c -0.71,-0.32 -1.43,-0.65 -2.14,-1 -25.84,-12.36 -153.97,-112.26 -192.62,-142.59 -62.47,-49.01 -163.58,-129.88 -168.98,-138.28 -4.87,-7.57 -5.04,-13.56 -5.24,-20.5 -0.2,-7.01 4.87,-20.14 9.65,-30.89 -19.55,-4.71 -43.78,-6.63 -53.72,2.33 -4.69,4.22 -6.48,10.57 -8.76,18.59 -5.1,18.02 -12.08,42.69 -56.69,68.17 -37,21.13 -44.06,34.66 -44.98,40.84 -0.47,3.18 0.65,4.81 0.96,5.2 l 0.46,0.36 0.1,0.28 c 0.26,0.35 26.88,35.88 90.95,88.33 59.08,48.36 162.97,121.4 322.51,194.82 z"
         id="path1063" />
      <g
         id="g1071"
         transform="translate(-637,-5)">
        <path
           class="cls-2"
           d="m 1823.43,1952.29 c -25.09,-15.06 -53.63,-43.62 -71.33,-62.72 -5.28,13.3 -14.71,29.77 -27.19,47.38 -0.28,0.39 -0.47,0.66 -0.55,0.78 -2.45,3.72 -7.05,3.77 -10.25,2.67 -0.61,-0.21 -14.52,-5.04 -29.36,-12.29 l 0.05,0.69 c 1.65,24.56 3.66,54.57 5.58,76.21 h 191.05 c -15.77,-17.82 -35.96,-39.49 -58,-52.71 z"
           id="path1065" />
        <path
           class="cls-1"
           d="m 1684.79,1928.79 -0.05,-0.69 c 14.84,7.25 28.75,12.08 29.36,12.29 3.2,1.1 7.8,1.05 10.25,-2.67 0.08,-0.12 0.27,-0.39 0.55,-0.78 12.49,-17.61 21.91,-34.07 27.19,-47.38 17.7,19.11 46.24,47.67 71.33,62.72 22.04,13.22 42.23,34.89 58,52.71 h 13.32 c -16.89,-19.26 -39.99,-45.58 -66.17,-61.29 -26.88,-16.13 -58.36,-48.94 -74.74,-67.06 l -6.01,-6.66 -2.5,8.62 c -3.85,13.28 -13.9,31.81 -28.33,52.19 -2.37,-0.84 -15.74,-5.66 -29.19,-12.35 -1.88,-0.94 -3.76,-2.09 -5.75,-3.53 l -8.64,-6.25 1.4,20.78 c 1.63,24.28 3.61,53.85 5.52,75.54 h 10.04 c -1.92,-21.65 -3.93,-51.65 -5.58,-76.21 z m 31.22,3.41 z"
           id="path1067" />
        <path
           class="cls-1"
           d="m 1478.11,2004.42 -10.29,-87.66 -6.16,2.66 c -45.42,19.6 -69.65,17.25 -73.17,16.76 -159.54,-73.42 -263.43,-146.46 -322.51,-194.82 -64.07,-52.45 -90.69,-87.98 -90.95,-88.33 l -0.1,-0.28 -0.46,-0.36 c -0.31,-0.39 -1.44,-2.02 -0.96,-5.2 l 1.11,-7.45 -7.3,1.87 c -42.86,10.99 -94.74,28.74 -154.18,52.76 -23.52,9.5 -116.75,52.76 -176.13,89.61 v 11.81 c 58.37,-37.18 155.84,-82.44 179.87,-92.15 56.31,-22.75 105.73,-39.83 147,-50.8 0.83,3.36 2.48,5.5 3.3,6.39 2.69,3.57 29.33,38.12 92.03,89.51 59.65,48.88 164.57,122.71 325.71,196.8 l 0.51,0.23 0.55,0.12 c 1.04,0.22 25.13,4.94 73.48,-14.71 l 8.67,73.82 h 5.03 l 4.97,-0.58 z"
           id="path1069" />
      </g>
      <path
         class="cls-1"
         d="m 1026.36,1891.56 c -4.56,-5.12 -9.28,-10.42 -14.28,-14.87 -11.58,-10.33 -32.63,-16.38 -40.6,-18.39 l -0.37,-1.27 -4.2,0.49 c -16.16,1.89 -29.41,0.5 -42.22,-0.85 -4.95,-0.52 -9.63,-1.01 -14.29,-1.29 l -10,-0.59 5.54,8.35 c 0.04,0.07 0.09,0.13 0.1,0.16 0,0.02 0.3,2.03 -5.94,7.5 -6.44,5.65 -17.76,13.14 -34.61,22.88 -14.08,8.15 -27.82,15.12 -40.84,20.74 l -3.44,1.48 10.26,84.1 h 10.07 l -9.5,-77.91 c 12.35,-5.5 25.27,-12.13 38.45,-19.76 30.1,-17.41 43.36,-27.81 45.35,-36.5 2.53,0.23 5.12,0.5 7.79,0.79 12.52,1.32 26.68,2.81 43.55,0.94 4.51,1.07 27.32,6.87 38.23,16.61 4.56,4.07 8.89,8.92 13.47,14.06 6.32,7.09 12.85,14.42 20.3,19.81 l 5.87,-8.1 c -6.57,-4.76 -12.74,-11.68 -18.7,-18.37 z"
         id="path1073" />
    </g>
  </g>
</svg>
