<?xml version="1.0" encoding="UTF-8" standalone="no"?>
<svg
   id="sketch"
   viewBox="0 0 1673.62 1785.1566"
   version="1.1"
   width="1673.62"
   height="1785.1566"
   xmlns="http://www.w3.org/2000/svg"
   xmlns:svg="http://www.w3.org/2000/svg">
  <defs
     id="defs4">
    <style
       id="style2">
      .cls-1 {
        fill: #fff;
      }

      .cls-2 {
        fill: none;
      }

      .cls-3 {
        fill: #221f1f;
      }
    </style>
  </defs>
  <g
     id="g2009"
     transform="translate(-4.98,-219.85338)">
    <g
       id="shirt">
      <path
         class="cls-1"
         d="m 1085.79,1941.01 c -1.3,0 -2.58,-0.24 -3.69,-0.62 -0.63,-0.22 -15.4,-5.34 -30.75,-12.98 -2.38,-1.18 -4.72,-2.62 -7.16,-4.39 -7.45,-5.39 -13.98,-12.72 -20.3,-19.81 -4.58,-5.14 -8.9,-9.99 -13.47,-14.06 -12.01,-10.71 -42.49,-16.29 -42.8,-16.34 l -14.39,-2.58 14.05,-7.34 h 0.26 c 106.61,-43.22 121.08,-70.71 121.22,-70.98 l 0.02,-0.04 2.07,-4.62 4.59,2.22 c 14.22,6.69 18.53,21.29 21.45,34.44 0.45,2 1.01,4.27 1.67,6.9 2.2,8.76 5.21,20.76 6.43,34.75 0.39,4.46 -0.3,9.79 -2.05,15.83 -4.17,14.41 -14.84,34.13 -30.02,55.54 -0.28,0.39 -0.47,0.66 -0.55,0.78 -1.6,2.43 -4.12,3.29 -6.56,3.29 z m -1.78,-8.81 c 0,0 0,0 0,0 0,0 0,0 0,0 z m 0,0 v 0 c 0,0 0,0 0,0 z m -99.29,-65.6 c 10.69,3.03 24.4,7.99 32.36,15.09 4.99,4.45 9.71,9.75 14.28,14.87 5.96,6.69 12.13,13.61 18.7,18.37 1.99,1.44 3.87,2.59 5.75,3.53 13.45,6.69 26.82,11.51 29.19,12.35 14.42,-20.39 24.48,-38.91 28.33,-52.19 1.41,-4.85 1.98,-8.95 1.69,-12.18 -1.15,-13.19 -4.05,-24.75 -6.16,-33.18 -0.65,-2.59 -1.26,-5.03 -1.74,-7.17 -2.63,-11.83 -5.74,-20.44 -12.3,-25.37 -7.59,9.63 -32.49,33.04 -110.09,65.89 z"
         id="path7" />
      <path
         class="cls-1"
         d="m 762.64,1946.53 c -2.85,0 -4.96,-0.15 -6.32,-0.3 h -0.1 c -0.2,-0.03 -0.38,-0.05 -0.55,-0.08 l -0.15,-0.02 c -0.37,-0.05 -0.66,-0.09 -0.88,-0.13 l -1.1,-0.2 -0.61,-0.26 c -161.14,-74.09 -266.06,-147.92 -325.71,-196.8 -62.7,-51.39 -89.35,-85.94 -92.03,-89.51 -1.3,-1.42 -4.69,-5.95 -3.57,-13.52 2.11,-14.17 18.9,-30.34 49.92,-48.05 41.79,-23.87 50.26,-45.13 57.06,-62.21 3.43,-8.6 6.38,-16.03 12.88,-21.88 19.34,-17.42 59.81,-5.28 61.53,-4.76 l 4.3,1.32 -0.86,4.42 c -0.25,1.29 -0.77,3.14 -1.48,5.69 -0.28,0.99 -0.58,2.08 -0.9,3.24 -1.84,6.72 -4.31,16.65 -4.55,25.25 -0.18,6.32 0.9,11.03 3.12,13.61 10.95,12.75 83.09,72.66 171.54,142.46 94.16,74.3 165.99,127.57 183,135.7 9.06,4.33 18.63,7.28 27.07,9.88 12.35,3.81 21.27,6.56 25.04,12.23 v 0 c 1.65,2.49 2.16,5.36 1.47,8.31 -1.67,7.11 -10,16.02 -45.24,36.41 -2.54,1.47 -5.11,2.92 -7.64,4.33 -11.67,6.46 -23.15,12.14 -34.12,16.89 l -0.43,0.19 c -35.64,15.33 -59.2,17.81 -70.68,17.81 z m -5.19,-10.24 c 6.31,0.67 29.85,1.37 72.07,-16.83 l 0.43,-0.18 c 10.62,-4.6 21.75,-10.11 33.07,-16.38 2.48,-1.37 4.99,-2.8 7.48,-4.23 32.01,-18.52 39.7,-26.55 40.51,-30.04 0.07,-0.29 0.05,-0.33 -0.07,-0.5 -1.79,-2.7 -11.28,-5.63 -19.66,-8.21 -8.77,-2.7 -18.72,-5.77 -28.44,-10.42 -21.38,-10.23 -109.52,-77.41 -184.87,-136.87 -73.89,-58.3 -159.52,-128.17 -172.93,-143.79 -3.97,-4.63 -5.78,-11.3 -5.53,-20.4 0.26,-9.56 2.76,-19.78 4.9,-27.61 0.32,-1.18 0.63,-2.29 0.92,-3.3 0.04,-0.14 0.08,-0.27 0.11,-0.4 -12.57,-2.99 -36.29,-6.04 -47.28,3.87 -4.76,4.29 -7.2,10.41 -10.28,18.15 -6.99,17.55 -16.56,41.58 -61.39,67.19 -37,21.13 -44.06,34.66 -44.98,40.84 -0.47,3.18 0.65,4.81 0.96,5.2 l 0.46,0.36 0.1,0.28 c 0.26,0.35 26.88,35.88 90.95,88.33 59.08,48.36 162.97,121.4 322.51,194.82 0.07,0 0.14,0.02 0.22,0.03 l 0.12,0.02 c 0.16,0.02 0.34,0.04 0.54,0.06 h 0.09 z"
         id="path9" />
    </g>
    <g
       id="g638">
      <path
         class="cls-2"
         d="M 1348.38,1059.46 V 967.1 c -30,-15.26 -59.77,-20.14 -88.51,-14.51 -17.07,3.34 -28.82,9.63 -33.36,12.37 v 96.17 c 0,38.95 -21.06,76.31 -59.29,105.18 -38.02,28.72 -89.29,46.04 -144.36,48.79 -5.2,0.26 -10.38,0.39 -15.53,0.39 -67.28,0 -129.9,-21.88 -169.81,-59.85 -26.95,-25.64 -41.19,-56.49 -41.19,-89.21 V 954.36 l -98.58,-5.99 c -2.68,6.4 -5,12.84 -7.01,19.27 0,0.02 -0.02,0.05 -0.02,0.07 -0.26,0.85 -0.52,1.69 -0.78,2.54 -0.02,0.07 -0.05,0.15 -0.07,0.22 -0.25,0.83 -0.49,1.66 -0.73,2.49 -0.02,0.08 -0.05,0.17 -0.07,0.25 -0.23,0.8 -0.45,1.61 -0.68,2.41 -0.03,0.11 -0.06,0.22 -0.09,0.34 -0.21,0.78 -0.42,1.55 -0.62,2.33 -0.04,0.14 -0.08,0.28 -0.11,0.42 -0.19,0.73 -0.38,1.47 -0.56,2.2 -0.05,0.18 -0.09,0.36 -0.14,0.54 -0.18,0.72 -0.35,1.43 -0.52,2.15 -0.05,0.19 -0.1,0.39 -0.14,0.58 -0.16,0.68 -0.32,1.36 -0.47,2.04 -0.05,0.23 -0.11,0.46 -0.16,0.69 -0.15,0.65 -0.29,1.3 -0.43,1.94 -0.06,0.26 -0.11,0.52 -0.17,0.78 -0.14,0.64 -0.27,1.27 -0.4,1.91 -0.05,0.27 -0.11,0.53 -0.17,0.8 -0.12,0.61 -0.24,1.23 -0.36,1.84 -0.06,0.29 -0.11,0.58 -0.17,0.86 -0.11,0.56 -0.21,1.13 -0.31,1.69 -0.06,0.34 -0.13,0.68 -0.19,1.01 -0.1,0.53 -0.19,1.07 -0.28,1.6 -0.06,0.36 -0.13,0.72 -0.19,1.08 -0.09,0.51 -0.17,1.01 -0.25,1.51 -0.06,0.39 -0.13,0.78 -0.19,1.16 -0.08,0.47 -0.15,0.94 -0.22,1.41 -0.06,0.41 -0.13,0.83 -0.19,1.24 -0.07,0.45 -0.13,0.9 -0.19,1.35 -0.06,0.43 -0.13,0.87 -0.19,1.3 -0.06,0.41 -0.11,0.82 -0.17,1.24 -0.06,0.47 -0.13,0.93 -0.19,1.4 -0.05,0.38 -0.1,0.76 -0.14,1.14 -0.06,0.49 -0.12,0.98 -0.18,1.47 -0.04,0.37 -0.08,0.73 -0.13,1.09 -0.06,0.5 -0.12,1.01 -0.17,1.51 -0.04,0.35 -0.07,0.7 -0.11,1.05 -0.05,0.51 -0.11,1.02 -0.16,1.53 -0.03,0.34 -0.07,0.67 -0.1,1 -0.05,0.52 -0.1,1.04 -0.15,1.56 -0.03,0.32 -0.06,0.64 -0.08,0.95 -0.05,0.53 -0.1,1.06 -0.14,1.58 -0.03,0.32 -0.05,0.64 -0.08,0.95 -0.04,0.52 -0.09,1.05 -0.12,1.57 -0.02,0.29 -0.04,0.58 -0.06,0.87 -0.04,0.55 -0.08,1.09 -0.12,1.64 -0.02,0.28 -0.04,0.56 -0.05,0.84 -0.03,0.54 -0.07,1.08 -0.1,1.62 -0.02,0.3 -0.03,0.6 -0.05,0.9 -0.03,0.52 -0.06,1.05 -0.09,1.57 -0.01,0.29 -0.03,0.58 -0.04,0.87 -0.02,0.52 -0.05,1.04 -0.07,1.56 -0.01,0.3 -0.02,0.6 -0.04,0.91 -0.02,0.5 -0.04,1 -0.06,1.5 -0.01,0.3 -0.02,0.6 -0.03,0.91 -0.02,0.49 -0.03,0.99 -0.05,1.48 0,0.3 -0.01,0.6 -0.02,0.9 -0.01,0.49 -0.02,0.97 -0.03,1.45 0,0.31 -0.01,0.62 -0.02,0.93 0,0.46 -0.02,0.93 -0.02,1.39 0,0.34 0,0.67 0,1.01 0,0.43 0,0.86 -0.01,1.29 0,0.37 0,0.74 0,1.11 0,0.38 0,0.76 0,1.14 0,0.45 0,0.89 0,1.34 0,0.37 0,0.74 0,1.11 0,0.47 0.01,0.94 0.02,1.41 0,0.34 0,0.68 0.01,1.02 0,0.53 0.02,1.05 0.03,1.58 0,0.27 0.01,0.55 0.02,0.82 0.01,0.6 0.03,1.2 0.05,1.79 0,0.2 0.01,0.39 0.02,0.59 0.02,0.74 0.05,1.48 0.07,2.21 0,0.04 0,0.08 0,0.13 1.75,46.74 12.54,81.79 12.66,82.17 l 0.08,0.24 2.65,8.47 -8.81,-2.39 c -2.44,-0.66 -59.99,-16.47 -74.74,-36.9 -6.66,-9.22 -12.12,-22.98 -18.45,-38.91 -10.4,-26.22 -22.88,-57.64 -45.06,-77.84 -5.12,-4.66 -10.75,-8.73 -17,-11.99 l -1.07,-0.56 -0.7,-0.99 c -13.24,-18.78 -31.87,-40.02 -44.43,-43.29 -0.6,-0.16 -1.23,-0.32 -1.87,-0.49 -0.37,-0.1 -0.77,-0.21 -1.15,-0.31 -0.28,-0.08 -0.56,-0.15 -0.85,-0.23 -0.43,-0.12 -0.89,-0.24 -1.34,-0.36 -0.27,-0.07 -0.53,-0.14 -0.8,-0.22 -0.44,-0.12 -0.91,-0.25 -1.37,-0.38 -0.31,-0.08 -0.61,-0.17 -0.92,-0.25 -0.44,-0.12 -0.89,-0.25 -1.34,-0.37 -0.36,-0.1 -0.72,-0.2 -1.09,-0.3 -0.42,-0.12 -0.86,-0.24 -1.29,-0.36 -0.43,-0.12 -0.85,-0.24 -1.29,-0.36 -0.39,-0.11 -0.79,-0.22 -1.19,-0.34 -0.51,-0.14 -1.02,-0.29 -1.54,-0.44 -0.36,-0.1 -0.72,-0.2 -1.08,-0.31 -0.38,-0.11 -0.75,-0.21 -1.13,-0.32 -0.95,0.12 -1.9,0.24 -2.87,0.35 -8.16,0.98 -16.6,2 -25.14,8.59 -10.33,7.98 -22.52,23.23 -34.36,38.17 -2.11,19.92 -5.86,69.86 -0.17,84.1 7.2,18.02 18.34,32.33 18.45,32.47 l 0.38,0.57 c 0.07,0.12 7.05,12 13.68,17.68 1.21,1.04 3.22,2.47 5.54,4.12 8.54,6.09 22.87,16.31 33.29,32.22 l -0.1,-5.96 10.14,26.94 c 0.34,0.91 0.67,1.8 0.99,2.67 0.63,1.71 1.23,3.35 1.8,4.91 6.29,17.3 8.9,24.46 26.55,36.58 24.22,16.63 43.95,28.36 51.51,30.62 l 3.54,1.06 0.03,3.69 c 0.19,24.69 -0.68,86.47 -12.74,126.76 l -9.34,31.18 v 0 c 0,0 -30.78,102.78 -30.78,102.78 -0.27,1.28 -0.76,3.04 -1.43,5.42 -0.28,0.99 -0.58,2.08 -0.9,3.24 -1.84,6.72 -4.31,16.65 -4.55,25.25 -0.18,6.32 0.9,11.03 3.12,13.61 10.95,12.75 83.09,72.66 171.54,142.45 94.16,74.3 165.99,127.57 183,135.7 9.06,4.33 18.63,7.28 27.07,9.88 10.74,3.31 18.88,5.82 23.3,10.15 3.96,0.29 7.95,0.71 12.15,1.15 11.55,1.22 23.49,2.47 37.66,1.3 99.7,-40.39 118.95,-67.07 121.18,-70.65 0.59,-3.16 1.12,-6.2 1.63,-9.26 l 0.14,-0.84 0.4,-0.75 c 0.14,-0.26 3.47,-6.61 2.74,-25.16 -0.76,-19.38 2.71,-61.08 3.31,-62.86 l 1.34,-4.01 4.18,0.65 c 0.54,0.08 54.27,8.25 97.86,-4.39 65.01,-18.84 107.41,-53.68 126.89,-72.77 39.2,-38.39 52.22,-73.37 63.72,-104.22 2.72,-7.31 5.3,-14.22 8.16,-21.12 7.42,-17.89 14.34,-34.09 20.45,-48.39 11.77,-27.56 21.06,-49.34 25.4,-63.19 3.4,-10.83 8.3,-25.39 13.48,-40.8 13.03,-38.7 29.24,-86.85 33.36,-110.56 l 0.56,-3.16 c 1.91,-10.79 3.57,-21.25 5,-31.4 -42.98,-2.79 -82.36,-18.88 -110.54,-45.7 -24.64,-23.44 -38.21,-53.6 -38.21,-84.92 z"
         id="path12" />
      <path
         class="cls-2"
         d="m 509.82,1290.65 c 25.44,31.43 32.32,67.58 36.22,90.27 l 0.88,-2.94 c 11.15,-37.25 12.41,-94.21 12.34,-120.36 -13.82,-5.74 -39.61,-23.01 -50.75,-30.66 -0.69,-0.47 -1.35,-0.94 -2,-1.4 -0.21,-0.15 -0.42,-0.3 -0.63,-0.45 -0.43,-0.31 -0.85,-0.62 -1.26,-0.92 -0.24,-0.18 -0.47,-0.35 -0.7,-0.53 -0.37,-0.28 -0.74,-0.56 -1.09,-0.83 -0.23,-0.18 -0.47,-0.36 -0.69,-0.54 -0.34,-0.27 -0.68,-0.54 -1.01,-0.8 -0.22,-0.18 -0.44,-0.35 -0.65,-0.53 -0.33,-0.27 -0.65,-0.55 -0.97,-0.82 -0.2,-0.17 -0.39,-0.33 -0.59,-0.5 -0.36,-0.31 -0.7,-0.61 -1.04,-0.92 -0.14,-0.12 -0.28,-0.25 -0.42,-0.37 -0.47,-0.43 -0.92,-0.85 -1.37,-1.27 -0.1,-0.1 -0.2,-0.2 -0.31,-0.3 -0.33,-0.33 -0.67,-0.65 -0.99,-0.98 -0.15,-0.16 -0.3,-0.31 -0.45,-0.47 -0.26,-0.27 -0.52,-0.54 -0.77,-0.81 -0.16,-0.17 -0.31,-0.34 -0.47,-0.51 -0.23,-0.26 -0.46,-0.51 -0.68,-0.77 -0.15,-0.17 -0.3,-0.35 -0.45,-0.52 -0.22,-0.26 -0.43,-0.51 -0.65,-0.77 -0.14,-0.17 -0.28,-0.34 -0.41,-0.5 -0.22,-0.28 -0.43,-0.55 -0.65,-0.83 -0.11,-0.15 -0.23,-0.3 -0.34,-0.45 -0.26,-0.35 -0.52,-0.7 -0.77,-1.05 -0.05,-0.08 -0.11,-0.15 -0.17,-0.23 -0.3,-0.43 -0.59,-0.86 -0.88,-1.29 -0.09,-0.13 -0.17,-0.27 -0.26,-0.4 -0.2,-0.3 -0.39,-0.61 -0.58,-0.91 -0.1,-0.17 -0.2,-0.34 -0.3,-0.5 -0.17,-0.27 -0.33,-0.55 -0.49,-0.83 -0.04,-0.07 -0.09,-0.15 -0.13,-0.22 2.38,32.84 8.63,67.59 23.45,85.9 z"
         id="path14" />
      <path
         class="cls-2"
         d="m 796.32,888.84 c 0,-11 5.06,-21.39 15.05,-30.89 2.21,-2.1 4.65,-4.14 7.31,-6.12 -15.75,1.27 -31.54,4.4 -46.38,10.98 -0.05,0.02 -0.09,0.04 -0.14,0.06 -1.26,0.56 -2.52,1.15 -3.76,1.77 -0.09,0.05 -0.19,0.09 -0.28,0.14 -0.09,0.04 -0.17,0.09 -0.26,0.13 -9.29,4.63 -18.17,10.72 -26.37,18.69 -0.81,0.79 -1.61,1.58 -2.4,2.38 -0.37,0.37 -0.73,0.75 -1.1,1.13 -0.41,0.42 -0.83,0.84 -1.24,1.27 -0.58,0.6 -1.15,1.21 -1.72,1.82 -0.19,0.2 -0.38,0.4 -0.57,0.6 -0.59,0.64 -1.17,1.28 -1.75,1.92 -0.16,0.17 -0.32,0.35 -0.48,0.52 -0.58,0.65 -1.14,1.29 -1.71,1.94 -0.15,0.18 -0.31,0.35 -0.46,0.53 -0.66,0.77 -1.32,1.55 -1.97,2.32 -0.05,0.06 -0.09,0.11 -0.14,0.17 -0.63,0.76 -1.26,1.53 -1.88,2.29 -0.06,0.07 -0.12,0.15 -0.18,0.22 -0.63,0.78 -1.25,1.57 -1.86,2.35 -0.05,0.06 -0.09,0.12 -0.14,0.18 -1.31,1.69 -2.58,3.39 -3.82,5.1 0,0 0,0.01 -0.01,0.02 -7.08,9.78 -13,19.94 -17.95,30.26 l 94.21,5.72 v -55.49 z"
         id="path16" />
      <path
         class="cls-2"
         d="m 1348.38,905.49 c 0,-10.87 4.92,-21.06 14.63,-30.3 7.45,-7.09 17.44,-13.32 29.4,-18.6 -0.81,-0.12 -1.62,-0.24 -2.43,-0.37 -0.73,-0.11 -1.46,-0.23 -2.19,-0.34 -0.99,-0.16 -1.98,-0.32 -2.97,-0.48 -0.74,-0.12 -1.47,-0.25 -2.21,-0.37 -1,-0.17 -2,-0.35 -3,-0.53 -0.74,-0.13 -1.47,-0.26 -2.21,-0.4 -1.02,-0.19 -2.04,-0.39 -3.07,-0.59 -0.72,-0.14 -1.44,-0.28 -2.16,-0.42 -1.07,-0.21 -2.14,-0.44 -3.22,-0.66 -0.68,-0.14 -1.36,-0.28 -2.05,-0.43 -1.18,-0.25 -2.37,-0.52 -3.55,-0.79 -0.58,-0.13 -1.15,-0.25 -1.72,-0.38 -1.76,-0.4 -3.53,-0.82 -5.29,-1.26 -57.27,-14.08 -98.27,-39.04 -121.87,-74.19 -38.11,-56.77 -74.06,-92.98 -97.51,-113.37 -12.22,-10.63 -22.66,-18.38 -30.51,-23.69 2.34,3.9 4.91,8.32 7.54,13.13 1.05,1.92 2.11,3.91 3.16,5.95 4.74,9.19 9.39,19.5 12.91,30.2 3.79,11.56 5.75,22.12 5.87,31.63 0.06,4.76 -0.33,9.26 -1.19,13.49 -0.43,2.12 -0.97,4.17 -1.62,6.15 -2.4,7.27 -6.35,13.65 -11.82,19.11 -16.51,16.45 -50.71,36.45 -93.71,55.11 52.85,3.07 101.9,13.25 138.57,28.8 38.92,16.5 60.35,37.67 60.35,59.61 v 52 c 6.6,-3.4 17.12,-7.87 30.9,-10.63 20.72,-4.15 52.86,-4.99 90.97,13.08 v -50.48 z"
         id="path18" />
      <path
         class="cls-2"
         d="m 730.08,880.86 c 1.46,-1.5 2.94,-2.99 4.44,-4.45 0.67,-0.65 1.35,-1.3 2.04,-1.93 29.26,-27.06 66.13,-33.04 99.7,-33.35 38.12,-19.21 99.8,-30.09 167.59,-28.93 17.64,-7 35.23,-14.76 51.35,-22.86 1.32,-0.66 2.63,-1.33 3.92,-1.99 23.35,-11.99 43.24,-24.62 55.12,-36.45 31.11,-31 -8.58,-95 -21.62,-116.03 -1.12,-1.8 -2.06,-3.31 -2.8,-4.55 -0.25,-0.41 -0.47,-0.8 -0.68,-1.15 -1.08,-1.87 -2.88,-5.01 -0.6,-7.9 0.51,-0.64 1.14,-1.13 1.84,-1.46 1.17,-0.55 2.53,-0.64 3.85,-0.2 5.23,1.74 27.93,14.86 59.04,43.7 2.67,2.47 5.4,5.06 8.18,7.76 0.93,0.9 1.86,1.82 2.8,2.74 1.88,1.86 3.79,3.77 5.71,5.73 0.96,0.98 1.93,1.98 2.91,2.98 1.95,2.02 3.92,4.09 5.91,6.21 1,1.06 2,2.14 3,3.23 2.01,2.18 4.04,4.42 6.09,6.71 17.4,19.49 36.04,43.03 54.91,71.13 33.07,49.27 101.81,72.34 169.75,79.37 30.15,-9.21 68.28,-13.49 108.66,-11.48 6.43,0.32 12.79,0.8 19.06,1.43 -2.92,-18.49 -4.94,-52.6 -5.59,-95.21 -0.72,-47.37 -38.98,-89.7 -39.36,-90.12 l -0.25,-0.29 c -64.62,-82.47 -131.45,-167.75 -218.81,-196.73 -87.23,-28.93 -199.44,-3.32 -308.03,21.6 -8.48,5.64 -16.99,11.27 -25.55,16.94 -43.65,28.9 -88.79,58.79 -135.19,92.69 -55.75,40.73 -116.11,88.3 -174.49,134.31 -47.78,37.93 -97.19,77.15 -124.26,111.8 -24.82,31.76 -30.73,61.64 -36.21,90.54 l 218.76,13.29 c 9.81,-21.42 22.81,-40.54 38.82,-57.09 z"
         id="path20" />
      <path
         class="cls-2"
         d="m 498.36,936.25 c 12.08,8.11 24.35,22.57 33.18,34.33 1.67,2.22 3.22,4.35 4.62,6.32 35.86,19.39 52.36,60.97 65.64,94.44 6.08,15.31 11.32,28.53 17.26,36.74 3.09,4.27 8.97,8.52 16.13,12.5 13.68,7.59 32.04,14.19 44.6,18.1 -2.04,-8.02 -4.96,-21.08 -7.27,-37.58 -0.54,-3.88 -1.05,-7.95 -1.51,-12.19 -1.25,-11.66 -2.1,-24.6 -2.13,-38.39 -0.07,-31.88 4.28,-61.59 12.95,-88.3 1.6,-4.94 3.37,-9.76 5.27,-14.49 L 498.37,936.26 Z"
         id="path22" />
      <path
         class="cls-1"
         d="m 491.98,1212.73 c 0.15,0.17 0.3,0.35 0.45,0.52 -0.15,-0.17 -0.3,-0.35 -0.45,-0.52 z"
         id="path24" />
      <path
         class="cls-1"
         d="m 493.11,1214.02 c 0.15,0.17 0.31,0.34 0.47,0.51 -0.16,-0.17 -0.31,-0.34 -0.47,-0.51 z"
         id="path26" />
      <polygon
         class="cls-1"
         points="556.5,1380.85 547.16,1412.03 "
         id="polygon28" />
      <path
         class="cls-1"
         d="m 490.92,1211.45 c 0.13,0.17 0.27,0.34 0.41,0.5 -0.14,-0.17 -0.28,-0.34 -0.41,-0.5 z"
         id="path30" />
      <path
         class="cls-1"
         d="m 495.78,1216.78 c 0.1,0.1 0.2,0.2 0.31,0.3 -0.1,-0.1 -0.2,-0.2 -0.31,-0.3 z"
         id="path32" />
      <path
         class="cls-1"
         d="m 486.98,1205.8 c 0.1,0.17 0.2,0.34 0.3,0.5 -0.1,-0.17 -0.2,-0.34 -0.3,-0.5 z"
         id="path34" />
      <path
         class="cls-1"
         d="m 489.93,1210.18 c 0.11,0.15 0.23,0.3 0.34,0.45 -0.11,-0.15 -0.23,-0.3 -0.34,-0.45 z"
         id="path36" />
      <path
         class="cls-1"
         d="m 498.91,1219.64 c 0.19,0.17 0.39,0.33 0.59,0.5 -0.2,-0.17 -0.39,-0.33 -0.59,-0.5 z"
         id="path38" />
      <path
         class="cls-1"
         d="m 509.82,1290.65 c -14.82,-18.31 -21.07,-53.06 -23.45,-85.9 0.04,0.07 0.09,0.15 0.13,0.22 -3.27,-5.64 -5.51,-11.79 -8.28,-19.41 -0.84,-2.32 -1.75,-4.8 -2.75,-7.48 -0.1,-0.27 -0.2,-0.53 -0.3,-0.8 0.71,40.53 5.98,93.83 26.88,119.65 24.71,30.53 30.87,66.54 34.55,88.07 1.22,7.15 2.14,12.43 3.44,15.96 l 6,-20.05 c -3.9,-22.7 -10.78,-58.85 -36.22,-90.27 z"
         id="path40" />
      <path
         class="cls-1"
         d="m 489,1208.9 c 0.05,0.08 0.11,0.15 0.17,0.23 -0.05,-0.08 -0.11,-0.15 -0.17,-0.23 z"
         id="path42" />
      <path
         class="cls-1"
         d="m 487.87,1207.21 c 0.09,0.13 0.17,0.27 0.26,0.4 -0.09,-0.13 -0.17,-0.27 -0.26,-0.4 z"
         id="path44" />
      <path
         class="cls-1"
         d="m 497.45,1218.35 c 0.14,0.12 0.28,0.25 0.42,0.37 -0.14,-0.12 -0.28,-0.25 -0.42,-0.37 z"
         id="path46" />
      <path
         class="cls-1"
         d="m 474.78,1153.58 v 0 c 2.8,4.27 5.32,8.94 7.36,14.06 0.87,2.18 1.75,4.45 2.68,6.92 0.34,0.91 0.67,1.8 0.99,2.67 -0.32,-0.87 -0.65,-1.76 -0.99,-2.67 z"
         id="path48" />
      <path
         class="cls-1"
         d="m 502.13,1222.29 c 0.23,0.18 0.46,0.36 0.69,0.54 -0.23,-0.18 -0.47,-0.36 -0.69,-0.54 z"
         id="path50" />
      <path
         class="cls-1"
         d="m 503.91,1223.67 c 0.23,0.18 0.46,0.35 0.7,0.53 -0.24,-0.18 -0.47,-0.35 -0.7,-0.53 z"
         id="path52" />
      <path
         class="cls-1"
         d="m 505.88,1225.11 c 0.21,0.15 0.41,0.3 0.63,0.45 -0.21,-0.15 -0.42,-0.3 -0.63,-0.45 z"
         id="path54" />
      <path
         class="cls-1"
         d="m 494.79,1215.8 c -0.15,-0.16 -0.3,-0.31 -0.45,-0.47 0.15,0.16 0.3,0.31 0.45,0.47 z"
         id="path56" />
      <path
         class="cls-1"
         d="m 500.47,1220.96 c 0.21,0.18 0.43,0.35 0.65,0.53 -0.22,-0.18 -0.44,-0.35 -0.65,-0.53 z"
         id="path58" />
      <path
         class="cls-1"
         d="m 472.21,937.07 c 0.43,0.12 0.87,0.24 1.29,0.36 -0.42,-0.12 -0.86,-0.24 -1.29,-0.36 z"
         id="path60" />
      <path
         class="cls-1"
         d="m 1389.97,856.23 c -0.73,-0.11 -1.46,-0.23 -2.19,-0.34 0.73,0.12 1.46,0.23 2.19,0.34 z"
         id="path62" />
      <path
         class="cls-1"
         d="m 686.33,983.59 c 0.17,-0.71 0.34,-1.43 0.52,-2.15 -0.18,0.72 -0.35,1.43 -0.52,2.15 z"
         id="path64" />
      <path
         class="cls-1"
         d="m 469.73,936.37 c 0.4,0.11 0.8,0.23 1.19,0.34 -0.39,-0.11 -0.79,-0.22 -1.19,-0.34 z"
         id="path66" />
      <path
         class="cls-1"
         d="m 1384.82,855.4 c -0.74,-0.12 -1.47,-0.25 -2.21,-0.37 0.74,0.13 1.47,0.25 2.21,0.37 z"
         id="path68" />
      <path
         class="cls-1"
         d="m 686.99,980.91 c 0.18,-0.73 0.37,-1.47 0.56,-2.2 -0.19,0.73 -0.38,1.47 -0.56,2.2 z"
         id="path70" />
      <path
         class="cls-1"
         d="m 1379.61,854.5 c -0.74,-0.13 -1.47,-0.26 -2.21,-0.4 0.74,0.14 1.48,0.27 2.21,0.4 z"
         id="path72" />
      <path
         class="cls-1"
         d="m 679.79,1138.67 c 0,0 0,0 0,0 -12.56,-3.92 -30.92,-10.52 -44.6,-18.1 13.68,7.59 32.04,14.19 44.6,18.1 z"
         id="path74" />
      <path
         class="cls-1"
         d="m 685.72,986.22 c 0.15,-0.68 0.31,-1.36 0.47,-2.04 -0.16,0.68 -0.32,1.36 -0.47,2.04 z"
         id="path76" />
      <path
         class="cls-1"
         d="m 689.12,972.96 c 0.24,-0.83 0.48,-1.66 0.73,-2.49 -0.25,0.83 -0.49,1.66 -0.73,2.49 z"
         id="path78" />
      <path
         class="cls-1"
         d="m 1374.33,853.51 c -0.72,-0.14 -1.44,-0.28 -2.16,-0.42 0.72,0.14 1.44,0.28 2.16,0.42 z"
         id="path80" />
      <path
         class="cls-1"
         d="m 536.15,976.89 c -1.4,-1.97 -2.95,-4.09 -4.62,-6.32 1.67,2.22 3.22,4.35 4.62,6.32 z"
         id="path82" />
      <path
         class="cls-1"
         d="m 687.66,978.29 c 0.2,-0.77 0.41,-1.55 0.62,-2.33 -0.21,0.78 -0.42,1.55 -0.62,2.33 z"
         id="path84" />
      <path
         class="cls-1"
         d="m 689.92,970.24 c 0.25,-0.85 0.51,-1.69 0.78,-2.54 -0.26,0.85 -0.52,1.69 -0.78,2.54 z"
         id="path86" />
      <path
         class="cls-1"
         d="m 691.25,937.95 v 0 c 9.81,-21.42 22.81,-40.54 38.82,-57.09 -16.01,16.55 -29.01,35.67 -38.82,57.09 z"
         id="path88" />
      <path
         class="cls-1"
         d="m 688.38,975.63 c 0.22,-0.8 0.44,-1.61 0.68,-2.41 -0.23,0.8 -0.45,1.61 -0.68,2.41 z"
         id="path90" />
      <path
         class="cls-1"
         d="m 725.89,900.7 c -0.63,0.78 -1.25,1.57 -1.86,2.35 0.61,-0.79 1.23,-1.57 1.86,-2.35 z"
         id="path92" />
      <path
         class="cls-1"
         d="m 723.89,903.23 c -1.31,1.69 -2.58,3.39 -3.82,5.1 1.24,-1.71 2.51,-3.41 3.82,-5.1 z"
         id="path94" />
      <path
         class="cls-1"
         d="m 727.95,898.19 c -0.63,0.76 -1.26,1.53 -1.88,2.29 0.62,-0.77 1.24,-1.53 1.88,-2.29 z"
         id="path96" />
      <path
         class="cls-1"
         d="m 737.98,887.09 c 0.37,-0.38 0.73,-0.75 1.1,-1.13 -0.37,0.37 -0.73,0.75 -1.1,1.13 z"
         id="path98" />
      <path
         class="cls-1"
         d="m 1135.93,719.24 c -0.12,-9.52 -2.08,-20.07 -5.87,-31.63 -3.51,-10.7 -8.17,-21.01 -12.91,-30.2 4.74,9.19 9.39,19.5 12.91,30.2 3.79,11.56 5.75,22.12 5.87,31.63 z"
         id="path100" />
      <path
         class="cls-1"
         d="m 730.06,895.7 c -0.67,0.77 -1.32,1.55 -1.97,2.32 0.65,-0.78 1.3,-1.55 1.97,-2.32 z"
         id="path102" />
      <path
         class="cls-1"
         d="m 702.11,938.61 v 0 c 4.95,-10.32 10.87,-20.48 17.95,-30.26 -7.08,9.78 -13,19.94 -17.95,30.26 z"
         id="path104" />
      <path
         class="cls-1"
         d="m 1092.61,634.87 c -1.12,-1.8 -2.06,-3.31 -2.8,-4.55 0.74,1.24 1.68,2.76 2.8,4.55 13.04,21.03 52.74,85.04 21.62,116.03 -11.88,11.83 -31.77,24.46 -55.12,36.45 23.35,-11.99 43.25,-24.62 55.12,-36.45 31.11,-31 -8.58,-95 -21.62,-116.03 z"
         id="path106" />
      <path
         class="cls-1"
         d="m 732.23,893.23 c -0.58,0.65 -1.14,1.29 -1.71,1.94 0.56,-0.65 1.13,-1.3 1.71,-1.94 z"
         id="path108" />
      <path
         class="cls-1"
         d="m 768.4,864.63 c -0.09,0.05 -0.19,0.09 -0.28,0.14 0.09,-0.05 0.19,-0.09 0.28,-0.14 z"
         id="path110" />
      <path
         class="cls-1"
         d="m 767.86,864.9 c -9.29,4.63 -18.17,10.72 -26.37,18.69 8.2,-7.97 17.08,-14.06 26.37,-18.69 z"
         id="path112" />
      <path
         class="cls-1"
         d="m 772.3,862.8 c 0,0 -0.09,0.04 -0.14,0.06 0.05,-0.02 0.09,-0.04 0.14,-0.06 z"
         id="path114" />
      <path
         class="cls-1"
         d="m 1368.95,852.43 c -0.68,-0.14 -1.36,-0.28 -2.05,-0.43 0.68,0.15 1.36,0.28 2.05,0.43 z"
         id="path116" />
      <path
         class="cls-1"
         d="m 1113.99,651.45 c 1.05,1.92 2.11,3.91 3.16,5.95 -1.05,-2.04 -2.11,-4.03 -3.16,-5.95 z"
         id="path118" />
      <path
         class="cls-1"
         d="m 734.45,890.78 c -0.59,0.64 -1.17,1.28 -1.75,1.92 0.58,-0.64 1.16,-1.29 1.75,-1.92 z"
         id="path120" />
      <path
         class="cls-1"
         d="m 736.74,888.36 c -0.58,0.6 -1.15,1.21 -1.72,1.82 0.57,-0.61 1.14,-1.22 1.72,-1.82 z"
         id="path122" />
      <path
         class="cls-1"
         d="m 467.11,935.63 c 0.36,0.1 0.72,0.21 1.08,0.31 -0.36,-0.1 -0.72,-0.2 -1.08,-0.31 z"
         id="path124" />
      <path
         class="cls-1"
         d="m 1363.36,851.21 c -0.58,-0.13 -1.15,-0.25 -1.72,-0.38 0.58,0.13 1.15,0.26 1.72,0.38 z"
         id="path126" />
      <path
         class="cls-1"
         d="m 678.92,1044.4 c 0,-0.31 0,-0.62 0.02,-0.93 0,0.31 -0.01,0.62 -0.02,0.93 z"
         id="path128" />
      <path
         class="cls-1"
         d="m 679.04,1039.63 c 0,-0.3 0.02,-0.6 0.03,-0.91 -0.01,0.3 -0.02,0.6 -0.03,0.91 z"
         id="path130" />
      <path
         class="cls-1"
         d="m 678.97,1042.01 c 0,-0.3 0.01,-0.6 0.02,-0.9 0,0.3 -0.01,0.6 -0.02,0.9 z"
         id="path132" />
      <path
         class="cls-1"
         d="m 678.89,1046.8 c 0,-0.34 0,-0.67 0,-1.01 0,0.34 0,0.67 0,1.01 z"
         id="path134" />
      <path
         class="cls-1"
         d="m 679.12,1037.22 c 0.01,-0.3 0.02,-0.6 0.04,-0.91 -0.01,0.3 -0.02,0.6 -0.04,0.91 z"
         id="path136" />
      <path
         class="cls-1"
         d="m 679.36,1032.32 c 0.02,-0.3 0.03,-0.6 0.05,-0.9 -0.02,0.3 -0.03,0.6 -0.05,0.9 z"
         id="path138" />
      <path
         class="cls-1"
         d="m 679.51,1029.8 c 0.02,-0.28 0.03,-0.56 0.05,-0.84 -0.02,0.28 -0.04,0.56 -0.05,0.84 z"
         id="path140" />
      <path
         class="cls-1"
         d="m 678.88,1049.19 c 0,-0.37 0,-0.74 0,-1.11 0,0.37 0,0.74 0,1.11 z"
         id="path142" />
      <path
         class="cls-1"
         d="m 679.23,1034.76 c 0.01,-0.29 0.03,-0.58 0.04,-0.87 -0.01,0.29 -0.03,0.58 -0.04,0.87 z"
         id="path144" />
      <path
         class="cls-1"
         d="m 685.13,988.85 c 0.14,-0.65 0.28,-1.3 0.43,-1.94 -0.15,0.65 -0.29,1.3 -0.43,1.94 z"
         id="path146" />
      <path
         class="cls-1"
         d="m 479.02,938.95 c 0.45,0.12 0.9,0.25 1.34,0.36 -0.43,-0.12 -0.89,-0.24 -1.34,-0.36 z"
         id="path148" />
      <path
         class="cls-1"
         d="m 481.21,939.54 c 0.39,0.1 0.78,0.21 1.15,0.31 -0.37,-0.1 -0.77,-0.2 -1.15,-0.31 z"
         id="path150" />
      <path
         class="cls-1"
         d="m 476.85,938.35 c 0.46,0.13 0.92,0.25 1.37,0.38 -0.44,-0.12 -0.91,-0.25 -1.37,-0.38 z"
         id="path152" />
      <path
         class="cls-1"
         d="m 679.02,1059.41 c -0.02,-0.6 -0.03,-1.19 -0.05,-1.79 0.01,0.6 0.03,1.2 0.05,1.79 z"
         id="path154" />
      <path
         class="cls-1"
         d="m 678.91,1054.2 c 0,-0.47 -0.01,-0.94 -0.02,-1.41 0,0.47 0.01,0.94 0.02,1.41 z"
         id="path156" />
      <path
         class="cls-1"
         d="m 678.88,1050.49 c 0,0.4 0,0.79 0,1.19 0,-0.45 0,-0.89 0,-1.34 0,0.05 0,0.1 0,0.15 z"
         id="path158" />
      <path
         class="cls-1"
         d="m 678.95,1056.8 c -0.01,-0.52 -0.02,-1.05 -0.03,-1.58 0,0.53 0.02,1.05 0.03,1.58 z"
         id="path160" />
      <path
         class="cls-1"
         d="m 679.11,1062.21 c -0.03,-0.73 -0.05,-1.47 -0.07,-2.21 0.02,0.74 0.05,1.48 0.07,2.21 z"
         id="path162" />
      <path
         class="cls-1"
         d="m 682.65,1001.93 c 0.08,-0.5 0.16,-1.01 0.25,-1.51 -0.09,0.51 -0.17,1.01 -0.25,1.51 z"
         id="path164" />
      <path
         class="cls-1"
         d="m 679.68,1027.32 c 0.02,-0.29 0.04,-0.58 0.06,-0.87 -0.02,0.29 -0.04,0.58 -0.06,0.87 z"
         id="path166" />
      <path
         class="cls-1"
         d="m 681.86,1007.1 c 0.06,-0.45 0.13,-0.9 0.19,-1.35 -0.07,0.45 -0.13,0.9 -0.19,1.35 z"
         id="path168" />
      <path
         class="cls-1"
         d="m 683.09,999.34 c 0.09,-0.53 0.18,-1.07 0.28,-1.6 -0.1,0.53 -0.19,1.07 -0.28,1.6 z"
         id="path170" />
      <path
         class="cls-1"
         d="m 682.24,1004.51 c 0.07,-0.47 0.14,-0.94 0.22,-1.41 -0.08,0.47 -0.15,0.94 -0.22,1.41 z"
         id="path172" />
      <path
         class="cls-1"
         d="m 684.57,991.54 c 0.13,-0.64 0.26,-1.27 0.4,-1.91 -0.14,0.64 -0.27,1.27 -0.4,1.91 z"
         id="path174" />
      <path
         class="cls-1"
         d="m 683.56,996.73 c 0.1,-0.56 0.21,-1.12 0.31,-1.69 -0.11,0.56 -0.21,1.13 -0.31,1.69 z"
         id="path176" />
      <path
         class="cls-1"
         d="m 684.04,994.18 c 0.12,-0.61 0.24,-1.23 0.36,-1.84 -0.12,0.61 -0.24,1.23 -0.36,1.84 z"
         id="path178" />
      <path
         class="cls-1"
         d="m 474.58,937.73 c 0.45,0.13 0.91,0.25 1.34,0.37 -0.44,-0.12 -0.89,-0.25 -1.34,-0.37 z"
         id="path180" />
      <path
         class="cls-1"
         d="m 680.08,1022.34 c 0.03,-0.32 0.06,-0.63 0.08,-0.95 -0.03,0.32 -0.06,0.64 -0.08,0.95 z"
         id="path182" />
      <path
         class="cls-1"
         d="m 679.87,1024.88 c 0.03,-0.32 0.05,-0.63 0.08,-0.95 -0.03,0.32 -0.05,0.64 -0.08,0.95 z"
         id="path184" />
      <path
         class="cls-1"
         d="m 680.32,1019.82 c 0.03,-0.33 0.06,-0.67 0.1,-1 -0.03,0.34 -0.07,0.67 -0.1,1 z"
         id="path186" />
      <path
         class="cls-1"
         d="m 681.17,1012.17 c 0.05,-0.38 0.09,-0.76 0.14,-1.14 -0.05,0.38 -0.1,0.76 -0.14,1.14 z"
         id="path188" />
      <path
         class="cls-1"
         d="m 680.58,1017.29 c 0.04,-0.35 0.07,-0.7 0.11,-1.05 -0.04,0.35 -0.07,0.7 -0.11,1.05 z"
         id="path190" />
      <path
         class="cls-1"
         d="m 681.51,1009.63 c 0.06,-0.41 0.11,-0.82 0.17,-1.24 -0.06,0.41 -0.11,0.82 -0.17,1.24 z"
         id="path192" />
      <path
         class="cls-1"
         d="m 680.86,1014.74 c 0.04,-0.36 0.08,-0.73 0.13,-1.09 -0.04,0.37 -0.08,0.73 -0.13,1.09 z"
         id="path194" />
      <path
         class="cls-1"
         d="m 734.52,876.41 c 0.67,-0.65 1.35,-1.3 2.04,-1.93 -0.68,0.63 -1.36,1.27 -2.04,1.93 z"
         id="path196" />
      <path
         class="cls-1"
         d="m 679.11,1062.34 c 1.75,46.81 12.54,81.79 12.66,82.17 l 0.08,0.24 -0.08,-0.24 c -0.12,-0.38 -10.91,-35.43 -12.66,-82.17 z"
         id="path198" />
      <path
         class="cls-1"
         d="m 592.5,1075.02 c -10.4,-26.22 -22.88,-57.64 -45.06,-77.84 22.18,20.2 34.65,51.63 45.06,77.84 z"
         id="path200" />
      <path
         class="cls-1"
         d="m 463.3,924.1 9.19,0.56 c 5.48,-28.9 11.4,-58.78 36.21,-90.54 27.07,-34.65 76.49,-73.88 124.26,-111.8 58.38,-46.01 118.74,-93.58 174.49,-134.31 46.4,-33.9 91.54,-63.79 135.19,-92.69 8.55,-5.66 17.07,-11.3 25.55,-16.94 108.59,-24.92 220.8,-50.53 308.03,-21.6 87.37,28.98 154.19,114.25 218.81,196.73 l 0.25,0.29 c 0.39,0.42 38.65,42.75 39.36,90.12 0.65,42.61 2.66,76.71 5.59,95.21 3.48,0.35 6.92,0.75 10.34,1.19 -3.06,-16.91 -5.26,-52.68 -5.93,-96.55 -0.76,-50.26 -38.82,-93.24 -41.86,-96.58 -65.5,-83.59 -133.24,-169.99 -223.42,-199.9 -90.12,-29.89 -204.09,-3.74 -314.3,21.55 l -0.89,0.2 -0.76,0.51 c -8.72,5.8 -17.48,11.6 -26.29,17.43 -43.75,28.96 -88.98,58.92 -135.57,92.95 -55.91,40.84 -116.34,88.47 -174.8,134.55 -48.25,38.3 -98.14,77.9 -125.94,113.49 -26.64,34.09 -32.61,65.56 -38.38,95.98 -0.11,0.59 -0.22,1.17 -0.33,1.76 0.37,-0.04 0.73,-0.09 1.1,-0.14 l 0.09,-1.47 z"
         id="path202" />
      <path
         class="cls-1"
         d="m 681.82,962.21 c 1.6,-4.94 3.37,-9.76 5.27,-14.49 v 0 c -1.9,4.73 -3.66,9.55 -5.27,14.49 z"
         id="path204" />
      <path
         class="cls-1"
         d="m 697.74,948.36 c -2.68,6.4 -5,12.84 -7.01,19.27 2.01,-6.43 4.34,-12.87 7.01,-19.27 z"
         id="path206" />
      <path
         class="cls-1"
         d="m 498.36,936.25 v 0 c 12.08,8.11 24.35,22.57 33.18,34.33 -8.83,-11.75 -21.09,-26.21 -33.18,-34.33 z"
         id="path208" />
      <path
         class="cls-1"
         d="m 472.12,926.65 c 0.24,0.07 0.48,0.14 0.71,0.2 0.28,0.08 0.55,0.15 0.82,0.23 0.58,0.16 1.15,0.32 1.71,0.48 0.23,0.06 0.46,0.13 0.68,0.19 0.77,0.21 1.52,0.42 2.25,0.63 0.06,0.02 0.11,0.03 0.17,0.05 0.66,0.18 1.3,0.36 1.93,0.53 0.24,0.07 0.48,0.13 0.72,0.2 0.44,0.12 0.88,0.24 1.31,0.35 0.25,0.07 0.51,0.14 0.75,0.2 0.42,0.11 0.82,0.22 1.22,0.33 0.21,0.06 0.43,0.11 0.64,0.17 0.6,0.16 1.18,0.31 1.73,0.46 0.55,0.14 1.1,0.31 1.65,0.49 3.25,1.08 6.59,2.84 9.94,5.1 l 188.73,11.47 c 1.32,-3.3 2.7,-6.57 4.17,-9.77 L 472.49,924.67 c -0.07,0.38 -0.15,0.77 -0.22,1.15 -0.05,0.28 -0.11,0.56 -0.16,0.84 z"
         id="path210" />
      <path
         class="cls-1"
         d="m 702.11,938.61 c -1.55,3.24 -3.01,6.49 -4.38,9.75 l 98.58,5.99 v -10.02 l -94.21,-5.72 z"
         id="path212" />
      <path
         class="cls-1"
         d="m 488.42,931.15 c 3.25,1.08 6.59,2.84 9.94,5.1 v 0 c -3.35,-2.25 -6.69,-4.02 -9.94,-5.1 z"
         id="path214" />
      <path
         class="cls-1"
         d="m 478.46,928.42 c -0.06,-0.02 -0.11,-0.03 -0.17,-0.05 0.06,0.02 0.11,0.03 0.17,0.05 z"
         id="path216" />
      <path
         class="cls-1"
         d="m 466.71,925.11 1.01,0.29 c 1.52,0.44 2.98,0.85 4.39,1.25 0.05,-0.28 0.11,-0.56 0.16,-0.84 0.07,-0.38 0.15,-0.77 0.22,-1.15 l -9.19,-0.56 -0.09,1.47 c 0.82,-0.1 1.65,-0.2 2.46,-0.31 l 1.04,-0.14 z"
         id="path218" />
      <path
         class="cls-1"
         d="m 473.65,927.08 c -0.27,-0.08 -0.55,-0.15 -0.82,-0.23 0.28,0.08 0.55,0.15 0.82,0.23 z"
         id="path220" />
      <path
         class="cls-1"
         d="m 481.11,929.15 c -0.24,-0.07 -0.47,-0.13 -0.72,-0.2 0.24,0.07 0.48,0.13 0.72,0.2 z"
         id="path222" />
      <path
         class="cls-1"
         d="m 483.17,929.71 c -0.25,-0.07 -0.5,-0.13 -0.75,-0.2 0.25,0.07 0.5,0.14 0.75,0.2 z"
         id="path224" />
      <path
         class="cls-1"
         d="m 476.03,927.75 c -0.22,-0.06 -0.45,-0.13 -0.68,-0.19 0.23,0.06 0.46,0.13 0.68,0.19 z"
         id="path226" />
      <path
         class="cls-1"
         d="m 702.11,938.61 v 0 c -1.55,3.24 -3.01,6.49 -4.37,9.75 v 0 c 1.36,-3.26 2.82,-6.52 4.38,-9.75 z"
         id="path228" />
      <path
         class="cls-1"
         d="m 485.03,930.21 c -0.21,-0.06 -0.43,-0.11 -0.64,-0.17 0.21,0.06 0.43,0.11 0.64,0.17 z"
         id="path230" />
      <path
         class="cls-1"
         d="m 691.25,937.95 c -1.47,3.2 -2.84,6.46 -4.17,9.77 v 0 c 1.32,-3.3 2.7,-6.57 4.17,-9.77 z"
         id="path232" />
      <path
         class="cls-1"
         d="m 680.69,1016.24 c 0.06,-0.5 0.12,-1 0.17,-1.51 -0.06,0.5 -0.12,1.01 -0.17,1.51 z"
         id="path234" />
      <path
         class="cls-1"
         d="m 680.17,1021.39 c 0.05,-0.52 0.1,-1.04 0.15,-1.56 -0.05,0.52 -0.1,1.04 -0.15,1.56 z"
         id="path236" />
      <path
         class="cls-1"
         d="m 679.94,1023.92 c 0.04,-0.53 0.09,-1.05 0.14,-1.58 -0.05,0.53 -0.1,1.06 -0.14,1.58 z"
         id="path238" />
      <path
         class="cls-1"
         d="m 1382.61,855.03 c -1,-0.17 -2,-0.35 -3,-0.53 1,0.18 2,0.36 3,0.53 z"
         id="path240" />
      <path
         class="cls-1"
         d="m 1387.79,855.88 c -0.99,-0.16 -1.98,-0.32 -2.97,-0.48 0.99,0.16 1.98,0.33 2.97,0.48 z"
         id="path242" />
      <path
         class="cls-1"
         d="m 680.42,1018.82 c 0.05,-0.51 0.11,-1.02 0.16,-1.53 -0.05,0.51 -0.11,1.02 -0.16,1.53 z"
         id="path244" />
      <path
         class="cls-1"
         d="m 768.11,864.77 c -0.09,0.04 -0.17,0.09 -0.26,0.13 0.09,-0.04 0.17,-0.09 0.26,-0.13 z"
         id="path246" />
      <path
         class="cls-1"
         d="m 1377.4,854.1 c -1.02,-0.19 -2.04,-0.39 -3.07,-0.59 1.02,0.2 2.05,0.4 3.07,0.59 z"
         id="path248" />
      <path
         class="cls-1"
         d="m 772.16,862.87 c -1.26,0.56 -2.52,1.15 -3.76,1.77 1.25,-0.61 2.5,-1.2 3.76,-1.77 z"
         id="path250" />
      <path
         class="cls-1"
         d="m 679.74,1026.45 c 0.04,-0.52 0.08,-1.05 0.12,-1.57 -0.04,0.52 -0.09,1.05 -0.12,1.57 z"
         id="path252" />
      <path
         class="cls-1"
         d="m 735.02,890.18 c -0.19,0.2 -0.38,0.4 -0.57,0.6 0.19,-0.2 0.38,-0.4 0.57,-0.6 z"
         id="path254" />
      <path
         class="cls-1"
         d="m 737.98,887.09 c -0.41,0.42 -0.83,0.84 -1.24,1.27 0.41,-0.42 0.83,-0.85 1.24,-1.27 z"
         id="path256" />
      <path
         class="cls-1"
         d="m 1134.74,732.72 c -0.43,2.12 -0.97,4.17 -1.62,6.15 0.66,-1.98 1.2,-4.03 1.62,-6.15 z"
         id="path258" />
      <path
         class="cls-1"
         d="m 1372.17,853.09 c -1.07,-0.21 -2.14,-0.44 -3.22,-0.66 1.07,0.22 2.15,0.45 3.22,0.66 z"
         id="path260" />
      <path
         class="cls-1"
         d="m 1366.91,852 c -1.18,-0.25 -2.37,-0.52 -3.55,-0.79 1.18,0.27 2.37,0.53 3.55,0.79 z"
         id="path262" />
      <path
         class="cls-1"
         d="m 1361.63,850.83 c -1.76,-0.4 -3.53,-0.82 -5.29,-1.26 1.77,0.43 3.53,0.85 5.29,1.26 z"
         id="path264" />
      <path
         class="cls-1"
         d="m 1135.93,719.24 c 0.06,4.76 -0.33,9.26 -1.19,13.49 0.85,-4.23 1.25,-8.73 1.19,-13.49 z"
         id="path266" />
      <path
         class="cls-1"
         d="m 682.9,1000.42 c 0.06,-0.36 0.13,-0.72 0.19,-1.08 -0.06,0.36 -0.13,0.72 -0.19,1.08 z"
         id="path268" />
      <path
         class="cls-1"
         d="m 685.56,986.91 c 0.05,-0.23 0.11,-0.46 0.16,-0.69 -0.05,0.23 -0.11,0.46 -0.16,0.69 z"
         id="path270" />
      <path
         class="cls-1"
         d="m 686.85,981.45 c 0.04,-0.18 0.09,-0.36 0.14,-0.54 -0.05,0.18 -0.09,0.36 -0.14,0.54 z"
         id="path272" />
      <path
         class="cls-1"
         d="m 686.19,984.18 c 0.05,-0.19 0.09,-0.39 0.14,-0.58 -0.05,0.19 -0.1,0.39 -0.14,0.58 z"
         id="path274" />
      <path
         class="cls-1"
         d="m 687.55,978.71 c 0.04,-0.14 0.07,-0.28 0.11,-0.42 -0.04,0.14 -0.08,0.28 -0.11,0.42 z"
         id="path276" />
      <path
         class="cls-1"
         d="m 688.28,975.96 c 0.03,-0.11 0.06,-0.22 0.09,-0.34 -0.03,0.11 -0.06,0.22 -0.09,0.34 z"
         id="path278" />
      <path
         class="cls-1"
         d="m 684.96,989.63 c 0.06,-0.26 0.11,-0.52 0.17,-0.78 -0.06,0.26 -0.11,0.52 -0.17,0.78 z"
         id="path280" />
      <path
         class="cls-1"
         d="m 683.37,997.74 c 0.06,-0.34 0.13,-0.67 0.19,-1.01 -0.06,0.34 -0.13,0.68 -0.19,1.01 z"
         id="path282" />
      <polygon
         class="cls-1"
         points="694.5,1153.22 691.85,1144.75 694.49,1153.21 685.69,1150.83 "
         id="polygon284" />
      <path
         class="cls-1"
         d="m 683.87,995.04 c 0.05,-0.29 0.11,-0.58 0.17,-0.86 -0.06,0.29 -0.11,0.58 -0.17,0.86 z"
         id="path286" />
      <path
         class="cls-1"
         d="m 689.85,970.46 c 0.02,-0.07 0.05,-0.15 0.07,-0.22 -0.02,0.07 -0.05,0.15 -0.07,0.22 z"
         id="path288" />
      <path
         class="cls-1"
         d="m 684.4,992.34 c 0.05,-0.27 0.11,-0.53 0.17,-0.8 -0.05,0.27 -0.11,0.53 -0.17,0.8 z"
         id="path290" />
      <path
         class="cls-1"
         d="m 681.67,1008.4 c 0.06,-0.43 0.12,-0.87 0.19,-1.3 -0.06,0.43 -0.13,0.87 -0.19,1.3 z"
         id="path292" />
      <path
         class="cls-1"
         d="m 682.46,1003.1 c 0.06,-0.39 0.13,-0.78 0.19,-1.16 -0.06,0.39 -0.13,0.78 -0.19,1.16 z"
         id="path294" />
      <path
         class="cls-1"
         d="m 690.7,967.71 c 0,0 0.02,-0.05 0.02,-0.07 0,0.02 -0.02,0.05 -0.02,0.07 z"
         id="path296" />
      <path
         class="cls-1"
         d="m 682.05,1005.75 c 0.06,-0.41 0.13,-0.83 0.19,-1.24 -0.06,0.41 -0.13,0.83 -0.19,1.24 z"
         id="path298" />
      <path
         class="cls-1"
         d="m 680.99,1013.64 c 0.06,-0.49 0.12,-0.98 0.18,-1.47 -0.06,0.49 -0.12,0.98 -0.18,1.47 z"
         id="path300" />
      <path
         class="cls-1"
         d="m 681.32,1011.03 c 0.06,-0.46 0.12,-0.93 0.19,-1.4 -0.06,0.47 -0.13,0.93 -0.19,1.4 z"
         id="path302" />
      <path
         class="cls-1"
         d="m 1181.78,691.97 c 2.01,2.18 4.04,4.42 6.09,6.71 -2.05,-2.29 -4.08,-4.53 -6.09,-6.71 z"
         id="path304" />
      <path
         class="cls-1"
         d="m 679.79,1138.67 c -2.04,-8.02 -4.96,-21.08 -7.28,-37.58 2.31,16.5 5.24,29.56 7.27,37.58 0,0 0,0 0,0 z"
         id="path306" />
      <path
         class="cls-1"
         d="m 671.01,1088.9 c 0.46,4.24 0.97,8.31 1.51,12.19 -0.54,-3.88 -1.05,-7.95 -1.51,-12.19 z"
         id="path308" />
      <path
         class="cls-1"
         d="m 1153.26,663.3 c 2.67,2.47 5.4,5.06 8.18,7.76 -2.78,-2.71 -5.51,-5.29 -8.18,-7.76 z"
         id="path310" />
      <path
         class="cls-1"
         d="m 732.7,892.71 c -0.16,0.17 -0.32,0.35 -0.48,0.52 0.16,-0.17 0.32,-0.35 0.48,-0.52 z"
         id="path312" />
      <path
         class="cls-1"
         d="m 1172.87,682.52 c 1.95,2.02 3.92,4.09 5.91,6.21 -1.99,-2.13 -3.96,-4.2 -5.91,-6.21 z"
         id="path314" />
      <path
         class="cls-1"
         d="m 689.05,973.21 c 0.02,-0.08 0.05,-0.17 0.07,-0.25 -0.02,0.08 -0.05,0.17 -0.07,0.25 z"
         id="path316" />
      <path
         class="cls-1"
         d="m 496.08,1217.08 c 0.44,0.42 0.9,0.85 1.37,1.27 -0.47,-0.43 -0.92,-0.85 -1.37,-1.27 z"
         id="path318" />
      <path
         class="cls-1"
         d="m 1169.96,679.54 c -1.93,-1.96 -3.83,-3.87 -5.71,-5.73 1.88,1.86 3.79,3.77 5.71,5.73 z"
         id="path320" />
      <path
         class="cls-1"
         d="m 1094.23,619.61 c 5.23,1.74 27.93,14.86 59.04,43.7 -31.11,-28.83 -53.81,-41.95 -59.04,-43.7 -1.32,-0.44 -2.68,-0.35 -3.85,0.2 1.17,-0.55 2.53,-0.64 3.85,-0.2 z"
         id="path322" />
      <path
         class="cls-1"
         d="m 678.88,1048.08 c 0,-0.43 0,-0.86 0.01,-1.29 0,0.43 0,0.86 -0.01,1.29 z"
         id="path324" />
      <path
         class="cls-1"
         d="m 497.87,1218.72 c 0.34,0.31 0.68,0.61 1.04,0.92 -0.36,-0.31 -0.7,-0.61 -1.04,-0.92 z"
         id="path326" />
      <path
         class="cls-1"
         d="m 678.87,1050.21 c 0,0 0,0.09 0,0.13 0,-0.38 0,-0.76 0,-1.14 0,0.34 0,0.68 0,1.01 z"
         id="path328" />
      <path
         class="cls-1"
         d="m 475.93,938.1 c 0.31,0.09 0.62,0.17 0.92,0.25 -0.31,-0.08 -0.61,-0.17 -0.92,-0.25 z"
         id="path330" />
      <path
         class="cls-1"
         d="m 678.9,1045.79 c 0,-0.46 0.01,-0.93 0.02,-1.39 0,0.46 -0.02,0.93 -0.02,1.39 z"
         id="path332" />
      <path
         class="cls-1"
         d="m 470.92,936.7 c 0.44,0.12 0.86,0.24 1.29,0.36 -0.43,-0.12 -0.85,-0.24 -1.29,-0.36 z"
         id="path334" />
      <path
         class="cls-1"
         d="m 495.78,1216.78 c -0.33,-0.33 -0.67,-0.65 -0.99,-0.98 0.32,0.32 0.65,0.65 0.99,0.98 z"
         id="path336" />
      <path
         class="cls-1"
         d="m 492.43,1213.25 c 0.22,0.26 0.45,0.51 0.68,0.77 -0.23,-0.26 -0.46,-0.51 -0.68,-0.77 z"
         id="path338" />
      <path
         class="cls-1"
         d="m 493.58,1214.53 c 0.25,0.27 0.51,0.54 0.77,0.81 -0.26,-0.27 -0.52,-0.54 -0.77,-0.81 z"
         id="path340" />
      <path
         class="cls-1"
         d="m 1492.13,1221.48 -0.56,3.16 c -4.12,23.71 -20.33,71.87 -33.36,110.56 -5.19,15.41 -10.09,29.96 -13.48,40.8 -4.34,13.85 -13.64,35.62 -25.4,63.19 -6.1,14.3 -13.02,30.51 -20.45,48.39 -2.87,6.9 -5.44,13.81 -8.16,21.12 -11.49,30.85 -24.52,65.83 -63.72,104.22 -19.49,19.09 -61.89,53.93 -126.89,72.77 -43.59,12.63 -97.32,4.47 -97.86,4.39 l -4.18,-0.65 -1.34,4.01 c -0.6,1.79 -4.06,43.48 -3.31,62.86 0.72,18.56 -2.6,24.9 -2.74,25.16 l -0.4,0.75 -0.14,0.84 c -0.5,3.06 -1.03,6.1 -1.63,9.26 -2.22,3.58 -21.48,30.26 -121.18,70.65 -14.17,1.17 -26.11,-0.09 -37.66,-1.3 -4.19,-0.44 -8.19,-0.86 -12.15,-1.15 -4.42,-4.33 -12.57,-6.84 -23.3,-10.15 -8.44,-2.6 -18.01,-5.55 -27.07,-9.88 -17,-8.13 -88.83,-61.4 -183,-135.7 -88.45,-69.79 -160.59,-129.71 -171.54,-142.45 -2.22,-2.58 -3.3,-7.29 -3.12,-13.61 0.24,-8.59 2.71,-18.52 4.55,-25.25 0.32,-1.16 0.62,-2.25 0.9,-3.24 0.67,-2.38 1.16,-4.15 1.43,-5.42 l 30.78,-102.78 -5.91,-8.61 c -0.38,-0.55 -0.69,-1.11 -0.93,-1.7 -0.1,-0.23 -0.19,-0.5 -0.28,-0.75 l -33.3,111.19 -0.12,0.48 c -0.17,0.9 -0.69,2.75 -1.29,4.9 -0.28,1.01 -0.59,2.12 -0.92,3.3 -2.14,7.83 -4.64,18.05 -4.9,27.61 -0.25,9.1 1.56,15.78 5.53,20.4 13.41,15.62 99.05,85.49 172.93,143.79 75.36,59.46 163.5,126.65 184.88,136.87 9.73,4.65 19.67,7.72 28.44,10.42 8.37,2.58 17.86,5.5 19.66,8.21 l 1.38,2.08 2.49,0.15 c 4.43,0.26 8.99,0.74 13.82,1.25 8.24,0.87 17.27,1.82 27.31,1.82 4.15,0 8.49,-0.16 13.01,-0.56 l 0.74,-0.07 0.69,-0.28 c 110.11,-44.51 125.98,-73.26 127.43,-76.4 l 0.26,-0.56 0.12,-0.61 c 0.62,-3.27 1.17,-6.41 1.7,-9.56 1.4,-3.06 4.22,-11.58 3.53,-29.48 -0.62,-15.83 1.58,-43.75 2.57,-55.24 15.01,1.81 58.85,5.65 96.9,-5.38 67.11,-19.45 110.95,-55.48 131.11,-75.23 40.79,-39.96 54.23,-76.04 66.09,-107.87 2.69,-7.22 5.23,-14.05 8.03,-20.78 7.41,-17.84 14.31,-34.02 20.41,-48.3 12.34,-28.91 21.25,-49.8 25.75,-64.12 3.37,-10.74 8.25,-25.24 13.42,-40.6 13.13,-39.02 29.48,-87.58 33.74,-112.04 l 0.55,-3.13 c 1.99,-11.25 3.71,-22.16 5.18,-32.74 -3.36,-0.06 -6.71,-0.18 -10.04,-0.4 -1.43,10.15 -3.09,20.61 -5,31.4 z"
         id="path342" />
      <path
         class="cls-1"
         d="m 473.5,937.43 c 0.37,0.1 0.72,0.2 1.09,0.3 -0.36,-0.1 -0.72,-0.2 -1.09,-0.3 z"
         id="path344" />
      <path
         class="cls-1"
         d="m 1055.19,789.34 c -16.11,8.1 -33.71,15.86 -51.35,22.86 0,0 0,0 0,0 17.64,-7 35.23,-14.76 51.35,-22.86 z"
         id="path346" />
      <path
         class="cls-1"
         d="m 482.36,939.84 c 0.65,0.17 1.27,0.34 1.87,0.49 -0.6,-0.16 -1.23,-0.32 -1.87,-0.49 z"
         id="path348" />
      <path
         class="cls-1"
         d="m 504.61,1224.19 c 0.41,0.3 0.84,0.61 1.26,0.92 -0.43,-0.31 -0.85,-0.62 -1.26,-0.92 z"
         id="path350" />
      <path
         class="cls-1"
         d="m 679.11,1062.34 c 0,0 0,-0.08 0,-0.13 0,0.04 0,0.08 0,0.13 z"
         id="path352" />
      <path
         class="cls-1"
         d="m 678.89,1052.79 c 0,-0.37 0,-0.74 0,-1.11 0,0.37 0,0.74 0,1.11 z"
         id="path354" />
      <path
         class="cls-1"
         d="m 502.82,1222.83 c 0.36,0.28 0.72,0.55 1.09,0.83 -0.37,-0.28 -0.74,-0.56 -1.09,-0.83 z"
         id="path356" />
      <path
         class="cls-1"
         d="m 480.36,939.31 c 0.29,0.08 0.57,0.15 0.85,0.23 -0.28,-0.08 -0.56,-0.15 -0.85,-0.23 z"
         id="path358" />
      <path
         class="cls-1"
         d="m 468.19,935.93 c 0.52,0.15 1.03,0.29 1.54,0.44 -0.51,-0.14 -1.02,-0.29 -1.54,-0.44 z"
         id="path360" />
      <path
         class="cls-1"
         d="m 506.51,1225.57 c 0.65,0.46 1.31,0.93 2,1.4 -0.69,-0.47 -1.35,-0.94 -2,-1.4 z"
         id="path362" />
      <path
         class="cls-1"
         d="m 679.03,1060 c 0,-0.2 -0.01,-0.39 -0.02,-0.59 0,0.2 0.01,0.39 0.02,0.59 z"
         id="path364" />
      <path
         class="cls-1"
         d="m 499.49,1220.14 c 0.32,0.27 0.64,0.54 0.97,0.82 -0.33,-0.27 -0.65,-0.55 -0.97,-0.82 z"
         id="path366" />
      <path
         class="cls-1"
         d="m 678.97,1057.62 c 0,-0.27 -0.01,-0.55 -0.02,-0.82 0,0.27 0.01,0.55 0.02,0.82 z"
         id="path368" />
      <path
         class="cls-1"
         d="m 474.78,1153.58 c -10.43,-15.91 -24.76,-26.14 -33.29,-32.22 -2.32,-1.66 -4.33,-3.09 -5.54,-4.12 -6.63,-5.69 -13.61,-17.56 -13.68,-17.68 l -0.38,-0.57 c -0.11,-0.14 -11.25,-14.45 -18.45,-32.47 -5.69,-14.24 -1.93,-64.18 0.17,-84.1 11.85,-14.94 24.03,-30.18 34.36,-38.17 8.54,-6.6 16.98,-7.61 25.14,-8.59 0.97,-0.12 1.92,-0.23 2.87,-0.35 0.38,0.11 0.75,0.21 1.13,0.32 -0.7,-0.2 -1.41,-0.4 -2.13,-0.61 l -4.4,-1.26 0.86,-4.49 c 0.23,-1.19 0.45,-2.38 0.68,-3.56 -0.07,0 -0.13,0.02 -0.2,0.03 -9.07,1.09 -19.34,2.33 -30.06,10.61 -11.56,8.93 -24.48,25.23 -36.98,41 l -0.9,1.13 -0.16,1.43 c -0.79,7.19 -7.48,70.78 0.33,90.33 7.27,18.21 17.96,32.46 19.66,34.66 1.22,2.05 8.27,13.63 15.64,19.94 1.55,1.33 3.62,2.8 6.24,4.67 10.69,7.62 28.59,20.38 37.18,41.85 0.75,1.88 1.51,3.83 2.3,5.93 0,-0.29 -0.01,-0.59 -0.02,-0.88 l -0.36,-22.82 z"
         id="path370" />
      <path
         class="cls-1"
         d="m 478.22,938.73 c 0.27,0.07 0.53,0.15 0.8,0.22 -0.27,-0.07 -0.53,-0.14 -0.8,-0.22 z"
         id="path372" />
      <path
         class="cls-1"
         d="m 1389.97,856.23 c 0.81,0.12 1.62,0.25 2.43,0.37 0,0 0,0 0,0 -0.81,-0.12 -1.62,-0.24 -2.44,-0.36 z"
         id="path374" />
      <path
         class="cls-1"
         d="m 501.12,1221.49 c 0.33,0.27 0.67,0.54 1.01,0.8 -0.34,-0.27 -0.68,-0.54 -1.01,-0.8 z"
         id="path376" />
      <path
         class="cls-1"
         d="m 678.92,1055.22 c 0,-0.34 0,-0.68 -0.01,-1.02 0,0.34 0,0.68 0.01,1.02 z"
         id="path378" />
      <path
         class="cls-1"
         d="m 739.08,885.96 c 0.79,-0.8 1.59,-1.59 2.4,-2.38 -0.81,0.79 -1.61,1.58 -2.4,2.38 z"
         id="path380" />
      <path
         class="cls-1"
         d="m 720.07,908.33 c 0,0 0,0.01 -0.01,0.02 0,0 0,-0.01 0.01,-0.02 z"
         id="path382" />
      <path
         class="cls-1"
         d="m 679.27,1033.89 c 0.03,-0.52 0.06,-1.04 0.09,-1.57 -0.03,0.52 -0.06,1.05 -0.09,1.57 z"
         id="path384" />
      <path
         class="cls-1"
         d="m 679.16,1036.32 c 0.02,-0.52 0.05,-1.04 0.07,-1.56 -0.02,0.52 -0.05,1.04 -0.07,1.56 z"
         id="path386" />
      <path
         class="cls-1"
         d="m 724.03,903.05 c -0.05,0.06 -0.09,0.12 -0.14,0.18 0.05,-0.06 0.09,-0.12 0.14,-0.18 z"
         id="path388" />
      <path
         class="cls-1"
         d="m 488.12,1207.61 c 0.28,0.43 0.58,0.86 0.88,1.29 -0.3,-0.43 -0.59,-0.86 -0.88,-1.29 z"
         id="path390" />
      <polygon
         class="cls-1"
         points="546.92,1377.98 546.04,1380.92 "
         id="polygon392" />
      <path
         class="cls-1"
         d="m 772.3,862.8 c 14.84,-6.58 30.62,-9.71 46.38,-10.98 0,0 0,0 0,0 -15.75,1.27 -31.54,4.4 -46.38,10.98 z"
         id="path394" />
      <path
         class="cls-1"
         d="m 487.29,1206.3 c 0.19,0.3 0.38,0.61 0.58,0.91 -0.2,-0.3 -0.39,-0.61 -0.58,-0.91 z"
         id="path396" />
      <path
         class="cls-1"
         d="m 679.41,1031.43 c 0.03,-0.54 0.07,-1.08 0.1,-1.62 -0.03,0.54 -0.07,1.08 -0.1,1.62 z"
         id="path398" />
      <path
         class="cls-1"
         d="m 728.09,898.02 c -0.05,0.06 -0.09,0.11 -0.14,0.17 0.05,-0.06 0.09,-0.11 0.14,-0.17 z"
         id="path400" />
      <path
         class="cls-1"
         d="m 730.52,895.18 c -0.15,0.18 -0.31,0.35 -0.46,0.53 0.15,-0.18 0.31,-0.35 0.46,-0.53 z"
         id="path402" />
      <path
         class="cls-1"
         d="m 679.56,1028.96 c 0.04,-0.54 0.08,-1.09 0.12,-1.64 -0.04,0.55 -0.08,1.09 -0.12,1.64 z"
         id="path404" />
      <path
         class="cls-1"
         d="m 678.94,1043.46 c 0,-0.48 0.02,-0.97 0.03,-1.45 -0.01,0.49 -0.02,0.97 -0.03,1.45 z"
         id="path406" />
      <path
         class="cls-1"
         d="m 486.5,1204.97 c 0.16,0.28 0.32,0.55 0.49,0.83 -0.17,-0.27 -0.33,-0.55 -0.49,-0.83 z"
         id="path408" />
      <path
         class="cls-1"
         d="m 726.07,900.48 c -0.06,0.07 -0.12,0.15 -0.18,0.22 0.06,-0.07 0.12,-0.15 0.18,-0.22 z"
         id="path410" />
      <path
         class="cls-1"
         d="m 487.62,1182.14 c -0.57,-1.56 -1.16,-3.2 -1.8,-4.91 0.63,1.71 1.23,3.35 1.8,4.91 z"
         id="path412" />
      <path
         class="cls-1"
         d="m 490.28,1210.63 c 0.21,0.28 0.43,0.55 0.65,0.83 -0.22,-0.28 -0.43,-0.55 -0.65,-0.83 z"
         id="path414" />
      <path
         class="cls-1"
         d="m 679.07,1038.72 c 0.02,-0.5 0.04,-1 0.06,-1.5 -0.02,0.5 -0.04,1 -0.06,1.5 z"
         id="path416" />
      <path
         class="cls-1"
         d="m 678.99,1041.11 c 0.01,-0.49 0.03,-0.98 0.05,-1.48 -0.02,0.49 -0.03,0.99 -0.05,1.48 z"
         id="path418" />
      <path
         class="cls-1"
         d="m 836.25,841.13 c -33.57,0.32 -70.44,6.29 -99.7,33.35 29.26,-27.06 66.13,-33.04 99.7,-33.35 z"
         id="path420" />
      <path
         class="cls-1"
         d="m 489.17,1209.13 c 0.25,0.35 0.5,0.7 0.77,1.05 -0.26,-0.35 -0.52,-0.7 -0.77,-1.05 z"
         id="path422" />
      <path
         class="cls-1"
         d="m 491.33,1211.96 c 0.21,0.26 0.43,0.52 0.65,0.77 -0.22,-0.26 -0.43,-0.51 -0.65,-0.77 z"
         id="path424" />
      <path
         class="cls-1"
         d="m 541.25,1403.42 5.91,8.61 9.34,-31.18 c 12.06,-40.29 12.93,-102.07 12.74,-126.76 l -0.03,-3.69 -3.54,-1.06 c -7.56,-2.26 -27.29,-13.99 -51.51,-30.62 -17.65,-12.12 -20.25,-19.28 -26.55,-36.58 -0.57,-1.56 -1.16,-3.2 -1.8,-4.91 -0.32,-0.87 -0.65,-1.76 -0.99,-2.67 -0.93,-2.47 -1.81,-4.74 -2.68,-6.92 -2.05,-5.12 -4.57,-9.79 -7.36,-14.06 l 0.36,22.82 c 0,0.29 0.01,0.59 0.02,0.88 0.1,0.27 0.2,0.53 0.3,0.8 1.01,2.67 1.91,5.16 2.75,7.48 2.77,7.62 5.01,13.77 8.28,19.41 0.16,0.28 0.32,0.55 0.49,0.83 0.1,0.17 0.2,0.34 0.3,0.5 0.19,0.3 0.38,0.61 0.58,0.91 0.09,0.13 0.17,0.27 0.26,0.4 0.28,0.43 0.58,0.86 0.88,1.29 0.05,0.08 0.11,0.15 0.17,0.23 0.25,0.35 0.5,0.7 0.77,1.05 0.11,0.15 0.23,0.3 0.34,0.45 0.21,0.28 0.43,0.55 0.65,0.83 0.13,0.17 0.27,0.34 0.41,0.5 0.21,0.26 0.43,0.52 0.65,0.77 0.15,0.17 0.3,0.35 0.45,0.52 0.22,0.26 0.45,0.51 0.68,0.77 0.15,0.17 0.31,0.34 0.47,0.51 0.25,0.27 0.51,0.54 0.77,0.81 0.15,0.16 0.3,0.31 0.45,0.47 0.32,0.32 0.65,0.65 0.99,0.98 0.1,0.1 0.2,0.2 0.31,0.3 0.44,0.42 0.9,0.85 1.37,1.27 0.14,0.12 0.28,0.25 0.42,0.37 0.34,0.31 0.68,0.61 1.04,0.92 0.19,0.17 0.39,0.33 0.59,0.5 0.32,0.27 0.64,0.54 0.97,0.82 0.21,0.18 0.43,0.35 0.65,0.53 0.33,0.27 0.67,0.54 1.01,0.8 0.23,0.18 0.46,0.36 0.69,0.54 0.36,0.28 0.72,0.55 1.09,0.83 0.23,0.18 0.46,0.35 0.7,0.53 0.41,0.3 0.84,0.61 1.26,0.92 0.21,0.15 0.41,0.3 0.63,0.45 0.65,0.46 1.31,0.93 2,1.4 11.15,7.65 36.93,24.92 50.75,30.66 0.07,26.15 -1.18,83.11 -12.34,120.36 l -0.88,2.94 c 0,0 0,0 0,0 l -6,20.05 c 0.09,0.25 0.18,0.52 0.28,0.75 0.25,0.59 0.55,1.15 0.93,1.7 z"
         id="path426" />
      <path
         class="cls-1"
         d="m 720.07,908.33 c 1.24,-1.71 2.51,-3.41 3.82,-5.1 0.05,-0.06 0.09,-0.12 0.14,-0.18 0.61,-0.79 1.23,-1.57 1.86,-2.35 0.06,-0.07 0.12,-0.15 0.18,-0.22 0.62,-0.77 1.24,-1.53 1.88,-2.29 0.05,-0.06 0.09,-0.11 0.14,-0.17 0.65,-0.78 1.3,-1.55 1.97,-2.32 0.15,-0.18 0.31,-0.35 0.46,-0.53 0.56,-0.65 1.13,-1.3 1.71,-1.94 0.16,-0.17 0.32,-0.35 0.48,-0.52 0.58,-0.64 1.16,-1.29 1.75,-1.92 0.19,-0.2 0.38,-0.4 0.57,-0.6 0.57,-0.61 1.14,-1.22 1.72,-1.82 0.41,-0.42 0.83,-0.85 1.24,-1.27 0.37,-0.38 0.73,-0.75 1.1,-1.13 0.79,-0.8 1.59,-1.59 2.4,-2.38 8.2,-7.97 17.08,-14.06 26.37,-18.69 0.09,-0.04 0.17,-0.09 0.26,-0.13 0.09,-0.05 0.19,-0.09 0.28,-0.14 1.25,-0.61 2.5,-1.2 3.76,-1.77 0.05,-0.02 0.09,-0.04 0.14,-0.06 14.84,-6.58 30.62,-9.71 46.38,-10.98 5.09,-3.8 10.98,-7.37 17.57,-10.69 -33.57,0.32 -70.44,6.29 -99.7,33.35 -0.68,0.63 -1.36,1.27 -2.04,1.93 -1.51,1.46 -2.99,2.94 -4.44,4.45 -16.01,16.55 -29.01,35.67 -38.82,57.09 l 10.86,0.66 c 4.95,-10.32 10.87,-20.48 17.95,-30.26 0,0 0,-0.01 0.01,-0.02 z"
         id="path428" />
      <path
         class="cls-1"
         d="m 1022.85,812.84 c 1.58,0.08 3.15,0.17 4.73,0.26 43.01,-18.66 77.2,-38.66 93.71,-55.11 5.48,-5.46 9.42,-11.83 11.82,-19.11 0.66,-1.98 1.2,-4.03 1.62,-6.15 0.85,-4.23 1.25,-8.73 1.19,-13.49 -0.12,-9.52 -2.08,-20.07 -5.87,-31.63 -3.51,-10.7 -8.17,-21.01 -12.91,-30.2 -1.05,-2.04 -2.11,-4.03 -3.16,-5.95 -2.62,-4.81 -5.2,-9.23 -7.54,-13.13 7.84,5.31 18.28,13.06 30.51,23.69 23.45,20.38 59.4,56.6 97.51,113.37 23.59,35.15 64.59,60.11 121.87,74.19 1.77,0.43 3.53,0.85 5.29,1.26 0.58,0.13 1.15,0.26 1.72,0.38 1.18,0.27 2.37,0.53 3.55,0.79 0.68,0.15 1.36,0.29 2.05,0.43 1.07,0.22 2.15,0.45 3.22,0.66 0.72,0.14 1.44,0.28 2.16,0.42 1.02,0.2 2.05,0.4 3.07,0.59 0.74,0.14 1.48,0.27 2.21,0.4 1,0.18 2,0.36 3,0.53 0.74,0.13 1.48,0.25 2.21,0.37 0.99,0.16 1.98,0.33 2.97,0.48 0.73,0.12 1.46,0.23 2.19,0.34 0.81,0.13 1.63,0.24 2.44,0.36 6.2,-2.74 12.93,-5.21 20.11,-7.41 -67.94,-7.04 -136.68,-30.1 -169.75,-79.37 -18.86,-28.1 -37.51,-51.65 -54.91,-71.13 -2.05,-2.29 -4.08,-4.53 -6.09,-6.71 -1.01,-1.09 -2.01,-2.17 -3,-3.23 -1.99,-2.13 -3.96,-4.2 -5.91,-6.21 -0.97,-1.01 -1.94,-2 -2.91,-2.98 -1.93,-1.96 -3.83,-3.87 -5.71,-5.73 -0.94,-0.93 -1.87,-1.84 -2.8,-2.74 -2.78,-2.71 -5.51,-5.29 -8.18,-7.76 -31.11,-28.83 -53.81,-41.95 -59.04,-43.7 -1.32,-0.44 -2.68,-0.35 -3.85,0.2 -0.7,0.33 -1.33,0.82 -1.84,1.46 -2.28,2.89 -0.48,6.03 0.6,7.9 0.2,0.35 0.43,0.74 0.68,1.15 0.74,1.24 1.68,2.76 2.8,4.55 13.04,21.03 52.74,85.04 21.62,116.03 -11.88,11.83 -31.77,24.46 -55.12,36.45 -1.3,0.67 -2.61,1.33 -3.92,1.99 -16.11,8.1 -33.7,15.86 -51.35,22.86 6.29,0.11 12.63,0.32 19.01,0.63 z"
         id="path430" />
      <path
         class="cls-1"
         d="m 460.58,933.76 4.4,1.26 c 0.73,0.21 1.43,0.41 2.13,0.61 0.36,0.1 0.73,0.21 1.08,0.31 0.52,0.15 1.03,0.29 1.54,0.44 0.4,0.11 0.8,0.23 1.19,0.34 0.44,0.12 0.86,0.24 1.29,0.36 0.43,0.12 0.87,0.24 1.29,0.36 0.37,0.1 0.72,0.2 1.09,0.3 0.45,0.13 0.91,0.25 1.34,0.37 0.31,0.09 0.62,0.17 0.92,0.25 0.46,0.13 0.92,0.25 1.37,0.38 0.27,0.07 0.53,0.15 0.8,0.22 0.45,0.12 0.9,0.25 1.34,0.36 0.29,0.08 0.57,0.15 0.85,0.23 0.39,0.1 0.78,0.21 1.15,0.31 0.65,0.17 1.27,0.34 1.87,0.49 12.56,3.28 31.19,24.51 44.43,43.29 l 0.7,0.99 1.07,0.56 c 6.25,3.27 11.88,7.33 17,11.99 22.18,20.2 34.65,51.63 45.06,77.84 6.32,15.93 11.78,29.69 18.45,38.91 14.76,20.42 72.3,36.23 74.74,36.9 l 8.8,2.39 -2.65,-8.47 -0.08,-0.24 c -0.12,-0.38 -10.91,-35.36 -12.66,-82.17 0,-0.04 0,-0.08 0,-0.13 -0.03,-0.73 -0.05,-1.47 -0.07,-2.21 0,-0.2 -0.01,-0.39 -0.02,-0.59 -0.02,-0.6 -0.03,-1.19 -0.05,-1.79 0,-0.27 -0.01,-0.55 -0.02,-0.82 -0.01,-0.52 -0.02,-1.05 -0.03,-1.58 0,-0.34 0,-0.68 -0.01,-1.02 0,-0.47 -0.01,-0.94 -0.02,-1.41 0,-0.37 0,-0.74 0,-1.11 0,-0.4 0,-0.79 0,-1.19 0,-0.05 0,-0.1 0,-0.15 0,-0.04 0,-0.09 0,-0.13 0,-0.34 0,-0.68 0,-1.01 0,-0.37 0,-0.74 0,-1.11 0,-0.43 0,-0.86 0.01,-1.29 0,-0.34 0,-0.67 0,-1.01 0,-0.46 0.01,-0.93 0.02,-1.39 0,-0.31 0,-0.62 0.02,-0.93 0,-0.48 0.02,-0.97 0.03,-1.45 0,-0.3 0.01,-0.6 0.02,-0.9 0.01,-0.49 0.03,-0.98 0.05,-1.48 0,-0.3 0.02,-0.6 0.03,-0.91 0.02,-0.5 0.04,-1 0.06,-1.5 0.01,-0.3 0.02,-0.6 0.04,-0.91 0.02,-0.52 0.05,-1.04 0.07,-1.56 0.01,-0.29 0.03,-0.58 0.04,-0.87 0.03,-0.52 0.06,-1.04 0.09,-1.57 0.02,-0.3 0.03,-0.6 0.05,-0.9 0.03,-0.54 0.07,-1.08 0.1,-1.62 0.02,-0.28 0.03,-0.56 0.05,-0.84 0.04,-0.54 0.08,-1.09 0.12,-1.64 0.02,-0.29 0.04,-0.58 0.06,-0.87 0.04,-0.52 0.08,-1.05 0.12,-1.57 0.03,-0.32 0.05,-0.63 0.08,-0.95 0.04,-0.53 0.09,-1.05 0.14,-1.58 0.03,-0.32 0.06,-0.63 0.08,-0.95 0.05,-0.52 0.1,-1.04 0.15,-1.56 0.03,-0.33 0.06,-0.67 0.1,-1 0.05,-0.51 0.11,-1.02 0.16,-1.53 0.04,-0.35 0.07,-0.7 0.11,-1.05 0.06,-0.5 0.12,-1 0.17,-1.51 0.04,-0.36 0.08,-0.73 0.13,-1.09 0.06,-0.49 0.12,-0.98 0.18,-1.47 0.05,-0.38 0.09,-0.76 0.14,-1.14 0.06,-0.46 0.12,-0.93 0.19,-1.4 0.06,-0.41 0.11,-0.82 0.17,-1.24 0.06,-0.43 0.12,-0.87 0.19,-1.3 0.06,-0.45 0.13,-0.9 0.19,-1.35 0.06,-0.41 0.13,-0.83 0.19,-1.24 0.07,-0.47 0.14,-0.94 0.22,-1.41 0.06,-0.39 0.13,-0.78 0.19,-1.16 0.08,-0.5 0.16,-1.01 0.25,-1.51 0.06,-0.36 0.13,-0.72 0.19,-1.08 0.09,-0.53 0.18,-1.07 0.28,-1.6 0.06,-0.34 0.13,-0.67 0.19,-1.01 0.1,-0.56 0.21,-1.12 0.31,-1.69 0.05,-0.29 0.11,-0.58 0.17,-0.86 0.12,-0.61 0.24,-1.23 0.36,-1.84 0.05,-0.27 0.11,-0.53 0.17,-0.8 0.13,-0.64 0.26,-1.27 0.4,-1.91 0.06,-0.26 0.11,-0.52 0.17,-0.78 0.14,-0.65 0.28,-1.3 0.43,-1.94 0.05,-0.23 0.11,-0.46 0.16,-0.69 0.15,-0.68 0.31,-1.36 0.47,-2.04 0.05,-0.19 0.09,-0.39 0.14,-0.58 0.17,-0.71 0.34,-1.43 0.52,-2.15 0.04,-0.18 0.09,-0.36 0.14,-0.54 0.18,-0.73 0.37,-1.47 0.56,-2.2 0.04,-0.14 0.08,-0.28 0.11,-0.42 0.2,-0.77 0.41,-1.55 0.62,-2.33 0.03,-0.11 0.06,-0.22 0.09,-0.34 0.22,-0.8 0.44,-1.61 0.68,-2.41 0.02,-0.08 0.05,-0.17 0.07,-0.25 0.24,-0.83 0.48,-1.66 0.73,-2.49 0.02,-0.07 0.05,-0.15 0.07,-0.22 0.25,-0.85 0.51,-1.69 0.78,-2.54 0,-0.02 0.02,-0.05 0.02,-0.07 2.01,-6.43 4.34,-12.87 7.01,-19.27 l -10.65,-0.65 c -1.9,4.73 -3.66,9.55 -5.27,14.49 -8.67,26.71 -13.02,56.42 -12.95,88.3 0.03,13.79 0.88,26.73 2.13,38.39 0.46,4.24 0.97,8.31 1.51,12.19 2.31,16.5 5.24,29.56 7.28,37.58 0,0 0,0 0,0 0,0 0,0 0,0 -12.56,-3.92 -30.92,-10.52 -44.6,-18.1 -7.17,-3.97 -13.05,-8.22 -16.13,-12.5 -5.93,-8.21 -11.18,-21.43 -17.26,-36.74 -13.28,-33.47 -29.78,-75.04 -65.64,-94.44 -1.4,-1.97 -2.95,-4.09 -4.62,-6.32 -8.83,-11.75 -21.09,-26.21 -33.18,-34.33 l -35.66,-2.17 0.52,-8.52 c -0.37,0.04 -0.73,0.09 -1.1,0.14 -0.23,1.19 -0.45,2.38 -0.68,3.56 l -0.86,4.49 z"
         id="path432" />
      <path
         class="cls-1"
         d="m 475.36,927.56 c -0.56,-0.16 -1.13,-0.32 -1.71,-0.48 0.58,0.16 1.15,0.32 1.71,0.48 z"
         id="path434" />
      <path
         class="cls-1"
         d="m 472.12,926.65 c 0.24,0.07 0.47,0.13 0.71,0.2 -0.23,-0.07 -0.48,-0.13 -0.71,-0.2 0,0 0,0 0,0 z"
         id="path436" />
      <path
         class="cls-1"
         d="m 480.39,928.96 c -0.63,-0.17 -1.27,-0.35 -1.93,-0.53 0.66,0.18 1.3,0.36 1.93,0.53 z"
         id="path438" />
      <path
         class="cls-1"
         d="m 484.39,930.04 c -0.4,-0.11 -0.81,-0.22 -1.22,-0.33 0.42,0.11 0.82,0.22 1.22,0.33 z"
         id="path440" />
      <path
         class="cls-1"
         d="m 486.76,930.66 c -0.56,-0.15 -1.14,-0.3 -1.73,-0.46 0.6,0.16 1.18,0.31 1.73,0.46 z"
         id="path442" />
      <path
         class="cls-1"
         d="m 482.42,929.51 c -0.43,-0.12 -0.86,-0.23 -1.31,-0.35 0.44,0.12 0.88,0.24 1.31,0.35 z"
         id="path444" />
      <path
         class="cls-1"
         d="m 478.29,928.38 c -0.73,-0.2 -1.48,-0.41 -2.25,-0.63 0.77,0.21 1.52,0.42 2.25,0.63 z"
         id="path446" />
      <path
         class="cls-1"
         d="m 691.25,937.95 c -1.47,3.2 -2.84,6.46 -4.17,9.77 l 10.65,0.65 c 1.36,-3.26 2.82,-6.52 4.37,-9.75 l -10.86,-0.66 z"
         id="path448" />
      <path
         class="cls-1"
         d="m 486.76,930.66 c -0.56,-0.15 -1.14,-0.3 -1.73,-0.46 -0.21,-0.06 -0.43,-0.11 -0.64,-0.17 -0.4,-0.11 -0.81,-0.22 -1.22,-0.33 -0.25,-0.07 -0.5,-0.13 -0.75,-0.2 -0.43,-0.12 -0.86,-0.23 -1.31,-0.35 -0.24,-0.07 -0.47,-0.13 -0.72,-0.2 -0.63,-0.17 -1.27,-0.35 -1.93,-0.53 -0.06,-0.02 -0.11,-0.03 -0.17,-0.05 -0.73,-0.2 -1.48,-0.41 -2.25,-0.63 -0.22,-0.06 -0.45,-0.13 -0.68,-0.19 -0.56,-0.16 -1.13,-0.32 -1.71,-0.48 -0.27,-0.08 -0.55,-0.15 -0.82,-0.23 -0.24,-0.07 -0.47,-0.13 -0.71,-0.2 0,0 0,0 0,0 -1.42,-0.4 -2.87,-0.81 -4.39,-1.25 l -1.01,-0.29 -1.04,0.14 c -0.81,0.11 -1.63,0.21 -2.46,0.31 l -0.52,8.52 35.66,2.17 c -3.35,-2.25 -6.69,-4.02 -9.94,-5.1 -0.55,-0.18 -1.1,-0.35 -1.65,-0.49 z"
         id="path450" />
      <path
         class="cls-2"
         d="m 1496.86,1010.28 c 1.74,4.51 3.39,8.77 4.87,13.1 12.92,37.68 15.16,90.42 6.75,157.1 4.05,0.05 8.12,0 12.2,-0.21 82.94,-4.13 147.91,-58.97 147.91,-124.84 V 970.46 L 1484.2,959.18 c 0.82,20.43 6.99,36.41 12.65,51.1 z"
         id="path452" />
      <path
         class="cls-2"
         d="m 1492.27,1026.62 c -1.42,-4.15 -3.04,-8.32 -4.74,-12.74 -6.1,-15.8 -12.74,-33.02 -13.41,-55.32 l -115.74,-7.08 v 107.98 c 0,28.97 12.14,55.83 35.1,77.68 26.2,24.93 64.33,40.31 104.98,42.96 8.36,-65.53 6.3,-117.05 -6.19,-153.47 z"
         id="path454" />
      <path
         class="cls-1"
         d="m 1501.73,1023.38 c -1.48,-4.33 -3.13,-8.59 -4.87,-13.1 -5.67,-14.68 -11.83,-30.67 -12.65,-51.1 l -10.09,-0.62 c 0.68,22.3 7.32,39.52 13.41,55.32 1.71,4.42 3.32,8.59 4.74,12.74 12.49,36.43 14.54,87.95 6.19,153.47 3.33,0.22 6.67,0.34 10.03,0.38 8.41,-66.69 6.17,-119.42 -6.75,-157.1 z"
         id="path456" />
      <path
         class="cls-2"
         d="m 1447.8,851.45 c 15.48,0.41 30.57,0.05 44.82,-0.96 10.55,-0.75 19.22,-1.77 26.19,-2.88 -5.61,-0.25 -11.19,-0.38 -16.7,-0.38 -19.03,0 -37.4,1.48 -54.31,4.22 z"
         id="path458" />
      <path
         class="cls-2"
         d="m 1369.9,882.43 c -7.65,7.28 -11.53,15.03 -11.53,23.05 v 35.98 l 115.84,7.09 c 0.41,-8.19 1.62,-17.04 3.92,-26.71 3.64,-15.27 6.76,-35.77 9.29,-61 -0.17,0 -0.36,0.02 -0.53,0.03 -0.39,0.02 -0.78,0.04 -1.18,0.06 -0.46,0.02 -0.92,0.05 -1.4,0.07 -0.41,0.02 -0.82,0.04 -1.24,0.06 -0.5,0.02 -1.02,0.04 -1.54,0.07 -0.42,0.02 -0.84,0.03 -1.27,0.05 -0.55,0.02 -1.11,0.04 -1.68,0.06 -0.43,0.02 -0.85,0.03 -1.29,0.04 -0.6,0.02 -1.22,0.04 -1.84,0.05 -0.43,0.01 -0.85,0.03 -1.29,0.04 -0.7,0.02 -1.43,0.03 -2.15,0.05 -0.37,0 -0.74,0.02 -1.12,0.02 -1.01,0.02 -2.04,0.03 -3.09,0.05 -0.12,0 -0.23,0 -0.34,0 -1.17,0.01 -2.37,0.02 -3.59,0.03 -0.29,0 -0.6,0 -0.9,0 -0.92,0 -1.85,0 -2.79,0 -0.44,0 -0.89,0 -1.33,0 -0.83,0 -1.66,0 -2.5,-0.02 -0.5,0 -1.01,-0.01 -1.51,-0.02 -0.81,-0.01 -1.62,-0.02 -2.45,-0.04 -0.54,0 -1.09,-0.02 -1.63,-0.03 -0.81,-0.02 -1.63,-0.04 -2.45,-0.06 -0.56,-0.02 -1.13,-0.03 -1.7,-0.05 -0.83,-0.02 -1.66,-0.05 -2.5,-0.08 -0.59,-0.02 -1.18,-0.04 -1.77,-0.07 -0.84,-0.03 -1.69,-0.07 -2.55,-0.11 -0.6,-0.03 -1.2,-0.05 -1.81,-0.08 -0.87,-0.04 -1.76,-0.09 -2.64,-0.13 -0.6,-0.03 -1.2,-0.06 -1.8,-0.1 -0.93,-0.05 -1.86,-0.11 -2.8,-0.17 -0.58,-0.04 -1.15,-0.07 -1.73,-0.11 -1.01,-0.07 -2.04,-0.14 -3.07,-0.21 -0.52,-0.04 -1.04,-0.07 -1.56,-0.11 -1.24,-0.09 -2.49,-0.2 -3.74,-0.3 -0.32,-0.03 -0.64,-0.05 -0.96,-0.08 -1.6,-0.14 -3.21,-0.28 -4.83,-0.44 -0.23,-0.02 -0.46,-0.05 -0.69,-0.07 -0.03,0 -0.07,0 -0.1,-0.01 -18.91,5.9 -34.26,13.77 -44.17,23.19 z"
         id="path460" />
      <path
         class="cls-2"
         d="m 1487.86,924.16 c -2.15,9.04 -3.27,17.32 -3.62,25 l 184.35,11.28 v -45.3 c 0,-15.14 -15.03,-31 -41.23,-43.52 -21.94,-10.49 -49.93,-17.97 -80.61,-21.7 -9.82,6.24 -36.18,9.14 -49.21,10.22 -2.61,26.45 -5.86,47.98 -9.68,64.02 z"
         id="path462" />
      <path
         class="cls-1"
         d="m 1460.2,861.53 c -0.44,0 -0.89,0 -1.33,0 0.44,0 0.89,0 1.33,0 z"
         id="path464" />
      <path
         class="cls-1"
         d="m 1414.17,859.25 c 0.23,0.02 0.46,0.05 0.69,0.07 -0.23,-0.02 -0.46,-0.05 -0.69,-0.07 z"
         id="path466" />
      <path
         class="cls-1"
         d="m 1518.81,847.61 c -6.97,1.11 -15.64,2.13 -26.19,2.88 l 5.88,-0.42 -0.55,5.87 c -0.13,1.41 -0.27,2.8 -0.41,4.19 13.03,-1.08 39.39,-3.99 49.21,-10.22 -8.51,-1.03 -17.22,-1.78 -26.07,-2.22 -0.63,-0.03 -1.25,-0.05 -1.87,-0.08 z"
         id="path468" />
      <path
         class="cls-1"
         d="m 1470.91,861.44 c 0.38,0 0.74,-0.02 1.12,-0.02 -0.37,0 -0.74,0.02 -1.12,0.02 z"
         id="path470" />
      <path
         class="cls-1"
         d="m 1474.17,861.37 c 0.44,-0.01 0.86,-0.02 1.29,-0.04 -0.43,0.01 -0.85,0.03 -1.29,0.04 z"
         id="path472" />
      <path
         class="cls-1"
         d="m 1467.48,861.5 c 0.12,0 0.23,0 0.34,0 -0.12,0 -0.23,0 -0.34,0 z"
         id="path474" />
      <path
         class="cls-1"
         d="m 1483.08,861.05 c 0.42,-0.02 0.83,-0.04 1.24,-0.06 -0.41,0.02 -0.82,0.04 -1.24,0.06 z"
         id="path476" />
      <path
         class="cls-1"
         d="m 1477.31,861.28 c 0.44,-0.01 0.86,-0.03 1.29,-0.04 -0.43,0.02 -0.85,0.03 -1.29,0.04 z"
         id="path478" />
      <path
         class="cls-1"
         d="m 1485.71,860.93 c 0.4,-0.02 0.8,-0.04 1.18,-0.06 -0.39,0.02 -0.78,0.04 -1.18,0.06 z"
         id="path480" />
      <path
         class="cls-1"
         d="m 1462.99,861.53 c 0.3,0 0.6,0 0.9,0 -0.29,0 -0.6,0 -0.9,0 z"
         id="path482" />
      <path
         class="cls-1"
         d="m 1480.27,861.17 c 0.43,-0.02 0.85,-0.03 1.27,-0.05 -0.42,0.02 -0.84,0.03 -1.27,0.05 z"
         id="path484" />
      <path
         class="cls-1"
         d="m 1446.62,861.3 c 0.57,0.02 1.14,0.03 1.7,0.05 -0.56,-0.01 -1.13,-0.03 -1.7,-0.05 z"
         id="path486" />
      <path
         class="cls-1"
         d="m 1433.55,860.74 c 0.61,0.03 1.2,0.07 1.8,0.1 -0.6,-0.03 -1.2,-0.06 -1.8,-0.1 z"
         id="path488" />
      <path
         class="cls-1"
         d="m 1429.02,860.46 c 0.58,0.04 1.16,0.07 1.73,0.11 -0.58,-0.04 -1.15,-0.07 -1.73,-0.11 z"
         id="path490" />
      <path
         class="cls-1"
         d="m 1438,860.97 c 0.61,0.03 1.21,0.06 1.81,0.08 -0.6,-0.03 -1.2,-0.05 -1.81,-0.08 z"
         id="path492" />
      <path
         class="cls-1"
         d="m 1424.4,860.14 c 0.52,0.04 1.04,0.07 1.56,0.11 -0.52,-0.04 -1.04,-0.07 -1.56,-0.11 z"
         id="path494" />
      <path
         class="cls-1"
         d="m 1450.78,861.41 c 0.55,0.01 1.09,0.02 1.63,0.03 -0.54,0 -1.09,-0.02 -1.63,-0.03 z"
         id="path496" />
      <path
         class="cls-1"
         d="m 1454.85,861.48 c 0.5,0 1.01,0.01 1.51,0.02 -0.5,0 -1.01,-0.01 -1.51,-0.02 z"
         id="path498" />
      <path
         class="cls-1"
         d="m 1442.35,861.16 c 0.59,0.02 1.18,0.04 1.77,0.07 -0.59,-0.02 -1.18,-0.04 -1.77,-0.07 z"
         id="path500" />
      <path
         class="cls-1"
         d="m 1419.69,859.76 c 0.32,0.03 0.64,0.05 0.96,0.08 -0.32,-0.03 -0.64,-0.05 -0.96,-0.08 z"
         id="path502" />
      <path
         class="cls-1"
         d="m 1452.41,861.44 c 0.82,0.02 1.64,0.03 2.45,0.04 -0.81,-0.01 -1.62,-0.02 -2.45,-0.04 z"
         id="path504" />
      <path
         class="cls-1"
         d="m 1475.46,861.33 c 0.62,-0.02 1.24,-0.04 1.84,-0.05 -0.6,0.02 -1.22,0.04 -1.84,0.05 z"
         id="path506" />
      <path
         class="cls-1"
         d="m 1472.02,861.42 c 0.72,-0.02 1.45,-0.03 2.15,-0.05 -0.7,0.02 -1.43,0.03 -2.15,0.05 z"
         id="path508" />
      <path
         class="cls-1"
         d="m 1478.6,861.23 c 0.57,-0.02 1.13,-0.04 1.68,-0.06 -0.55,0.02 -1.11,0.04 -1.68,0.06 z"
         id="path510" />
      <path
         class="cls-1"
         d="m 1463.89,861.52 c 1.22,0 2.42,-0.02 3.59,-0.03 -1.17,0.01 -2.37,0.02 -3.59,0.03 z"
         id="path512" />
      <path
         class="cls-1"
         d="m 1467.82,861.49 c 1.05,-0.01 2.08,-0.03 3.09,-0.05 -1.01,0.02 -2.04,0.03 -3.09,0.05 z"
         id="path514" />
      <path
         class="cls-1"
         d="m 1484.32,861 c 0.47,-0.02 0.94,-0.05 1.4,-0.07 -0.46,0.02 -0.92,0.05 -1.4,0.07 z"
         id="path516" />
      <path
         class="cls-1"
         d="m 1414.17,859.25 c 0,0 -0.07,0 -0.1,-0.01 0,0 0,0 0,0 0.03,0 0.07,0 0.1,0.01 z"
         id="path518" />
      <path
         class="cls-1"
         d="m 1456.36,861.5 c 0.85,0 1.67,0.01 2.5,0.02 -0.83,0 -1.66,0 -2.5,-0.02 z"
         id="path520" />
      <path
         class="cls-1"
         d="m 1462.99,861.53 c -0.92,0 -1.85,0 -2.79,0 0.95,0 1.87,0 2.79,0 z"
         id="path522" />
      <path
         class="cls-1"
         d="m 1486.9,860.86 c 0.17,0 0.36,-0.02 0.53,-0.03 -2.54,25.23 -5.66,45.73 -9.29,61 -2.3,9.67 -3.51,18.51 -3.92,26.71 l 10.03,0.61 c 0.36,-7.68 1.47,-15.97 3.62,-25 3.82,-16.04 7.07,-37.57 9.68,-64.02 -1.63,0.14 -3.06,0.24 -4.22,0.33 -1.88,0.13 -4.04,0.27 -6.43,0.4 z"
         id="path524" />
      <path
         class="cls-1"
         d="m 1481.54,861.12 c 0.52,-0.02 1.03,-0.04 1.54,-0.07 -0.5,0.02 -1.02,0.04 -1.54,0.07 z"
         id="path526" />
      <path
         class="cls-1"
         d="m 1425.96,860.25 c 1.03,0.07 2.05,0.15 3.07,0.21 -1.01,-0.07 -2.04,-0.14 -3.07,-0.21 z"
         id="path528" />
      <path
         class="cls-1"
         d="m 1430.76,860.57 c 0.94,0.06 1.87,0.12 2.8,0.17 -0.93,-0.05 -1.86,-0.11 -2.8,-0.17 z"
         id="path530" />
      <path
         class="cls-1"
         d="m 1420.66,859.84 c 1.25,0.1 2.51,0.21 3.74,0.3 -1.24,-0.09 -2.49,-0.2 -3.74,-0.3 z"
         id="path532" />
      <path
         class="cls-1"
         d="m 1435.36,860.84 c 0.89,0.05 1.77,0.09 2.64,0.13 -0.87,-0.04 -1.76,-0.09 -2.64,-0.13 z"
         id="path534" />
      <path
         class="cls-1"
         d="m 1414.86,859.32 c 1.62,0.16 3.23,0.3 4.83,0.44 -1.6,-0.14 -3.21,-0.28 -4.83,-0.44 z"
         id="path536" />
      <path
         class="cls-1"
         d="m 1439.81,861.05 c 0.85,0.04 1.7,0.07 2.55,0.11 -0.84,-0.03 -1.69,-0.07 -2.55,-0.11 z"
         id="path538" />
      <path
         class="cls-1"
         d="m 1448.32,861.35 c 0.83,0.02 1.64,0.04 2.45,0.06 -0.81,-0.02 -1.63,-0.04 -2.45,-0.06 z"
         id="path540" />
      <path
         class="cls-1"
         d="m 1444.12,861.22 c 0.84,0.03 1.67,0.06 2.5,0.08 -0.83,-0.02 -1.66,-0.05 -2.5,-0.08 z"
         id="path542" />
      <path
         class="cls-1"
         d="m 1447.8,851.45 c -12.1,1.97 -23.44,4.58 -33.73,7.79 0.03,0 0.07,0 0.1,0.01 0.23,0.02 0.46,0.05 0.69,0.07 1.62,0.16 3.23,0.3 4.83,0.44 0.32,0.03 0.64,0.05 0.96,0.08 1.25,0.1 2.51,0.21 3.74,0.3 0.52,0.04 1.04,0.07 1.56,0.11 1.03,0.07 2.05,0.15 3.07,0.21 0.58,0.04 1.16,0.07 1.73,0.11 0.94,0.06 1.87,0.12 2.8,0.17 0.61,0.03 1.2,0.07 1.8,0.1 0.89,0.05 1.77,0.09 2.64,0.13 0.61,0.03 1.21,0.06 1.81,0.08 0.85,0.04 1.7,0.07 2.55,0.11 0.59,0.02 1.18,0.04 1.77,0.07 0.84,0.03 1.67,0.06 2.5,0.08 0.57,0.02 1.14,0.03 1.7,0.05 0.83,0.02 1.64,0.04 2.45,0.06 0.55,0.01 1.09,0.02 1.63,0.03 0.82,0.02 1.64,0.03 2.45,0.04 0.5,0 1.01,0.01 1.51,0.02 0.84,0 1.67,0.01 2.5,0.02 0.44,0 0.89,0 1.33,0 0.95,0 1.87,0 2.79,0 0.3,0 0.6,0 0.9,0 1.22,0 2.42,-0.02 3.59,-0.03 0.12,0 0.23,0 0.34,0 1.05,-0.01 2.08,-0.03 3.09,-0.05 0.38,0 0.74,-0.02 1.12,-0.02 0.72,-0.02 1.45,-0.03 2.15,-0.05 0.44,-0.01 0.86,-0.02 1.29,-0.04 0.62,-0.02 1.24,-0.04 1.84,-0.05 0.44,-0.01 0.86,-0.03 1.29,-0.04 0.57,-0.02 1.13,-0.04 1.68,-0.06 0.43,-0.02 0.85,-0.03 1.27,-0.05 0.52,-0.02 1.03,-0.04 1.54,-0.07 0.42,-0.02 0.83,-0.04 1.24,-0.06 0.47,-0.02 0.94,-0.05 1.4,-0.07 0.4,-0.02 0.8,-0.04 1.18,-0.06 2.39,-0.13 4.55,-0.27 6.43,-0.4 1.15,-0.08 2.59,-0.19 4.22,-0.33 0.14,-1.39 0.27,-2.78 0.41,-4.19 l 0.55,-5.87 -5.88,0.42 c -14.25,1.01 -29.34,1.37 -44.82,0.96 z"
         id="path544" />
      <path
         class="cls-2"
         d="m 999.14,824.72 c -1.69,0.65 -3.37,1.29 -5.04,1.92 -1.73,0.65 -3.45,1.29 -5.17,1.93 -1,0.37 -2.01,0.74 -3.01,1.1 -28.53,10.37 -54.79,17.87 -74.53,21.39 -9.41,1.68 -17.33,2.44 -23.33,2.19 -0.03,0 -0.06,0 -0.09,0 -3.52,-0.16 -7.12,-0.36 -10.87,-0.58 -1.25,-0.07 -2.52,-0.15 -3.8,-0.23 -10.95,-0.65 -22.59,-1.35 -34.5,-1.36 -8.36,4.37 -15.29,9.11 -20.55,14.11 -7.93,7.54 -11.95,15.5 -11.95,23.65 v 177.58 c 0,29.92 13.17,58.26 38.09,81.97 38.07,36.22 98.13,57.09 162.86,57.09 5.01,0 10.03,-0.12 15.08,-0.38 53.09,-2.65 102.39,-19.26 138.83,-46.78 35.67,-26.94 55.31,-61.46 55.31,-97.2 V 901.5 c 0,-17.41 -19.77,-35.79 -54.25,-50.41 -36.71,-15.57 -86.39,-25.61 -139.9,-28.28 -5.64,-0.28 -11.26,-0.47 -16.84,-0.59 -0.06,0.02 -0.12,0.05 -0.18,0.07 -2.07,0.82 -4.13,1.62 -6.19,2.41 z"
         id="path546" />
      <path
         class="cls-2"
         d="m 888.42,843.26 c 0.63,0.03 1.28,0.04 1.95,0.04 17.18,0.04 50.22,-8.27 86.24,-20.92 -28.45,0.89 -55.58,3.98 -80.06,9.22 -13.2,2.82 -25.31,6.23 -36.08,10.11 4.62,0.23 9.11,0.5 13.43,0.75 5.09,0.3 9.9,0.59 14.52,0.79 z"
         id="path548" />
      <path
         class="cls-1"
         d="m 911.4,851.06 c 19.75,-3.52 46,-11.02 74.53,-21.39 -28.53,10.37 -54.79,17.87 -74.53,21.39 z"
         id="path550" />
      <path
         class="cls-1"
         d="m 890.37,843.3 c -0.67,0 -1.33,-0.02 -1.95,-0.04 0.63,0.03 1.28,0.04 1.95,0.04 z"
         id="path552" />
      <path
         class="cls-1"
         d="m 988.93,828.57 c 1.72,-0.63 3.44,-1.27 5.17,-1.93 -1.73,0.65 -3.45,1.29 -5.17,1.93 z"
         id="path554" />
      <path
         class="cls-1"
         d="m 999.14,824.72 c 2.06,-0.79 4.12,-1.59 6.19,-2.41 -2.07,0.82 -4.13,1.62 -6.19,2.41 z"
         id="path556" />
      <path
         class="cls-1"
         d="m 888.07,853.25 c 0,0 -0.06,0 -0.09,0 -3.52,-0.16 -7.12,-0.36 -10.87,-0.58 3.75,0.22 7.35,0.42 10.87,0.58 0.03,0 0.06,0 0.09,0 z"
         id="path558" />
      <path
         class="cls-1"
         d="m 888.42,843.26 c -4.61,-0.2 -9.42,-0.49 -14.52,-0.79 5.09,0.3 9.9,0.59 14.52,0.79 z"
         id="path560" />
      <path
         class="cls-1"
         d="m 985.93,829.67 c 1,-0.36 2,-0.73 3.01,-1.1 -1,0.37 -2.01,0.74 -3.01,1.1 z"
         id="path562" />
      <path
         class="cls-1"
         d="m 994.1,826.64 c 1.67,-0.63 3.35,-1.27 5.04,-1.92 -1.69,0.65 -3.37,1.29 -5.04,1.92 z"
         id="path564" />
      <path
         class="cls-1"
         d="m 976.62,822.38 c 0,0 0,0 0,0 -36.03,12.65 -69.07,20.96 -86.24,20.92 17.18,0.04 50.22,-8.27 86.25,-20.92 z"
         id="path566" />
      <path
         class="cls-1"
         d="m 911.4,851.06 c -9.4,1.67 -17.33,2.44 -23.33,2.19 5.99,0.25 13.92,-0.52 23.33,-2.19 z"
         id="path568" />
      <path
         class="cls-1"
         d="m 838.81,851.08 c 0,0 0,0 0,0 11.91,0.01 23.56,0.71 34.5,1.36 -10.95,-0.65 -22.59,-1.35 -34.5,-1.36 z"
         id="path570" />
      <path
         class="cls-1"
         d="m 860.47,841.71 c 0,0 0,0 0,0 4.62,0.23 9.11,0.5 13.44,0.75 -4.32,-0.26 -8.81,-0.53 -13.43,-0.75 z"
         id="path572" />
      <path
         class="cls-1"
         d="m 976.62,822.38 c -36.03,12.65 -69.07,20.96 -86.25,20.92 -0.67,0 -1.33,-0.02 -1.95,-0.04 -4.61,-0.2 -9.42,-0.49 -14.52,-0.79 -4.32,-0.26 -8.81,-0.53 -13.44,-0.75 -8,2.88 -15.25,6.02 -21.66,9.37 11.91,0.01 23.56,0.71 34.5,1.36 1.28,0.08 2.55,0.15 3.8,0.23 3.75,0.22 7.35,0.42 10.87,0.58 0.03,0 0.06,0 0.09,0 6,0.25 13.92,-0.52 23.33,-2.19 19.74,-3.52 46,-11.02 74.53,-21.39 1,-0.36 2,-0.73 3.01,-1.1 1.72,-0.63 3.44,-1.27 5.17,-1.93 1.67,-0.63 3.35,-1.27 5.04,-1.92 2.06,-0.79 4.12,-1.59 6.19,-2.41 0.06,-0.02 0.12,-0.05 0.18,-0.07 -3.94,-0.08 -7.87,-0.13 -11.77,-0.13 -5.75,0 -11.46,0.1 -17.12,0.27 z"
         id="path574" />
      <path
         class="cls-1"
         d="m 1484.2,959.18 184.39,11.28 v -10.02 l -184.35,-11.28 c -0.16,3.46 -0.17,6.79 -0.04,10.02 z"
         id="path576" />
      <path
         class="cls-1"
         d="m 1474.11,958.56 10.09,0.62 c -0.13,-3.22 -0.12,-6.56 0.04,-10.02 l -10.03,-0.61 c -0.17,3.45 -0.2,6.79 -0.1,10.01 z"
         id="path578" />
      <path
         class="cls-1"
         d="m 1412.52,849.18 c 11.85,1.23 23.67,1.97 35.28,2.27 16.91,-2.75 35.28,-4.22 54.31,-4.22 5.52,0 11.1,0.13 16.7,0.38 12.29,-1.95 19.28,-4.17 21.91,-5.62 -0.16,-0.9 -0.32,-1.87 -0.48,-2.86 -6.27,-0.63 -12.63,-1.11 -19.06,-1.43 -40.38,-2.01 -78.51,2.27 -108.66,11.48 z"
         id="path580" />
      <path
         class="cls-1"
         d="m 1369.9,882.43 c 9.91,-9.42 25.26,-17.3 44.17,-23.19 -1.35,-0.13 -2.7,-0.27 -4.06,-0.41 -0.53,-0.06 -1.06,-0.12 -1.58,-0.18 -1.1,-0.12 -2.21,-0.24 -3.32,-0.38 -0.63,-0.07 -1.27,-0.15 -1.91,-0.23 -1.02,-0.12 -2.05,-0.25 -3.08,-0.38 -0.68,-0.09 -1.36,-0.18 -2.05,-0.27 -1,-0.13 -2,-0.27 -3,-0.41 -0.71,-0.1 -1.42,-0.2 -2.13,-0.31 -0.18,-0.03 -0.36,-0.05 -0.54,-0.08 -11.95,5.27 -21.95,11.51 -29.4,18.6 -9.71,9.24 -14.63,19.43 -14.63,30.3 v 35.36 l 10,0.61 v -35.98 c 0,-8.02 3.88,-15.78 11.53,-23.05 z"
         id="path582" />
      <path
         class="cls-1"
         d="M 1358.38,1059.46 V 951.48 l -10,-0.61 v 5.1 c 2.42,1.15 4.87,2.37 7.34,3.67 l -4.67,8.84 c -0.89,-0.47 -1.78,-0.93 -2.66,-1.38 v 92.36 c 0,31.32 13.57,61.48 38.21,84.92 28.18,26.81 67.56,42.91 110.54,45.7 0.47,-3.37 0.91,-6.69 1.33,-9.99 -40.65,-2.64 -78.78,-18.03 -104.98,-42.96 -22.96,-21.85 -35.1,-48.71 -35.1,-77.68 z"
         id="path584" />
      <path
         class="cls-1"
         d="m 1631.68,862.59 c -22.26,-10.64 -50.36,-18.3 -81.1,-22.27 0.11,0.59 0.21,1.15 0.32,1.69 0.38,1.89 -0.1,3.84 -1.36,5.49 -0.65,0.85 -1.6,1.65 -2.79,2.41 30.68,3.73 58.67,11.21 80.61,21.7 26.2,12.52 41.23,28.38 41.23,43.52 v 45.3 l 5.57,0.34 -0.61,9.98 -4.96,-0.3 v 84.97 c 0,65.87 -64.97,120.71 -147.91,124.84 -4.08,0.2 -8.15,0.27 -12.2,0.21 -0.42,3.3 -0.85,6.63 -1.32,10 1.15,0.02 2.3,0.04 3.46,0.04 3.5,0 7.03,-0.09 10.57,-0.26 42.52,-2.12 82.15,-17.18 111.59,-42.41 29.55,-25.31 45.82,-58.13 45.82,-92.42 V 915.13 c 0,-19.43 -16.66,-38.09 -46.91,-52.55 z"
         id="path586" />
      <path
         class="cls-1"
         d="m 1403.2,858.04 c 0.64,0.08 1.27,0.16 1.91,0.23 -0.63,-0.07 -1.27,-0.15 -1.91,-0.23 z"
         id="path588" />
      <path
         class="cls-1"
         d="m 1408.43,858.65 c 0.53,0.06 1.06,0.12 1.58,0.18 -0.53,-0.06 -1.06,-0.12 -1.58,-0.18 z"
         id="path590" />
      <path
         class="cls-1"
         d="m 1392.95,856.67 c 0.71,0.1 1.42,0.21 2.13,0.31 -0.71,-0.1 -1.42,-0.2 -2.13,-0.31 z"
         id="path592" />
      <path
         class="cls-1"
         d="m 1398.07,857.39 c 0.68,0.09 1.37,0.18 2.05,0.27 -0.68,-0.09 -1.36,-0.18 -2.05,-0.27 z"
         id="path594" />
      <path
         class="cls-1"
         d="m 1540.72,842 c -2.63,1.44 -9.62,3.66 -21.91,5.62 0.62,0.03 1.25,0.05 1.87,0.08 8.85,0.44 17.56,1.19 26.07,2.22 1.19,-0.75 2.14,-1.55 2.79,-2.41 1.25,-1.65 1.74,-3.6 1.36,-5.49 -0.11,-0.54 -0.22,-1.11 -0.32,-1.69 -3.42,-0.44 -6.86,-0.84 -10.34,-1.19 0.16,1 0.32,1.96 0.48,2.86 z"
         id="path596" />
      <path
         class="cls-1"
         d="m 1392.41,856.59 c 0,0 0,0 0,0 0.18,0.03 0.36,0.05 0.54,0.08 -0.18,-0.03 -0.36,-0.05 -0.54,-0.08 z"
         id="path598" />
      <path
         class="cls-1"
         d="m 1405.1,858.28 c 1.11,0.13 2.22,0.25 3.32,0.38 -1.1,-0.12 -2.21,-0.24 -3.32,-0.38 z"
         id="path600" />
      <path
         class="cls-1"
         d="m 1498.46,1180.1 c -0.42,3.3 -0.86,6.62 -1.33,9.99 3.32,0.22 6.67,0.34 10.04,0.4 0.47,-3.37 0.91,-6.7 1.32,-10 -3.36,-0.04 -6.7,-0.17 -10.03,-0.38 z"
         id="path602" />
      <path
         class="cls-1"
         d="m 1400.12,857.66 c 1.03,0.13 2.05,0.26 3.08,0.38 -1.02,-0.12 -2.05,-0.25 -3.08,-0.38 z"
         id="path604" />
      <path
         class="cls-1"
         d="m 1395.07,856.98 c 1,0.14 2,0.28 3,0.41 -1,-0.13 -2,-0.27 -3,-0.41 z"
         id="path606" />
      <path
         class="cls-1"
         d="m 1414.07,859.24 c 0,0 0,0 0,0 -1.35,-0.13 -2.7,-0.27 -4.06,-0.41 1.36,0.15 2.72,0.28 4.06,0.41 z"
         id="path608" />
      <path
         class="cls-1"
         d="m 1392.95,856.67 c 0.71,0.1 1.42,0.21 2.13,0.31 1,0.14 2,0.28 3,0.41 0.68,0.09 1.37,0.18 2.05,0.27 1.03,0.13 2.05,0.26 3.08,0.38 0.64,0.08 1.27,0.16 1.91,0.23 1.11,0.13 2.22,0.25 3.32,0.38 0.53,0.06 1.06,0.12 1.58,0.18 1.36,0.15 2.72,0.28 4.06,0.41 10.29,-3.21 21.63,-5.82 33.73,-7.79 -11.61,-0.31 -23.43,-1.05 -35.28,-2.27 -7.19,2.19 -13.91,4.67 -20.11,7.41 0.18,0.03 0.36,0.05 0.54,0.08 z"
         id="path610" />
      <polygon
         class="cls-1"
         points="1668.6,970.46 1673.56,970.76 1674.17,960.78 1668.6,960.44 "
         id="polygon612" />
      <polygon
         class="cls-1"
         points="1358.38,941.46 1348.38,940.85 1348.38,950.87 1358.38,951.48 "
         id="polygon614" />
      <path
         class="cls-1"
         d="m 1218.58,958.17 c 0.25,-0.18 2.99,-2.12 7.92,-4.66 v -52 c 0,-21.94 -21.43,-43.11 -60.35,-59.61 -36.67,-15.55 -85.72,-25.73 -138.57,-28.8 -7.13,3.09 -14.49,6.15 -22.07,9.14 5.59,0.12 11.2,0.3 16.84,0.59 53.5,2.67 103.19,12.71 139.9,28.28 34.48,14.62 54.25,32.99 54.25,50.41 v 159.62 c 0,35.74 -19.64,70.26 -55.31,97.2 -36.44,27.52 -85.75,44.14 -138.83,46.78 -5.05,0.25 -10.08,0.38 -15.08,0.38 -64.73,0 -124.79,-20.87 -162.86,-57.09 -24.92,-23.71 -38.09,-52.05 -38.09,-81.97 V 888.86 c 0,-8.15 4.02,-16.11 11.95,-23.65 5.26,-5 12.19,-9.74 20.55,-14.11 -6.65,0 -13.39,0.2 -20.13,0.74 -2.65,1.98 -5.1,4.02 -7.31,6.12 -9.99,9.5 -15.05,19.9 -15.05,30.89 v 55.49 l 5.3,0.32 -0.61,9.98 -4.7,-0.29 v 112.07 c 0,32.73 14.24,63.58 41.19,89.21 39.91,37.97 102.52,59.85 169.81,59.85 5.15,0 10.33,-0.13 15.53,-0.39 55.07,-2.75 106.34,-20.07 144.36,-48.79 38.23,-28.87 59.29,-66.23 59.29,-105.18 v -96.17 c -1.34,0.81 -2.06,1.31 -2.09,1.33 l -5.83,-8.12 z"
         id="path616" />
      <path
         class="cls-1"
         d="m 860.47,841.71 c 10.77,-3.88 22.89,-7.29 36.08,-10.11 24.48,-5.23 51.61,-8.33 80.06,-9.22 8.96,-3.15 18.09,-6.56 27.22,-10.18 -67.79,-1.16 -129.46,9.72 -167.59,28.93 8.33,-0.08 16.46,0.19 24.22,0.57 z"
         id="path618" />
      <polygon
         class="cls-1"
         points="801.02,954.64 801.62,944.66 796.32,944.33 796.32,954.35 "
         id="polygon620" />
      <path
         class="cls-1"
         d="m 860.47,841.71 c 0,0 0,0 0,0 -7.76,-0.38 -15.89,-0.65 -24.22,-0.57 v 0 c 8.33,-0.08 16.46,0.19 24.22,0.57 z"
         id="path622" />
      <path
         class="cls-1"
         d="m 818.68,851.82 c 0,0 0,0 0,0 6.74,-0.54 13.48,-0.75 20.13,-0.74 0,0 0,0 0,0 -6.65,0 -13.39,0.2 -20.13,0.74 z"
         id="path624" />
      <path
         class="cls-1"
         d="m 976.62,822.38 c 8.96,-3.15 18.09,-6.56 27.22,-10.18 0,0 0,0 0,0 -9.13,3.62 -18.27,7.03 -27.22,10.18 0,0 0,0 0,0 z"
         id="path626" />
      <path
         class="cls-1"
         d="m 1003.84,812.2 c -9.13,3.62 -18.27,7.03 -27.22,10.18 5.66,-0.18 11.36,-0.27 17.12,-0.27 3.9,0 7.83,0.05 11.77,0.13 7.57,-3 14.94,-6.05 22.07,-9.14 -1.57,-0.09 -3.15,-0.18 -4.73,-0.26 -6.38,-0.32 -12.72,-0.53 -19.01,-0.63 z"
         id="path628" />
      <path
         class="cls-1"
         d="m 838.81,851.08 c 6.41,-3.36 13.67,-6.5 21.66,-9.37 -7.76,-0.38 -15.89,-0.65 -24.22,-0.57 -6.59,3.32 -12.48,6.89 -17.57,10.69 6.74,-0.54 13.48,-0.75 20.13,-0.74 z"
         id="path630" />
      <path
         class="cls-1"
         d="m 1257.4,942.88 c -13.78,2.76 -24.3,7.23 -30.9,10.63 v 11.45 c 4.54,-2.74 16.3,-9.03 33.36,-12.37 28.75,-5.63 58.51,-0.74 88.51,14.51 v -11.14 c -38.12,-18.07 -70.25,-17.23 -90.97,-13.08 z"
         id="path632" />
      <path
         class="cls-1"
         d="m 1351.04,968.48 4.67,-8.84 c -2.47,-1.31 -4.91,-2.53 -7.34,-3.67 v 11.14 c 0.89,0.45 1.78,0.91 2.66,1.38 z"
         id="path634" />
      <path
         class="cls-1"
         d="m 1218.58,958.17 5.83,8.12 c 0,0 0.75,-0.52 2.09,-1.33 v -11.45 c -4.93,2.54 -7.67,4.48 -7.92,4.66 z"
         id="path636" />
    </g>
    <g
       id="hat">
      <path
         class="cls-1"
         d="m 392.12,996.9 1.69,-16.95 c 2.12,-21.24 4.31,-43.21 0.19,-62.29 -2.53,-11.71 -7.46,-22.76 -12.69,-34.46 -3.32,-7.43 -6.75,-15.12 -9.7,-23.31 -8.65,-23.98 -11.94,-48.31 -9.79,-72.31 1.36,-15.11 4.91,-30.4 8.36,-45.17 2.42,-10.37 4.7,-20.17 6.03,-29.16 1.56,-10.49 15.99,-103.37 42.05,-132.58 20.83,-23.36 38.52,-63.46 52.74,-95.69 8.04,-18.23 14.98,-33.97 21.21,-43.99 19.39,-31.23 51.52,-74.37 83.53,-101.79 31.05,-26.6 66.13,-33.63 94.31,-39.28 3.05,-0.61 6.03,-1.21 8.92,-1.81 20.18,-4.23 32.03,-9.62 42.48,-14.39 4.37,-1.99 8.49,-3.87 12.71,-5.39 9.97,-3.6 18.56,-9.26 28.52,-15.82 2.99,-1.97 6.09,-4.01 9.39,-6.11 15.66,-9.94 34.48,-19.97 65.8,-25.99 31.59,-6.06 76.37,-8.22 114.08,-5.49 34.61,2.51 64,9.35 92.48,21.54 26.54,11.35 51.27,26.81 75.19,41.77 l 6.69,4.18 -6.63,4.27 c -69.97,45 -142.33,91.53 -222.87,151.72 -78.99,59.03 -169.79,134.13 -215.88,178.57 -44.54,42.94 -45.12,55.32 -45.55,64.35 -0.5,10.58 -0.5,18.97 -0.5,27.08 v 2.41 l -1.89,1.5 c -47.79,37.94 -97.2,77.16 -124.28,111.81 -25.15,32.18 -30.88,62.43 -36.43,91.69 -0.34,1.78 -0.68,3.56 -1.02,5.34 l -0.68,3.52 -3.55,0.49 c -1.29,0.18 -2.6,0.33 -3.92,0.49 -8.16,0.98 -16.6,2 -25.14,8.59 v 0 c -10.59,8.19 -23.13,24 -35.26,39.3 l -10.59,13.35 z M 918.64,233.79 c -28.11,0 -57.19,2.28 -78.88,6.45 -31.17,5.98 -48.51,15.84 -62.33,24.61 -3.23,2.05 -6.29,4.07 -9.25,6.01 -10.49,6.91 -19.54,12.87 -30.62,16.87 -3.84,1.39 -7.6,3.1 -11.96,5.09 -10.38,4.73 -23.3,10.62 -44.57,15.08 -2.92,0.61 -5.93,1.21 -9.01,1.83 -27.04,5.42 -60.69,12.17 -89.77,37.07 -31.14,26.68 -62.54,68.88 -81.54,99.47 -5.85,9.43 -12.67,24.87 -20.55,42.75 -14.5,32.87 -32.54,73.77 -54.42,98.31 -19.59,21.97 -34.12,90.42 -39.62,127.4 -1.4,9.39 -3.72,19.38 -6.18,29.95 -3.36,14.44 -6.84,29.38 -8.14,43.8 -2.02,22.54 1.08,45.42 9.23,68.02 2.83,7.85 6.18,15.36 9.43,22.63 5.44,12.19 10.58,23.7 13.33,36.42 3.33,15.45 2.9,32.09 1.54,48.72 9.11,-11.17 18.18,-21.48 26.53,-27.93 v 0 c 10.72,-8.28 20.99,-9.52 30.06,-10.61 0.07,0 0.13,-0.02 0.2,-0.02 0.11,-0.58 0.22,-1.17 0.33,-1.76 5.77,-30.43 11.74,-61.89 38.38,-95.98 27.44,-35.12 76.4,-74.15 124.05,-111.99 0,-7.49 0.05,-15.37 0.51,-25.13 0.53,-11.31 1.19,-25.38 48.6,-71.08 46.36,-44.7 137.55,-120.14 216.84,-179.38 78.28,-58.5 148.75,-104.07 216.81,-147.85 -21.52,-13.41 -43.74,-26.86 -67.14,-36.87 -27.43,-11.74 -55.79,-18.33 -89.27,-20.76 -10.35,-0.75 -21.39,-1.11 -32.59,-1.11 z"
         id="path640" />
      <path
         class="cls-1"
         d="m 1497.82,657.06 -2.78,-3.55 c -64.62,-82.47 -131.45,-167.75 -218.81,-196.73 -87.47,-29.01 -200.05,-3.18 -308.92,21.8 l -19.01,4.36 14.57,-12.97 c 86.95,-77.4 176.86,-157.43 253.03,-200.49 70.87,-40.06 135.09,-51.76 208.23,-37.94 0.27,0.05 0.54,0.11 0.82,0.16 l 0.57,0.11 c 70.96,13.69 138.61,48.22 185.59,94.73 v 0 c 26.38,26.11 46.21,55.54 57.36,85.11 12.34,32.74 13.37,64.61 2.96,92.14 -21.87,57.83 -97.07,105.12 -169.79,150.86 l -3.82,2.4 z M 1187.04,433.95 c 32.6,0 63.67,3.84 92.34,13.35 88.96,29.51 156.08,113.98 220.75,196.5 70.12,-44.11 141.64,-89.81 161.95,-143.53 22.15,-58.59 -15.44,-124.48 -58,-166.61 v 0 c -45.61,-45.15 -111.39,-78.69 -180.45,-92.02 l -1.35,-0.27 c -70.66,-13.35 -132.79,-2 -201.46,36.82 -71.03,40.15 -154.77,113.4 -236.74,186.29 69.05,-15.74 138.94,-30.54 202.96,-30.54 z"
         id="path642" />
      <path
         class="cls-1"
         d="m 624.88,728.7 v -10.31 c 0,-8.23 0,-16.73 0.51,-27.55 0.53,-11.31 1.19,-25.38 48.6,-71.08 46.36,-44.7 137.55,-120.14 216.84,-179.38 80.82,-60.4 153.33,-107.03 223.45,-152.12 l 0.32,-0.21 0.35,-0.15 c 54.82,-24.47 111.51,-49.77 161.93,-60.84 45.06,-9.9 90.2,-9.6 134.16,0.9 4.9,1.17 9.79,2.47 14.95,3.98 l -2.35,9.71 -1.35,-0.27 c -70.66,-13.35 -132.79,-1.99 -201.46,36.82 -75.25,42.53 -164.75,122.21 -251.3,199.25 l -0.56,0.43 c -8.73,5.8 -17.5,11.61 -26.31,17.44 -43.65,28.9 -88.79,58.79 -135.19,92.69 -55.75,40.73 -116.11,88.3 -174.49,134.31 l -8.09,6.38 z m 494.48,-431.82 c -69.87,44.94 -142.13,91.42 -222.55,151.51 -78.99,59.03 -169.79,134.13 -215.88,178.57 -44.54,42.94 -45.12,55.32 -45.55,64.35 -0.29,6.21 -0.41,11.66 -0.46,16.74 55.9,-44.05 113.35,-89.18 166.65,-128.13 46.59,-34.04 91.82,-63.99 135.57,-92.95 8.71,-5.76 17.37,-11.5 26,-17.24 86.87,-77.33 176.67,-157.24 252.77,-200.26 33.8,-19.11 66.1,-31.76 98.56,-38.27 -11.81,1.15 -23.63,3.02 -35.45,5.61 -49.32,10.83 -105.4,35.84 -159.65,60.05 z"
         id="path644" />
      <g
         id="g686">
        <path
           class="cls-2"
           d="m 1048.8,2005 c -2.3,-23.99 -4.66,-56.25 -6.33,-80.77 -0.06,-0.9 -0.12,-1.78 -0.18,-2.64 -6.67,-5.22 -12.62,-11.9 -18.4,-18.38 -4.58,-5.14 -8.91,-9.99 -13.47,-14.06 -11.06,-9.86 -37.76,-15.37 -42.18,-16.22 -15.16,1.26 -28.14,-0.11 -39.61,-1.32 -2.7,-0.28 -5.31,-0.56 -7.87,-0.79 0,0.03 -0.01,0.06 -0.02,0.1 -1.67,7.11 -10,16.02 -45.24,36.41 -2.54,1.47 -5.11,2.92 -7.64,4.33 -10.51,5.82 -20.86,11.01 -30.83,15.44 l 8.24,70.21 0.9,7.69 h 202.62 z m -99.3,-90 c 13.22,0 24.43,9.18 28.17,21.79 0.86,2.91 1.33,6 1.33,9.21 0,3.21 -0.47,6.3 -1.33,9.21 -3.74,12.61 -14.95,21.79 -28.17,21.79 -16.27,0 -29.5,-13.91 -29.5,-31 0,-17.09 13.23,-31 29.5,-31 z"
           id="path646" />
        <ellipse
           class="cls-2"
           cx="949.5"
           cy="1946"
           rx="19.5"
           ry="21"
           id="ellipse648" />
        <path
           class="cls-1"
           d="M 977.67,1936.79 C 973.93,1924.18 962.72,1915 949.5,1915 c 13.22,0 24.43,9.18 28.17,21.79 z"
           id="path650" />
        <path
           class="cls-1"
           d="m 949.5,1977 c 13.22,0 24.43,-9.18 28.17,-21.79 -3.74,12.61 -14.96,21.79 -28.17,21.79 z"
           id="path652" />
        <path
           class="cls-1"
           d="m 867.87,1911.65 c 2.53,-1.4 5.1,-2.86 7.64,-4.33 35.24,-20.39 43.57,-29.3 45.24,-36.41 0,-0.03 0.01,-0.06 0.02,-0.1 2.56,0.23 5.17,0.51 7.87,0.79 11.48,1.21 24.46,2.57 39.61,1.32 4.41,0.86 31.12,6.36 42.18,16.22 4.56,4.07 8.89,8.92 13.47,14.06 5.77,6.48 11.73,13.16 18.4,18.38 0.06,0.86 0.12,1.75 0.18,2.64 -0.11,-1.68 -0.23,-3.32 -0.33,-4.92 l -0.72,-10.64 8.64,6.25 c 0,0 0.01,0 0.02,0.01 h -0.01 c -6.57,-4.77 -12.74,-11.69 -18.7,-18.38 -4.56,-5.12 -9.28,-10.42 -14.28,-14.87 -14.12,-12.6 -46.33,-18.48 -47.69,-18.72 l -0.7,3.91 -0.18,-3.99 h -1.23 c 0,0 -0.19,0.1 -0.19,0.1 -14.06,1.13 -25.93,-0.12 -37.41,-1.32 -4.95,-0.52 -9.62,-1.01 -14.28,-1.29 l -10,-0.59 5.54,8.35 c 0.11,0.17 0.14,0.2 0.07,0.5 -0.82,3.48 -8.51,11.52 -40.51,30.04 -2.48,1.44 -5,2.86 -7.48,4.23 -9.26,5.13 -18.38,9.74 -27.21,13.77 l 1.22,10.42 c 9.97,-4.44 20.33,-9.62 30.83,-15.44 z"
           id="path654" />
        <polygon
           class="cls-1"
           points="845.28,1997.31 846.18,2005 "
           id="polygon656" />
        <path
           class="cls-1"
           d="m 949.5,1977 c 13.22,0 24.43,-9.18 28.17,-21.79 0.86,-2.91 1.33,-6 1.33,-9.21 0,-3.21 -0.47,-6.3 -1.33,-9.21 -3.74,-12.61 -14.96,-21.79 -28.17,-21.79 -16.27,0 -29.5,13.91 -29.5,31 0,17.09 13.23,31 29.5,31 z m 0,-52 c 10.75,0 19.5,9.42 19.5,21 0,11.58 -8.75,21 -19.5,21 -10.75,0 -19.5,-9.42 -19.5,-21 0,-11.58 8.75,-21 19.5,-21 z"
           id="path658" />
        <path
           class="cls-2"
           d="m 1191.43,1952.29 c -25.09,-15.06 -53.63,-43.62 -71.33,-62.72 -5.28,13.3 -14.71,29.77 -27.19,47.38 -0.28,0.39 -0.47,0.66 -0.55,0.78 -2.45,3.72 -7.05,3.77 -10.25,2.67 v 0 c -0.6,-0.21 -14.5,-5.04 -29.34,-12.29 1.5,21.69 4.36,54.96 6.38,76.9 h 191.49 c -15.68,-17.15 -37.95,-39.96 -59.2,-52.71 z"
           id="path660" />
        <path
           class="cls-1"
           d="m 1048.8,2005 c -2.14,-23.34 -4.75,-57.69 -6.33,-80.77 1.67,24.52 4.03,56.78 6.33,80.77 z"
           id="path662" />
        <path
           class="cls-1"
           d="m 1052.11,1918.64 c 1.69,25.08 4.22,60.33 6.69,85.88 l 0.05,0.48 h 0.29 c -2.02,-21.94 -4.88,-55.21 -6.38,-76.9 14.84,7.25 28.74,12.08 29.34,12.29 v 0 c 3.2,1.1 7.8,1.06 10.25,-2.67 0.08,-0.12 0.27,-0.39 0.55,-0.78 12.49,-17.61 21.91,-34.07 27.19,-47.38 17.7,19.11 46.24,47.67 71.33,62.72 21.25,12.75 43.52,35.56 59.2,52.71 h 13.01 c -17.84,-20.26 -36.09,-42.7 -67.07,-61.29 -26.88,-16.13 -58.36,-48.94 -74.74,-67.06 l -6.01,-6.66 -2.5,8.62 c -3.85,13.28 -13.9,31.81 -28.33,52.19 -2.37,-0.84 -15.74,-5.66 -29.19,-12.35 -1.88,-0.93 -3.75,-2.09 -5.74,-3.52 l 1.88,1.36 0.16,2.34 z m 31.91,13.56 c 0,0 0,0 0,0.01 0,0 0,0 0,-0.01 z"
           id="path664" />
        <path
           class="cls-1"
           d="m 1041.42,1908.67 0.72,10.64 c 0.11,1.6 0.22,3.24 0.33,4.92 1.59,23.08 4.19,57.43 6.33,80.77 h 10.04 l -0.05,-0.48 c -2.46,-25.55 -5,-60.81 -6.69,-85.88 l -0.16,-2.34 -1.88,-1.36 c 0,0 -0.01,0 -0.02,-0.01 l -8.64,-6.25 z"
           id="path666" />
        <polygon
           class="cls-2"
           points="10,2000 10,1791.3 5,1794.28 5,2005 835.52,2005 834.98,2000 "
           id="polygon668" />
        <path
           class="cls-2"
           d="m 827.44,1931.18 c -40.9,16.61 -64.61,15.76 -71.13,15.05 h -0.1 c -0.2,-0.03 -0.38,-0.06 -0.55,-0.08 l -0.15,-0.02 c -0.37,-0.05 -0.66,-0.09 -0.88,-0.13 l -1.1,-0.2 -0.61,-0.26 c -161.14,-74.09 -266.06,-147.92 -325.71,-196.8 -62.7,-51.39 -89.35,-85.94 -92.03,-89.51 -0.82,-0.9 -2.48,-3.03 -3.3,-6.39 -41.27,10.97 -90.68,28.04 -147,50.8 -22.39,9.05 -116.75,50.08 -174.87,87.66 V 2000 h 824.97 l -7.53,-68.81 v 0 z"
           id="path670" />
        <polygon
           class="cls-1"
           points="827.44,1931.18 827.44,1931.19 "
           id="polygon672" />
        <polygon
           class="cls-1"
           points="845.28,1997.31 837.03,1927.1 "
           id="polygon674" />
        <path
           class="cls-1"
           d="m 184.87,1703.64 c 56.31,-22.75 105.73,-39.83 147,-50.8 0.83,3.36 2.48,5.5 3.3,6.39 2.69,3.57 29.33,38.12 92.03,89.51 59.65,48.88 164.57,122.71 325.71,196.8 l 0.61,0.26 1.1,0.2 c 0.22,0.04 0.52,0.08 0.88,0.13 l 0.15,0.02 c 0.17,0.02 0.35,0.04 0.55,0.06 h 0.1 c 6.52,0.72 30.23,1.57 71.13,-15.04 l -1.21,-10.29 3.42,-1.48 c 2.03,-0.88 4.09,-1.8 6.15,-2.74 l -0.04,-0.33 -6.25,3.12 c -42.22,18.19 -65.76,17.49 -72.07,16.83 h -0.09 c -0.2,-0.03 -0.38,-0.05 -0.54,-0.07 l -0.12,-0.02 c -0.08,0 -0.15,-0.02 -0.22,-0.03 C 596.92,1862.74 493.03,1789.7 433.95,1741.34 369.88,1688.89 343.26,1653.36 343,1653.01 l -0.1,-0.28 -0.46,-0.36 c -0.31,-0.39 -1.44,-2.02 -0.96,-5.2 l 1.11,-7.45 -7.3,1.87 c -42.86,10.99 -94.74,28.74 -154.18,52.76 -27.66,11.18 -118.36,50.99 -176.13,88.26 v 11.66 l 5,-2.98 c 58.12,-37.58 152.48,-78.61 174.87,-87.66 z"
           id="path676" />
        <polygon
           class="cls-1"
           points="834.98,2000 835.52,2005 836.11,2005 829.83,1951.51 835.52,2000 "
           id="polygon678" />
        <path
           class="cls-1"
           d="m 826.23,1920.89 1.21,10.29 v 0 l 2.39,20.33 6.28,53.49 h 10.07 l -0.9,-7.69 -8.24,-70.21 v 0 l -1.22,-10.42 c -2.07,0.94 -4.12,1.86 -6.15,2.74 l -3.42,1.48 z"
           id="path680" />
        <polygon
           class="cls-1"
           points="835.52,2000 829.83,1951.51 827.44,1931.19 834.98,2000 "
           id="polygon682" />
        <polygon
           class="cls-1"
           points="827.44,1931.18 827.44,1931.19 829.83,1951.51 "
           id="polygon684" />
      </g>
    </g>
  </g>
</svg>
